<?xml version="1.0" standalone="no"?>
<!DOCTYPE svg PUBLIC "-//W3C//DTD SVG 20010904//EN"
 "http://www.w3.org/TR/2001/REC-SVG-20010904/DTD/svg10.dtd">
<svg version="1.0" xmlns="http://www.w3.org/2000/svg"
 width="1200.000000pt" height="720.000000pt" viewBox="0 0 1200.000000 720.000000"
 preserveAspectRatio="xMidYMid meet">
<metadata>
Created by potrace 1.16, written by Peter Selinger 2001-2019
</metadata>
<g transform="translate(0.000000,720.000000) scale(0.100000,-0.100000)"
fill="#000000" stroke="none">
<path d="M9792 7033 c6 -24 -19 -51 -70 -76 -63 -30 -122 -36 -122 -12 0 8 -4
15 -10 15 -5 0 -10 -15 -10 -34 0 -50 -8 -64 -45 -76 -19 -6 -37 -20 -40 -31
-4 -10 -11 -19 -16 -19 -5 0 -9 -6 -9 -14 0 -8 -6 -21 -13 -28 -8 -7 -16 -20
-20 -28 -3 -10 -6 -7 -6 8 -1 12 -5 22 -9 22 -23 0 -46 -333 -61 -865 -7 -253
-10 -273 -49 -317 -18 -22 -55 -23 -71 -4 -10 12 -19 12 -64 -4 -49 -17 -52
-20 -55 -57 l-3 -38 59 -2 c114 -2 216 -23 219 -43 5 -28 -15 -43 -66 -48 -84
-8 -60 -24 27 -18 42 4 102 8 132 10 86 6 188 16 276 27 80 11 82 11 88 41 10
52 7 98 -11 131 -21 41 -22 186 -3 672 16 418 16 401 6 570 -8 125 -29 225
-47 225 -5 0 -8 -3 -7 -7z"/>
<path d="M5543 7009 c-77 -38 -123 -111 -123 -197 0 -45 21 -92 63 -138 42
-47 52 -68 61 -117 4 -21 11 -35 15 -32 11 6 -1 72 -19 105 -7 14 -26 40 -43
59 -59 69 -72 142 -37 211 37 73 125 118 208 106 104 -14 174 -89 174 -187 -1
-55 -10 -76 -63 -139 -21 -25 -43 -58 -48 -73 -14 -36 -14 -87 -1 -87 6 0 10
11 10 24 0 39 17 75 60 126 49 58 60 87 60 152 0 92 -53 167 -139 196 -53 19
-131 15 -178 -9z"/>
<path d="M8449 6672 c-256 -67 -388 -358 -270 -596 41 -83 109 -149 200 -194
72 -36 79 -37 180 -37 98 0 111 2 172 31 169 80 256 227 247 414 -3 74 -9 98
-38 156 -58 118 -152 194 -285 229 -75 19 -123 18 -206 -3z m206 -28 c361 -93
404 -576 67 -741 -51 -25 -67 -28 -162 -28 -93 0 -112 3 -162 27 -160 75 -258
254 -230 418 29 162 137 283 292 326 63 17 125 17 195 -2z"/>
<path d="M8501 6594 c-20 -18 -35 -44 -41 -69 -9 -40 -2 -165 9 -165 3 0 15 7
25 15 11 8 35 15 53 15 44 0 150 70 159 105 14 56 -46 115 -124 123 -43 4 -53
1 -81 -24z"/>
<path d="M8263 6408 c-25 -12 -63 -82 -63 -116 0 -13 7 -38 15 -58 18 -43 63
-64 137 -64 74 0 101 9 92 29 -4 9 -10 36 -13 61 -6 44 -49 123 -80 147 -19
15 -58 15 -88 1z"/>
<path d="M8688 6363 l-37 -4 19 -32 c11 -18 20 -47 20 -66 0 -44 51 -125 90
-141 26 -11 34 -9 66 10 66 41 85 134 38 189 -37 45 -86 55 -196 44z"/>
<path d="M8495 6338 c-55 -48 -40 -134 27 -163 66 -27 128 16 128 90 0 36 -5
48 -31 69 -39 33 -88 34 -124 4z"/>
<path d="M8627 6153 c-12 -12 -34 -18 -66 -19 -53 0 -107 -28 -141 -71 -28
-36 -25 -58 14 -100 29 -33 39 -37 92 -41 49 -3 64 0 86 17 35 28 54 107 42
179 -9 51 -10 52 -27 35z"/>
<path d="M5784 6203 c39 -271 20 -712 -45 -1034 -38 -192 -125 -427 -207 -561
-36 -59 -39 -68 -23 -68 23 0 41 28 109 165 122 246 187 538 213 951 9 155 9
237 0 369 -14 200 -18 225 -39 225 -12 0 -13 -9 -8 -47z"/>
<path d="M11515 6118 c-22 -68 -22 -378 1 -385 17 -6 41 54 49 121 4 32 13 79
21 105 7 25 14 74 14 109 l0 62 -40 0 c-24 0 -42 -5 -45 -12z"/>
<path d="M7955 6029 c-746 -131 -1329 -507 -1710 -1104 -65 -102 -185 -352
-185 -386 0 -5 6 -9 13 -9 6 0 32 47 57 103 209 480 601 886 1091 1129 222
110 518 202 759 238 47 7 91 14 97 16 12 3 7 35 -6 33 -3 0 -55 -9 -116 -20z"/>
<path d="M11167 5642 c-23 -25 -47 -98 -47 -142 0 -43 20 -65 49 -55 25 8 101
93 101 113 0 8 -11 35 -25 59 -28 47 -52 54 -78 25z"/>
<path d="M10859 5587 c-39 -33 -48 -106 -18 -147 32 -42 59 -39 108 15 22 24
41 49 41 54 0 6 -14 31 -32 56 -36 51 -59 56 -99 22z"/>
<path d="M11955 5215 c-10 -4 -159 -20 -325 -35 -52 -4 -185 -18 -295 -30
-110 -12 -243 -26 -295 -31 -237 -22 -272 -27 -282 -37 -7 -7 -35 -12 -64 -12
-56 0 -67 -10 -57 -51 7 -26 43 -69 43 -52 0 7 13 21 28 32 26 18 31 18 55 6
23 -12 32 -12 62 1 50 20 78 17 103 -11 13 -14 27 -23 32 -20 6 3 46 1 91 -6
l81 -12 -4 -36 -3 -36 43 4 c41 3 43 5 54 47 10 35 17 44 33 44 24 0 45 -36
45 -77 0 -22 3 -25 30 -21 20 3 30 0 30 -9 0 -7 7 -13 15 -13 18 0 18 -4 5
-50 -5 -19 -7 -50 -4 -67 5 -28 10 -33 36 -33 16 0 27 4 23 9 -3 5 -1 12 5 16
5 3 10 18 10 33 0 15 8 37 18 49 24 31 54 21 81 -28 20 -35 51 -53 51 -30 0 9
60 71 69 71 9 0 31 -55 37 -92 5 -25 1 -38 -15 -52 -18 -16 -25 -17 -70 -6
-88 21 -323 17 -341 -5 -18 -22 -185 -21 -208 1 -21 22 -86 13 -152 -22 -56
-29 -54 -27 -39 -56 10 -18 17 -20 70 -14 56 7 59 6 65 -17 3 -15 -1 -38 -12
-58 -12 -23 -19 -60 -20 -114 -1 -44 -5 -101 -9 -128 -5 -33 -3 -65 9 -107 13
-45 15 -78 10 -130 l-7 -70 27 0 c19 0 26 5 26 19 0 10 7 35 15 54 8 20 15 53
15 74 0 37 27 123 39 123 3 0 5 26 3 58 -3 49 0 61 21 86 44 51 61 140 28 151
-13 4 -17 12 -13 30 4 24 22 36 22 16 0 -5 12 -11 28 -13 21 -2 26 -8 24 -23
-2 -11 -7 -70 -11 -130 -5 -76 -13 -118 -24 -136 -15 -22 -15 -28 -2 -45 8
-10 15 -25 15 -33 0 -7 16 -31 35 -52 20 -23 36 -51 36 -67 2 -23 2 -24 6 -4
2 12 10 22 18 22 7 0 27 16 44 35 17 19 36 35 43 35 9 1 7 5 -4 14 -22 16 -39
61 -31 82 3 9 17 28 29 42 29 31 31 62 4 69 -29 8 -26 58 5 95 30 36 31 44 5
60 -24 15 -25 22 -6 41 12 11 26 12 73 4 62 -11 83 -28 75 -61 -8 -35 -24 -48
-49 -41 -33 8 -59 -9 -72 -46 -14 -40 0 -60 37 -54 15 2 36 5 46 7 33 5 43
-42 21 -92 -18 -39 -18 -43 -1 -95 9 -30 16 -69 15 -87 -2 -27 15 -98 28 -117
7 -10 54 57 63 87 5 19 20 44 33 56 21 20 24 29 18 57 -10 44 5 76 38 82 17 4
31 17 40 38 14 31 13 33 -18 58 -44 36 -40 101 7 101 19 0 40 23 47 53 8 30
55 41 85 20 18 -13 18 -39 0 -53 -10 -8 -50 -67 -50 -74 0 -3 4 -6 9 -6 5 0
23 -12 40 -27 23 -20 31 -36 31 -61 0 -44 -16 -72 -40 -72 -27 0 -25 -23 2
-35 12 -6 26 -23 30 -40 8 -27 12 -135 8 -205 -1 -14 -1 -46 1 -72 2 -37 -3
-52 -24 -77 -15 -18 -29 -50 -32 -75 -11 -72 -56 -106 -140 -106 l-43 0 19
-40 c10 -21 19 -52 19 -68 0 -38 -39 -73 -81 -75 -29 -2 -36 3 -54 35 -18 33
-18 41 -6 70 7 18 14 44 15 58 1 21 -4 25 -33 28 -28 3 -38 -2 -57 -26 -42
-53 -114 -50 -114 4 0 23 -3 25 -30 19 -41 -9 -80 16 -80 51 0 34 -17 48 -70
60 -38 8 -48 6 -67 -10 l-22 -19 32 -16 c24 -12 33 -24 35 -48 4 -39 -24 -58
-74 -50 -19 3 -36 1 -39 -4 -10 -15 -42 -10 -49 7 -9 24 -8 26 13 19 22 -7 26
-2 35 40 5 25 2 32 -19 42 -39 18 -96 -17 -129 -77 -30 -55 -33 -82 -10 -101
9 -7 22 -29 30 -49 15 -38 49 -66 59 -50 9 14 35 12 35 -2 0 -6 7 -19 15 -29
15 -16 11 -17 -67 -15 -46 0 -86 5 -90 10 -10 14 -39 -64 -40 -107 0 -26 7
-46 21 -61 30 -32 122 -60 201 -62 36 0 74 -4 86 -8 14 -4 33 2 58 19 l37 25
9 -26 c14 -35 14 -34 -22 -34 -41 0 -51 -7 -67 -47 -28 -68 -42 -76 -151 -82
-58 -4 -104 -11 -112 -18 -6 -7 -18 -13 -26 -13 -27 0 -47 -34 -55 -94 -4 -34
-10 -79 -13 -101 -7 -56 14 -68 92 -54 32 6 82 8 113 5 213 -20 198 -20 207 5
4 13 7 80 6 148 -1 68 1 128 4 133 3 4 18 0 33 -11 23 -17 52 -24 177 -47 23
-4 50 -54 42 -76 -9 -23 10 -241 21 -247 7 -4 7 -21 0 -49 -5 -24 -7 -47 -5
-51 3 -4 33 -7 67 -6 57 2 64 -1 93 -30 61 -61 97 -65 115 -14 16 47 53 55
136 29 39 -13 76 -25 83 -27 9 -4 12 35 12 176 0 137 -3 183 -12 186 -7 2 -33
6 -57 9 -54 7 -85 26 -104 65 -13 26 -13 32 -1 42 8 6 14 18 14 26 0 15 57 95
72 101 5 2 8 14 8 27 0 24 17 35 56 35 22 0 24 4 24 45 0 43 -1 45 -29 45 -30
0 -50 28 -36 50 8 14 -13 50 -30 50 -36 0 -28 55 9 64 13 3 38 26 54 52 l31
45 0 855 c1 810 0 854 -16 853 -10 0 -22 -2 -28 -4z m-206 -1884 c8 -5 24 -6
35 -1 25 9 51 0 52 -17 1 -7 2 -22 3 -34 0 -13 12 -24 31 -30 55 -20 24 -78
-34 -63 -14 3 -31 2 -38 -2 -7 -5 -17 -9 -23 -9 -17 0 -17 -61 -1 -75 9 -7 16
-23 16 -36 0 -39 -33 -30 -59 16 -12 22 -28 40 -35 40 -18 0 -34 36 -46 98 -5
30 -12 57 -15 62 -7 12 56 60 80 60 11 0 26 -4 34 -9z"/>
<path d="M2548 5182 c-12 -20 -16 -43 -13 -73 3 -24 10 -105 15 -179 33 -444
32 -440 81 -460 41 -17 216 4 289 35 49 21 81 25 300 36 135 6 248 13 251 15
8 4 309 7 329 2 12 -2 16 10 18 55 4 84 -26 539 -37 550 -11 11 -54 -10 -46
-24 4 -5 -1 -9 -9 -9 -9 0 -16 5 -16 10 0 6 -35 10 -85 10 -57 0 -85 -4 -85
-11 0 -7 -8 -17 -17 -24 -15 -11 -15 -14 5 -40 18 -23 22 -41 23 -109 0 -44 4
-101 8 -126 7 -47 -1 -116 -20 -163 -9 -21 -15 -25 -25 -16 -25 20 -43 104
-54 248 -9 126 -9 147 5 168 15 22 14 25 -12 48 l-28 24 -300 3 c-165 2 -344
3 -398 3 -71 0 -97 3 -97 13 0 8 16 12 48 13 26 0 65 3 87 8 l40 7 -55 7 c-30
4 -84 7 -120 7 -62 0 -67 -2 -82 -28z"/>
<path d="M4885 4520 c-142 -6 -192 -22 -234 -76 -33 -42 -40 -86 -48 -317 -6
-170 -5 -226 5 -255 7 -20 25 -91 39 -157 22 -107 24 -135 19 -260 -6 -147
-16 -213 -37 -225 -6 -5 -9 -15 -6 -25 4 -9 3 -13 -3 -10 -12 7 -18 -21 -24
-119 -2 -43 -9 -82 -14 -85 -5 -3 -10 -19 -9 -36 0 -16 -1 -113 -2 -215 -1
-169 1 -199 29 -340 16 -85 39 -186 49 -225 10 -38 24 -133 30 -210 7 -77 14
-147 17 -157 3 -9 0 -19 -6 -23 -5 -3 -10 -12 -10 -18 0 -7 4 -6 10 3 7 11 10
4 10 -25 0 -29 -3 -36 -10 -25 -8 12 -10 10 -11 -10 -1 -14 -1 -28 0 -32 0 -4
-4 -20 -10 -35 -6 -15 -12 -46 -15 -68 -7 -72 -11 -90 -22 -111 -6 -12 -9 -23
-7 -26 3 -2 -4 -22 -15 -43 -11 -22 -20 -45 -20 -51 0 -6 -10 -19 -22 -27 -13
-8 -38 -29 -56 -46 -38 -35 -72 -41 -72 -12 0 23 -30 37 -42 19 -12 -19 -4
-33 20 -36 14 -2 22 -11 22 -22 0 -10 6 -21 13 -23 6 -3 -7 -4 -30 -4 -23 1
-37 5 -30 9 16 10 9 14 -35 22 -31 6 -38 4 -38 -9 0 -8 7 -15 15 -15 28 0 15
-28 -16 -35 -17 -4 -40 -16 -50 -26 -19 -19 -18 -19 26 -19 34 0 47 -5 55 -20
6 -11 20 -20 30 -20 11 0 20 -4 20 -10 0 -13 -27 -13 -35 0 -8 13 -45 13 -45
0 0 -18 -29 -11 -40 10 -14 26 -32 25 -48 0 -20 -33 -5 -43 55 -38 30 3 48 1
41 -3 -7 -5 -30 -9 -50 -9 -21 0 -38 -4 -38 -10 0 -5 -7 -10 -16 -10 -10 0
-14 6 -10 15 4 11 -2 15 -24 15 -17 0 -30 -4 -30 -10 0 -5 -16 -10 -35 -10
-20 0 -51 -7 -71 -15 -83 -34 -203 -55 -236 -41 -13 6 -15 3 -11 -13 3 -12 1
-21 -6 -21 -6 0 -11 7 -11 15 0 17 -55 21 -65 5 -3 -5 -15 -10 -25 -10 -10 0
-20 -4 -22 -9 -1 -5 -22 -11 -45 -13 -60 -6 -73 -20 -69 -80 2 -36 -1 -51 -11
-55 -10 -4 -12 -14 -8 -30 4 -19 1 -26 -14 -30 -13 -3 -18 -10 -14 -20 4 -9 0
-21 -8 -27 -21 -16 -42 -72 -36 -95 4 -18 1 -19 -27 -15 -22 4 -27 3 -17 -4
12 -9 10 -17 -15 -49 -22 -29 -30 -34 -32 -20 -5 24 -22 22 -22 -3 0 -11 -6
-20 -14 -20 -7 0 -19 -6 -25 -14 -7 -8 -25 -18 -41 -21 -16 -3 -31 -13 -34
-21 -7 -17 6 -18 22 -2 8 8 12 8 12 1 0 -14 -26 -24 -45 -17 -9 4 -15 0 -15
-10 0 -9 -4 -16 -10 -16 -5 0 -10 -7 -10 -15 0 -11 -7 -14 -25 -9 -24 6 -25 4
-19 -20 4 -17 0 -35 -11 -53 l-18 -27 -18 22 c-10 13 -20 18 -24 12 -3 -5 -20
-16 -38 -25 -18 -8 -37 -25 -42 -37 -15 -33 -41 -45 -65 -30 -27 17 -33 15
-27 -8 5 -18 1 -20 -39 -16 -24 2 -44 -1 -44 -5 0 -5 -5 -9 -11 -9 -7 0 -23
-12 -37 -27 -16 -18 -27 -23 -30 -15 -2 6 -19 19 -38 28 -28 13 -37 26 -49 68
-18 63 -17 142 1 179 8 15 10 27 5 27 -21 0 -36 -57 -35 -130 1 -67 6 -85 49
-177 l48 -103 931 0 931 0 60 53 c80 69 206 197 335 336 58 63 113 122 124
132 10 9 15 22 12 28 -4 6 -1 9 6 6 7 -3 31 16 53 42 22 26 63 73 91 103 28
31 59 69 68 86 10 16 42 44 72 63 29 19 75 56 101 83 l47 48 -164 1 c-92 1 56
8 330 16 523 14 560 18 630 65 65 45 75 80 77 288 2 102 3 188 3 192 0 4 11
10 25 14 14 3 22 11 18 17 -4 7 4 8 25 4 20 -4 34 -1 42 8 7 8 20 15 30 15 9
0 25 9 35 20 14 15 16 29 10 65 -7 47 -11 51 -55 59 -34 5 -100 38 -100 48 0
5 -4 7 -9 4 -11 -7 -25 23 -22 44 4 27 44 50 89 50 26 0 41 4 37 10 -3 6 2 10
12 10 22 0 57 23 59 39 1 6 2 20 3 32 0 11 5 18 11 14 5 -3 5 6 -1 24 -12 34
-39 55 -93 70 -52 14 -114 58 -132 93 -8 16 -20 26 -25 22 -14 -8 -1 55 14 75
24 29 59 33 90 11 23 -17 36 -20 68 -15 34 6 38 9 28 22 -9 10 -9 17 -2 21 15
10 53 84 52 102 0 10 -2 11 -6 2 -3 -9 -12 -7 -30 8 -14 11 -32 20 -39 20 -8
0 -14 4 -14 10 0 5 -7 7 -15 4 -18 -7 -112 65 -136 105 -17 28 -14 88 5 119
10 17 78 15 104 -4 21 -15 25 -15 42 1 11 10 17 21 14 26 -2 5 8 22 23 40 39
44 67 89 54 89 -6 0 -8 6 -5 14 4 10 -5 16 -25 21 -17 4 -33 11 -36 16 -4 5
-20 9 -36 9 -16 0 -46 7 -65 15 -20 8 -40 12 -45 10 -4 -3 -17 3 -27 13 -17
17 -21 41 -27 153 -3 74 -9 142 -11 152 -7 24 11 23 238 -18 310 -56 788 -166
997 -230 515 -156 807 -268 1131 -430 478 -239 818 -511 1005 -802 22 -35 43
-63 46 -63 58 -1 -124 249 -290 398 -304 273 -658 481 -1166 684 -492 198
-1174 383 -1778 485 -142 24 -169 26 -177 14 -5 -9 -8 10 -9 52 0 62 1 66 18
58 20 -11 427 -80 646 -110 426 -58 766 -83 1105 -83 283 0 416 11 596 47 180
37 254 67 254 102 0 21 -2 21 -97 -16 -94 -37 -137 -48 -268 -70 -298 -51
-891 -37 -1450 34 -233 30 -794 119 -801 128 -1 2 -11 213 -34 698 -10 225
-20 275 -64 323 -57 62 -93 70 -346 73 -507 7 -922 8 -1045 3z m1284 -1010 c0
-129 -3 -230 -7 -223 -11 18 -253 23 -267 5 -7 -8 -10 5 -11 43 0 30 3 55 8
55 4 0 8 -16 8 -35 l0 -35 60 0 c47 0 60 3 60 15 0 8 -6 15 -14 15 -11 0 -14
29 -15 140 -1 77 -4 147 -7 155 -4 9 0 15 10 15 9 0 16 5 16 10 0 6 -27 10
-60 10 l-61 0 6 -140 6 -140 -23 3 c-20 2 -24 -4 -29 -38 l-6 -40 -2 38 -1 37
-50 0 -50 0 0 -37 c0 -44 -7 -41 -12 6 -2 19 -10 37 -17 39 -10 3 -12 -11 -9
-62 2 -56 1 -65 -12 -59 -8 4 -40 7 -70 8 -30 0 -58 4 -63 10 -4 6 -11 4 -17
-6 -8 -14 -27 -17 -105 -16 -67 1 -94 4 -91 12 2 7 -2 12 -10 12 -9 0 -13 -7
-9 -16 4 -13 2 -12 -9 2 -16 21 -81 24 -89 3 -3 -8 -19 -12 -44 -10 -21 1 -44
-3 -52 -9 -12 -9 -13 -9 -7 0 5 9 -1 12 -21 9 -21 -2 -29 2 -30 13 -1 9 -5 60
-9 113 -4 54 -11 95 -15 92 -13 -8 -11 -192 2 -196 6 -2 7 -11 3 -22 -7 -19
-8 -19 -15 0 -4 10 -8 63 -8 117 l-1 97 -95 0 -94 0 -4 -117 c-2 -83 -3 -60
-5 77 l-2 195 105 -3 105 -3 0 25 0 26 164 0 c188 0 176 7 176 -100 0 -106 9
-100 -154 -100 -79 0 -145 -2 -147 -4 -2 -2 -3 -43 -1 -90 l3 -86 34 0 c36 0
56 17 35 30 -17 10 -8 44 13 48 13 3 17 -3 17 -25 0 -36 9 -47 39 -51 18 -3
22 0 18 11 -3 9 0 21 8 27 10 8 14 8 18 -2 3 -7 6 -1 6 15 1 20 6 27 21 27 17
0 20 -7 21 -42 1 -35 2 -38 8 -18 9 31 35 33 39 3 2 -13 9 -23 15 -23 7 0 6
-4 -3 -10 -18 -12 -21 -11 65 -15 66 -4 68 -3 40 10 -28 12 -24 13 63 14 l92
1 0 90 0 90 -89 0 c-87 0 -127 13 -77 26 l24 6 -5 149 c-6 147 -6 149 16 149
20 0 21 -3 21 -145 l0 -145 28 0 28 0 -4 145 c-3 103 -1 145 7 145 8 0 11 -44
11 -144 l0 -144 33 -8 c17 -4 71 -8 119 -8 l88 -1 0 76 0 76 39 11 c21 7 93
12 160 12 l121 0 1 73 c2 72 2 72 9 22 5 -27 9 -156 9 -285z m-1264 -633 c-2
-7 10 -21 28 -32 41 -26 47 -66 17 -107 -11 -15 -22 -45 -23 -65 -2 -30 -7
-38 -27 -43 -29 -8 -45 5 -45 37 0 12 -9 42 -20 67 -17 38 -23 44 -42 39 -14
-3 -23 -1 -23 6 0 6 8 11 18 11 10 0 28 13 39 29 20 26 20 29 5 45 -10 9 -12
16 -5 16 7 0 16 -7 21 -15 10 -19 46 -9 38 10 -2 7 -2 16 1 19 9 9 23 -3 18
-17z m1176 8 c39 -21 69 -71 69 -115 0 -122 -166 -177 -239 -79 -85 115 42
260 170 194z m-1177 -391 c9 -8 14 -20 11 -25 -4 -5 3 -6 17 -1 32 11 51 9 56
-5 2 -9 -9 -14 -35 -15 l-38 -1 38 -4 c49 -5 48 -23 -2 -23 -37 0 -38 -1 -36
-32 1 -18 7 -46 14 -62 10 -26 9 -33 -7 -55 -51 -68 -143 -14 -107 62 8 19 14
56 13 89 -2 60 12 88 43 88 9 0 25 -7 33 -16z m1318 -106 c6 -121 9 -118 -131
-118 -99 0 -120 3 -125 16 -3 9 -6 51 -6 95 l0 79 129 0 129 0 4 -72z m-624
-70 c7 -7 12 -9 12 -5 0 3 11 2 25 -3 17 -6 25 -6 25 1 0 6 9 7 23 3 12 -4 32
-7 45 -6 12 1 40 3 62 4 22 2 40 6 40 11 0 4 8 4 18 -2 9 -5 34 -7 55 -6 31 3
37 0 33 -12 -3 -8 -6 -18 -6 -22 0 -4 -15 -8 -34 -9 -24 -2 -38 3 -45 15 -10
17 -10 17 -11 1 0 -15 -10 -17 -80 -16 -50 1 -80 5 -80 12 0 6 -4 5 -9 -3 -5
-8 -32 -14 -65 -16 -55 -4 -56 -4 -56 24 0 41 22 55 48 29z m-548 -8 c0 -5 -4
-10 -10 -10 -5 0 -10 -8 -10 -17 1 -17 1 -17 10 -1 8 13 25 16 78 16 37 0 69
1 72 2 3 1 25 3 50 4 25 0 51 5 58 9 7 5 12 4 12 -3 0 -8 16 -10 49 -6 39 4
50 2 55 -10 3 -9 4 -20 0 -25 -9 -16 -34 -10 -35 9 -1 16 -2 16 -6 0 -4 -15
-16 -18 -64 -18 -49 0 -59 3 -60 18 -1 15 -2 15 -6 1 -5 -19 -40 -32 -49 -18
-3 5 -16 2 -29 -7 -22 -14 -24 -14 -30 7 -4 12 -10 17 -14 11 -6 -10 -48 -17
-83 -14 -11 1 -18 10 -18 22 0 11 -4 20 -10 20 -5 0 -10 5 -10 10 0 6 11 10
25 10 14 0 25 -4 25 -10z m1184 -297 c7 -103 6 -136 -4 -148 -16 -19 -269 -22
-288 -3 -17 17 -17 274 1 282 6 2 73 4 147 3 l135 -2 9 -132z m-1334 25 c45
-100 49 -146 17 -176 -35 -33 -84 -32 -114 2 -12 15 -23 35 -23 44 0 21 73
202 81 202 4 0 21 -33 39 -72z m1290 -358 c0 -13 12 -28 30 -38 17 -10 30 -25
30 -36 0 -19 -1 -19 -13 -2 -13 17 -18 18 -68 5 -30 -7 -60 -12 -66 -11 -8 2
-12 -6 -10 -20 2 -20 -3 -23 -33 -24 -25 -1 -40 4 -52 20 l-18 21 0 -22 c0
-27 -19 -31 -21 -5 -1 16 -2 16 -6 0 -5 -18 -53 -26 -53 -9 0 5 -11 4 -25 -2
-14 -7 -25 -15 -25 -19 0 -5 -4 -8 -10 -8 -5 0 -11 12 -11 28 -1 15 -3 20 -6
10 -8 -30 -36 -31 -60 -1 -13 15 -23 23 -23 18 0 -6 5 -16 12 -23 6 -6 8 -15
4 -19 -5 -5 -15 2 -23 15 -9 12 -19 22 -23 22 -4 0 -11 -10 -15 -22 -8 -22 -8
-22 -12 4 -4 24 -9 27 -66 34 -34 5 -71 8 -82 9 -27 0 -30 27 -6 56 19 24 23
24 218 29 437 12 433 12 433 -10z m-756 -6 c31 -30 20 -51 -33 -64 -43 -10
-50 -15 -53 -38 -4 -37 -49 -39 -59 -2 l-7 25 -1 -27 c-1 -21 -6 -28 -20 -28
-11 0 -23 5 -27 11 -4 8 -9 8 -17 0 -17 -17 -45 -13 -56 7 -10 16 -10 16 -11
0 0 -10 -4 -18 -10 -18 -5 0 -11 8 -11 18 -1 16 -2 16 -6 0 -2 -10 -11 -18
-19 -18 -8 0 -14 8 -15 18 0 12 -3 10 -11 -8 -11 -24 -12 -24 -15 -4 -4 24
-43 41 -43 19 0 -23 -27 -37 -49 -26 -13 7 -22 8 -26 1 -3 -5 -10 -10 -15 -10
-16 0 -40 31 -33 43 4 7 0 8 -11 4 -10 -4 -24 -7 -32 -7 -8 0 -14 -4 -14 -10
0 -5 11 -10 25 -10 14 0 25 -4 25 -10 0 -5 -16 -10 -35 -10 -32 0 -35 3 -35
29 0 27 -4 30 -47 37 -52 10 -63 27 -39 59 13 18 30 20 198 25 399 12 485 11
502 -6z m-861 -1014 c7 0 23 -13 36 -29 20 -24 28 -28 44 -20 24 14 34 3 20
-20 -10 -16 -3 -37 44 -128 31 -59 58 -124 60 -143 4 -32 3 -34 -10 -16 -14
19 -15 17 -22 -23 -5 -32 -10 -40 -17 -30 -7 10 -8 7 -5 -13 3 -23 2 -25 -15
-15 -10 7 -18 15 -18 20 0 4 -4 6 -9 3 -5 -3 -7 -15 -4 -26 6 -23 -15 -28 -35
-8 -9 9 -12 6 -12 -15 0 -23 -4 -27 -27 -27 -46 0 -71 -11 -76 -32 -4 -15 -11
-19 -23 -14 -10 4 -21 1 -26 -6 -6 -10 -14 -5 -32 17 -20 24 -24 37 -19 64 4
24 2 32 -6 27 -27 -17 -80 81 -73 137 2 20 7 37 11 37 11 0 33 59 26 70 -4 6
6 13 23 16 19 4 29 12 28 22 -1 11 8 16 29 16 20 1 29 6 27 15 -1 7 4 24 13
37 8 13 15 32 15 43 0 11 8 33 18 50 15 27 17 28 20 11 2 -11 9 -20 15 -20z"/>
<path d="M5060 3605 l0 -85 30 0 c17 0 30 5 30 10 0 14 63 12 79 -2 11 -11 13
-10 7 5 -3 10 -6 50 -6 88 l0 69 -70 0 -70 0 0 -85z"/>
<path d="M5220 3612 l0 -78 39 4 c21 2 42 -1 45 -7 4 -6 18 -11 32 -11 24 0
24 2 24 85 l0 85 -70 0 -70 0 0 -78z"/>
<path d="M6030 3674 c0 -4 7 -12 15 -18 11 -9 15 -41 16 -155 1 -123 -1 -145
-15 -153 -32 -18 -15 -28 49 -28 l65 0 0 58 c0 33 -3 114 -7 180 l-6 122 -59
0 c-32 0 -58 -3 -58 -6z"/>
<path d="M4844 3626 c-3 -7 -4 -35 -2 -62 l3 -49 41 -3 c29 -2 47 2 58 14 11
11 28 15 51 12 l35 -4 0 53 0 53 -90 0 c-68 0 -92 -3 -96 -14z"/>
<path d="M6038 2133 l-88 -4 0 -129 0 -130 74 0 c50 0 76 4 79 13 4 9 8 9 15
-2 8 -11 10 -11 15 0 4 12 7 11 16 -1 7 -10 11 -11 11 -2 0 6 9 12 20 12 11 0
20 -4 20 -10 0 -5 5 -10 10 -10 15 0 13 247 -2 256 -15 10 -56 11 -170 7z"/>
<path d="M7317 4333 c-199 -463 -203 -474 -186 -552 40 -188 271 -253 401
-113 75 80 86 176 35 292 -13 30 -36 84 -51 120 -15 36 -32 74 -37 85 -5 11
-33 77 -62 148 l-53 127 -47 -107z m14 -179 c-78 -242 -86 -276 -86 -387 0
-59 -1 -107 -2 -107 -2 0 -16 27 -33 60 -47 93 -43 125 40 306 39 85 70 157
70 162 0 9 22 33 27 29 1 -2 -6 -30 -16 -63z"/>
<path d="M2637 4380 c-79 -5 -96 -14 -97 -51 0 -9 -6 -22 -14 -28 -10 -9 -14
-35 -13 -99 l1 -87 -80 1 c-43 1 -92 4 -109 8 -27 5 -28 5 -4 -3 65 -21 159
-81 215 -136 127 -125 183 -321 139 -490 -37 -139 -144 -274 -266 -334 -64
-31 -178 -61 -234 -61 -56 0 -170 30 -230 60 -116 57 -206 158 -255 285 -19
49 -23 80 -24 170 -1 96 2 120 26 184 15 41 23 70 18 65 -13 -13 -148 0 -163
15 -9 9 -6 16 13 31 34 27 84 40 152 40 52 0 60 3 112 46 57 46 71 63 37 45
-12 -7 -133 -9 -342 -5 -178 3 -361 3 -407 -1 -110 -9 -110 -9 -87 -215 41
-385 108 -877 122 -908 25 -53 -32 -54 786 14 285 24 309 25 332 10 17 -11 25
-26 25 -44 0 -45 19 -100 46 -132 29 -34 51 -38 70 -12 26 33 16 65 -36 120
-58 61 -65 95 -25 132 36 34 122 40 170 11 45 -26 53 -26 80 -1 22 21 121 60
151 60 10 0 36 -11 58 -24 l41 -24 40 29 c63 47 131 40 244 -25 46 -27 45 -32
-21 -128 -10 -15 -82 -42 -133 -50 -30 -5 -32 -73 -3 -89 65 -35 263 50 219
94 -14 14 -14 48 2 98 20 69 52 78 387 104 353 28 396 34 411 51 9 11 10 41 4
112 -5 53 -9 133 -10 177 -1 44 -9 197 -18 340 -9 143 -19 284 -20 313 -2 29
-8 57 -14 63 -7 7 -70 7 -204 0 -107 -6 -265 -12 -351 -13 -154 -3 -156 -3
-125 14 52 28 264 95 372 118 59 12 159 23 245 27 236 9 428 -31 629 -131 81
-41 91 -44 91 -27 0 33 -173 110 -352 158 -96 25 -117 27 -308 28 -178 0 -219
-3 -315 -23 -128 -28 -277 -76 -392 -126 -74 -33 -90 -36 -172 -36 -79 0 -94
3 -108 20 -10 11 -25 20 -34 20 -9 0 -22 7 -29 15 -7 8 -18 15 -26 15 -16 0
-34 31 -34 59 0 14 13 27 43 42 23 12 43 22 44 23 1 1 -3 19 -9 39 -8 27 -17
37 -32 38 -12 0 -50 3 -86 7 -36 4 -100 5 -143 2z m1170 -348 c6 -4 9 -19 6
-35 -4 -19 -11 -27 -27 -27 -11 0 -120 -4 -241 -10 -456 -19 -621 -22 -605
-10 72 53 129 61 525 79 250 11 328 12 342 3z"/>
<path d="M6561 4120 c-36 -5 -98 -17 -138 -26 -59 -14 -73 -21 -73 -37 0 -13
5 -17 15 -13 85 32 148 41 308 41 118 0 167 3 167 11 0 7 -10 14 -22 17 -48
11 -196 15 -257 7z"/>
<path d="M2094 4013 c-57 -28 -64 -60 -64 -282 0 -184 -1 -199 -20 -216 -10
-9 -27 -37 -36 -61 -30 -80 0 -171 73 -217 48 -30 82 -37 138 -26 57 11 96 39
126 92 38 68 26 174 -24 215 -11 10 -14 53 -15 218 -2 228 -7 250 -68 279 -40
19 -70 18 -110 -2z m115 -59 c20 -25 21 -39 21 -236 0 -210 0 -210 25 -240 31
-36 39 -68 31 -113 -14 -72 -89 -124 -159 -110 -113 24 -156 156 -77 235 21
21 22 32 23 235 2 194 4 215 21 234 29 32 88 29 115 -5z"/>
<path d="M2126 3763 c-4 -9 -6 -76 -5 -148 l1 -131 -31 -31 c-46 -47 -38 -109
19 -138 59 -30 130 17 130 86 0 12 -16 36 -35 55 l-35 33 0 145 c0 137 -1 146
-19 146 -10 0 -22 -8 -25 -17z"/>
<path d="M8820 4012 c-59 -3 -80 -14 -80 -43 0 -27 30 -39 102 -41 75 -2 104
6 111 31 11 42 -30 59 -133 53z"/>
<path d="M9180 3740 c-19 -19 -20 -33 -20 -319 0 -279 1 -300 19 -322 l19 -24
305 0 c286 0 306 1 326 19 20 19 21 27 21 323 0 290 -1 304 -20 323 -19 19
-33 20 -325 20 -292 0 -306 -1 -325 -20z m640 -10 c19 -19 20 -33 20 -308 0
-244 -2 -291 -16 -310 -15 -22 -16 -22 -319 -22 -303 0 -304 0 -319 22 -14 19
-16 66 -16 310 0 283 0 288 22 308 21 19 34 20 315 20 280 0 294 -1 313 -20z"/>
<path d="M9604 3686 c-21 -9 -35 -11 -42 -4 -6 6 -9 -1 -10 -19 0 -15 -4 -45
-8 -66 -4 -27 -2 -44 11 -63 12 -19 14 -29 6 -37 -16 -16 -13 -31 3 -18 11 9
25 10 50 3 37 -11 72 -6 94 11 9 7 18 4 32 -8 21 -19 29 -8 9 12 -8 8 -8 17 0
31 13 25 14 92 1 112 -6 10 -4 20 7 32 17 19 4 25 -14 7 -8 -8 -19 -6 -41 5
-37 19 -57 20 -98 2z m104 -19 c9 -7 10 -13 2 -21 -16 -16 -12 -30 6 -15 13
10 17 10 25 -2 12 -19 11 -66 -2 -90 -9 -17 -13 -18 -26 -7 -14 11 -15 10 -9
-9 6 -18 3 -23 -17 -28 -14 -4 -38 -5 -53 -3 -24 2 -29 7 -26 27 2 20 0 22
-12 11 -9 -6 -20 -9 -25 -6 -17 11 -24 76 -12 103 11 25 12 25 31 8 11 -10 20
-13 20 -7 0 6 -4 14 -10 17 -17 11 -11 23 18 33 29 11 69 6 90 -11z"/>
<path d="M9261 3659 c-3 -40 -2 -117 1 -144 3 -24 18 -36 18 -15 0 7 6 7 19 0
25 -13 67 -13 93 1 14 8 23 8 31 0 19 -19 31 -12 13 8 -12 13 -14 21 -6 26 7
4 10 30 8 68 -3 53 -6 62 -23 64 -11 1 -36 5 -56 9 -20 3 -46 1 -56 -5 -14 -7
-23 -7 -30 0 -8 8 -11 4 -12 -12z m128 2 c8 -5 11 -16 8 -24 -3 -9 0 -14 11
-13 19 1 27 -32 17 -71 -4 -16 -11 -23 -20 -19 -9 3 -12 0 -9 -9 7 -18 -36
-30 -72 -21 -17 5 -24 12 -20 21 3 9 0 12 -9 9 -27 -11 -46 62 -26 95 8 12 12
12 25 2 9 -8 16 -9 16 -3 0 6 -6 13 -12 15 -10 4 -9 8 2 16 18 13 70 14 89 2z"/>
<path d="M9325 3399 c-16 -4 -40 -11 -52 -14 -15 -5 -23 -3 -23 4 0 7 -5 9
-10 6 -8 -5 -8 -11 -1 -19 7 -8 6 -25 -4 -51 -19 -53 -18 -64 5 -109 18 -37
18 -40 2 -52 -9 -7 -14 -16 -10 -20 5 -4 17 1 27 10 16 14 23 15 41 6 29 -16
72 -16 110 0 26 11 33 10 49 -4 11 -10 22 -13 25 -8 3 5 -3 17 -14 27 -17 16
-18 20 -5 38 18 25 20 90 4 118 -8 16 -7 25 5 38 9 10 13 21 10 24 -4 4 -12
-1 -19 -9 -10 -14 -15 -15 -35 -4 -38 20 -73 27 -105 19z m80 -21 c27 -12 33
-33 13 -41 -7 -2 -10 -8 -6 -12 4 -4 14 -2 22 4 30 25 48 -52 24 -104 -11 -25
-28 -34 -28 -15 0 6 -5 10 -11 10 -6 0 -8 -8 -4 -19 11 -35 -60 -55 -106 -30
-16 8 -18 13 -8 25 16 19 4 30 -16 14 -11 -9 -19 -10 -27 -2 -16 16 -22 96 -8
121 11 22 12 22 31 5 10 -9 22 -14 26 -10 5 4 0 12 -10 17 -23 13 -22 24 6 37
30 14 70 15 102 0z"/>
<path d="M8392 3607 c-42 -16 -81 -66 -89 -114 -5 -31 -4 -35 10 -30 21 8 21
8 1 -31 -24 -48 -15 -75 26 -85 19 -4 47 -12 63 -17 51 -16 67 30 66 185 -2
104 -11 115 -77 92z"/>
<path d="M8599 3500 c-18 -8 -36 -25 -40 -38 -5 -13 -5 -21 -1 -18 11 7 42
-58 42 -89 0 -13 -8 -29 -17 -34 -16 -9 -16 -10 3 -11 12 0 27 -7 34 -15 17
-21 47 -19 59 3 13 25 25 164 17 196 -5 22 -12 26 -36 24 -16 -1 -44 -9 -61
-18z"/>
<path d="M9010 3232 c0 -7 -11 -12 -27 -11 -27 1 -60 -9 -128 -37 -61 -25
-115 -34 -167 -28 -35 4 -77 0 -123 -11 -38 -9 -97 -16 -130 -16 -49 2 -72 -4
-120 -28 -45 -23 -68 -29 -92 -25 -17 3 -39 2 -48 -3 -12 -7 -4 -12 37 -21 29
-7 80 -23 113 -36 33 -14 85 -32 115 -41 30 -8 64 -20 75 -24 11 -5 65 -20
120 -34 55 -14 134 -36 175 -51 138 -47 309 -97 337 -98 41 -1 329 30 392 42
29 5 72 10 94 10 23 0 66 4 96 10 31 5 144 19 251 30 107 12 214 25 238 30 23
6 51 10 62 10 25 0 27 36 3 44 -10 3 -45 10 -78 15 -87 13 -177 32 -200 42
-11 5 -38 11 -60 13 -22 2 -57 7 -77 11 -21 4 -38 3 -38 -2 0 -14 -118 -78
-180 -99 -81 -26 -216 -24 -302 5 -130 44 -240 136 -306 257 -17 33 -32 53
-32 46z"/>
<path d="M2731 2827 c-6 -8 -18 -38 -25 -66 -15 -60 -5 -81 42 -81 35 0 132
45 132 62 0 20 -78 86 -109 93 -18 4 -32 1 -40 -8z"/>
<path d="M10135 2740 c-16 -4 -51 -8 -77 -9 -46 -1 -197 -33 -218 -46 -5 -3
-10 -14 -10 -23 0 -13 18 -22 68 -36 37 -10 85 -24 107 -31 22 -7 85 -25 140
-40 55 -15 127 -36 160 -45 33 -10 94 -28 135 -40 41 -12 94 -28 117 -36 23
-8 86 -20 140 -25 94 -10 98 -9 115 12 14 16 18 39 18 95 0 96 -11 120 -62
128 -21 4 -65 15 -96 26 -31 10 -93 26 -137 34 -44 8 -117 22 -163 30 -86 17
-186 19 -237 6z"/>
<path d="M2675 2468 c36 -21 41 -32 40 -81 -1 -62 -45 -117 -94 -117 -17 0
-31 -5 -31 -11 0 -25 -90 -79 -132 -79 -28 0 -161 -42 -204 -65 -18 -9 -55
-15 -97 -15 -37 0 -75 -5 -85 -10 -25 -15 -237 -37 -263 -28 -14 5 -40 3 -68
-6 -83 -26 -233 -35 -257 -15 -7 5 -21 6 -34 1 l-22 -8 26 -17 c33 -22 33 -34
0 -63 -32 -30 -70 -32 -77 -3 -3 12 -10 18 -16 15 -6 -4 -16 2 -23 14 -13 21
-38 27 -38 9 0 -57 50 -149 81 -149 8 0 25 -9 39 -20 16 -13 41 -20 71 -20 26
0 64 -7 85 -16 44 -19 283 -30 312 -15 10 5 79 11 155 12 99 3 137 7 137 16 0
6 14 20 30 30 17 9 30 21 30 25 0 4 19 8 41 8 40 0 109 32 109 50 0 4 20 11
44 14 24 4 62 19 85 34 40 25 42 29 36 62 -20 116 -22 107 36 161 30 28 70 58
89 66 19 8 47 27 62 41 43 44 58 54 58 41 0 -8 4 -8 15 1 13 11 20 11 40 0 13
-7 22 -17 19 -21 -6 -10 29 -29 55 -29 12 0 30 9 41 20 11 11 25 20 31 20 5 0
8 4 5 8 -3 5 -22 9 -43 10 -60 2 -92 12 -117 35 -38 35 -49 42 -86 57 -19 8
-42 22 -51 32 -9 10 -25 18 -35 18 -18 -1 -18 -1 1 -12z"/>
<path d="M1778 2287 c-24 -19 -65 -46 -91 -61 -53 -32 -68 -52 -57 -81 10 -29
112 -35 205 -14 39 9 92 21 119 25 50 9 77 34 37 34 -24 0 -28 18 -6 26 8 4
15 10 15 15 0 5 -7 9 -15 9 -8 0 -15 7 -15 16 0 11 -8 15 -29 12 -20 -2 -38 5
-53 19 -41 37 -61 37 -110 0z"/>
<path d="M10231 2046 c-12 -14 -12 -21 0 -42 32 -60 130 -94 169 -59 26 23 25
67 -1 91 -29 26 -149 33 -168 10z"/>
<path d="M3721 1923 c-16 -54 -46 -159 -66 -233 -20 -74 -43 -151 -52 -170 -9
-19 -17 -47 -17 -61 -1 -15 -4 -25 -7 -23 -3 2 -11 -7 -17 -21 -8 -18 -8 -25
1 -28 8 -3 4 -13 -12 -31 -14 -14 -19 -26 -13 -26 7 0 12 5 12 11 0 5 4 8 9 5
5 -3 6 -27 4 -53 -5 -46 -4 -47 11 -27 8 12 20 39 25 60 6 22 20 77 32 124 12
47 27 88 32 91 5 4 7 14 4 23 -3 8 -1 18 5 22 7 4 7 9 0 13 -14 9 -19 35 -7
36 27 1 33 15 19 44 -10 20 -12 36 -6 53 14 35 29 89 38 128 6 34 7 34 16 11
4 -13 11 -21 15 -17 3 3 1 17 -7 30 -13 26 -6 81 10 71 5 -3 9 10 8 30 -1 19
-3 35 -4 35 -2 0 -16 -44 -33 -97z"/>
<path d="M3070 1879 c-19 -5 -114 -8 -210 -7 -96 2 -181 -1 -188 -6 -26 -16
-6 -39 53 -61 53 -19 74 -21 180 -18 129 5 199 23 216 55 11 20 6 49 -8 47 -4
-1 -24 -5 -43 -10z"/>
<path d="M9934 1730 c-21 -8 -43 -51 -42 -82 1 -17 24 -18 335 -18 l333 0 0
33 c-1 74 -13 77 -332 76 -150 0 -282 -4 -294 -9z"/>
<path d="M9894 1514 c-8 -75 0 -360 11 -386 14 -35 54 -39 337 -36 255 3 278
4 297 22 20 18 21 28 21 243 l0 223 -329 0 -329 0 -8 -66z m136 -190 c0 -175
-1 -184 -19 -184 -11 0 -29 12 -40 26 -19 24 -21 40 -21 155 0 70 4 139 10
154 9 24 47 48 63 38 4 -2 7 -87 7 -189z m104 2 c2 -161 1 -186 -13 -186 -8 0
-25 10 -38 22 -22 21 -23 28 -23 168 0 127 2 149 18 162 17 16 44 28 50 22 2
-1 5 -86 6 -188z m370 186 c12 -20 -23 -123 -53 -157 -29 -34 -31 -40 -31
-115 l0 -80 30 0 c17 0 30 -4 30 -10 0 -6 -30 -10 -70 -10 -38 0 -72 0 -75 0
-3 0 -6 3 -7 8 -2 4 12 8 30 10 l32 3 0 80 c0 77 -1 81 -34 114 -24 23 -37 49
-45 85 -18 84 -23 80 88 80 55 0 102 -4 105 -8z m-279 -223 c-1 -83 -5 -144
-11 -146 -5 -2 -19 3 -29 11 -18 13 -20 27 -20 131 0 111 1 118 24 136 13 10
26 17 30 15 4 -3 7 -69 6 -147z"/>
<path d="M11599 1395 c-28 -15 -44 -56 -55 -141 -8 -63 5 -89 53 -109 52 -22
72 -19 107 19 97 105 100 135 20 200 -59 48 -82 54 -125 31z"/>
</g>
</svg>
