<?xml version="1.0" standalone="no"?>
<!DOCTYPE svg PUBLIC "-//W3C//DTD SVG 20010904//EN"
 "http://www.w3.org/TR/2001/REC-SVG-20010904/DTD/svg10.dtd">
<svg version="1.0" xmlns="http://www.w3.org/2000/svg"
 width="1500.000000pt" height="750.000000pt" viewBox="0 0 1500.000000 750.000000"
 preserveAspectRatio="xMidYMid meet">
<metadata>
Created by potrace 1.16, written by Peter Selinger 2001-2019
</metadata>
<g transform="translate(0.000000,750.000000) scale(0.100000,-0.100000)"
fill="#000000" stroke="none">
<path d="M2 6548 l3 -953 35 -19 c59 -31 71 -57 76 -154 5 -126 -13 -186 -71
-238 l-45 -41 0 -201 0 -202 34 0 c19 0 37 4 40 9 3 4 23 11 45 15 22 3 53 17
69 31 17 14 34 25 39 25 4 0 22 16 38 35 17 19 36 35 43 35 6 0 12 5 12 11 0
5 26 22 58 36 46 20 67 24 110 20 95 -10 190 -68 248 -152 20 -30 34 -59 73
-150 12 -27 26 -57 30 -66 12 -21 55 -133 75 -194 26 -78 69 -342 62 -380 -7
-37 -55 -80 -102 -91 -16 -4 -137 -8 -269 -9 -138 -1 -265 -7 -300 -14 -111
-22 -228 -25 -263 -7 -17 9 -33 16 -37 16 -3 0 -5 -205 -5 -456 l0 -456 23 8
c41 15 336 10 407 -8 36 -9 119 -19 185 -23 135 -9 170 -22 229 -85 25 -27 36
-49 36 -69 0 -16 5 -33 11 -37 9 -5 10 -50 6 -160 -5 -137 -3 -163 20 -266 13
-62 31 -151 40 -198 19 -104 29 -420 14 -420 -6 0 -11 -8 -11 -18 0 -24 -59
-142 -71 -142 -5 0 -9 -6 -9 -14 0 -22 -78 -49 -120 -41 -41 7 -137 53 -161
76 -27 27 -125 51 -173 44 -65 -11 -186 -47 -186 -57 0 -4 -9 -8 -20 -8 -25 0
-60 -34 -60 -59 0 -11 -6 -21 -12 -24 -10 -4 -10 -7 -1 -18 7 -7 13 -23 13
-36 0 -13 4 -23 10 -23 5 0 9 -3 8 -7 -1 -5 4 -26 10 -48 15 -50 15 -148 1
-198 -10 -38 -70 -107 -92 -107 -6 0 -30 -9 -54 -21 l-43 -21 0 -509 0 -509
4467 0 4466 0 -39 28 c-129 94 -175 216 -196 516 -10 134 -9 205 5 420 10 143
15 262 12 264 -5 5 -109 -4 -395 -33 -74 -8 -202 -21 -285 -30 -180 -18 -684
-72 -810 -85 -136 -15 -475 -49 -610 -61 -161 -14 -944 -93 -1175 -119 -102
-11 -221 -24 -265 -28 -68 -5 -75 -7 -45 -14 21 -4 4 -5 -40 -2 -56 3 -71 2
-60 -6 11 -9 4 -10 -30 -6 -25 3 -74 1 -110 -3 -38 -5 -53 -9 -35 -11 17 -1
-24 -9 -90 -17 -142 -18 -156 -18 -215 -10 -36 5 -39 4 -15 -3 25 -8 20 -9
-25 -6 -76 5 -319 -16 -1035 -89 -82 -9 -217 -22 -300 -31 -82 -8 -215 -21
-295 -29 -197 -20 -505 -51 -805 -80 -301 -30 -520 -52 -636 -65 -169 -19
-226 -5 -253 63 -10 23 -17 159 -25 482 -12 443 -15 505 -30 505 -18 0 -34
246 -37 550 -2 179 -5 406 -7 505 -4 212 2 327 14 280 10 -35 3 554 -11 975
-5 162 -14 525 -20 805 -6 281 -15 672 -20 870 -13 488 -30 1208 -33 1387 -2
134 0 149 19 175 42 58 71 64 260 54 258 -15 633 -22 604 -12 -14 5 -20 9 -14
10 22 2 64 47 64 69 0 36 32 61 94 74 48 10 74 9 161 -5 57 -10 112 -20 122
-23 10 -2 54 -12 98 -20 44 -9 101 -23 127 -30 26 -8 67 -14 92 -14 26 0 108
-11 184 -24 138 -24 496 -56 627 -56 82 0 235 -20 235 -30 0 -4 17 -11 37 -15
24 -4 32 -9 23 -15 -26 -16 50 -21 865 -55 494 -21 988 -43 1375 -60 179 -8
478 -22 665 -30 187 -8 491 -21 675 -30 184 -8 497 -21 695 -30 198 -9 502
-22 675 -30 173 -8 504 -22 735 -30 460 -17 471 -19 498 -79 12 -26 17 -315
31 -1766 19 -2048 25 -2442 37 -2434 5 3 21 -1 36 -9 16 -8 54 -20 86 -25 118
-22 175 -105 144 -211 -14 -47 -13 -52 2 -61 29 -18 -38 0 -152 41 -94 34
-496 226 -521 249 -4 5 11 8 35 9 98 0 281 18 287 28 4 6 16 9 26 7 19 -3 19
13 12 764 -22 2567 -34 3375 -47 3332 -4 -14 -7 -19 -8 -11 -1 7 -7 11 -16 7
-9 -3 -15 0 -15 9 0 16 -43 31 -59 20 -6 -3 -11 -13 -11 -21 0 -8 -8 -31 -17
-52 -9 -20 -22 -64 -27 -97 -11 -58 -12 -60 -44 -63 -23 -2 -32 -8 -28 -17 3
-8 -5 -16 -20 -19 -14 -4 -22 -11 -19 -15 3 -5 -1 -12 -7 -14 -8 -4 -7 -6 3
-6 16 -1 26 -14 27 -36 1 -15 39 -23 120 -24 57 -1 72 -4 72 -16 0 -12 -17
-15 -92 -16 -51 0 -87 -3 -80 -6 15 -6 16 -23 1 -23 -5 0 -25 -12 -43 -26 -31
-25 -32 -28 -20 -53 13 -26 24 -147 45 -501 11 -190 7 -497 -8 -650 -5 -41 -4
-105 1 -142 6 -50 5 -76 -4 -98 l-13 -32 -21 24 c-25 26 -48 155 -67 368 -6
69 -17 179 -25 245 -16 137 -20 710 -5 762 11 38 -10 93 -35 93 -8 0 -12 5 -9
10 3 6 -3 10 -14 10 -13 0 -19 5 -15 14 6 17 16 16 -1851 71 -280 8 -748 22
-1040 31 -1325 40 -1680 49 -1686 41 -4 -5 -8 -5 -10 0 -2 6 -159 15 -374 22
-203 6 -440 14 -525 18 -144 6 -154 5 -141 -10 11 -15 11 -17 -1 -17 -7 0 -22
-10 -33 -22 -19 -22 -20 -41 -23 -483 -2 -461 -5 -525 -22 -525 -19 0 -29 41
-45 181 -8 79 -20 178 -25 219 -5 41 -14 127 -20 190 -6 63 -15 128 -20 143
-5 15 -12 79 -16 143 l-7 115 -36 31 c-20 18 -35 35 -34 39 2 7 -45 9 -845 34
-494 16 -622 17 -583 6 24 -6 23 -8 -20 -33 -32 -19 -46 -23 -52 -15 -6 8 -7
5 -3 -6 3 -10 6 -20 6 -23 0 -2 7 -1 15 2 8 4 15 2 15 -4 0 -6 17 -28 39 -49
21 -22 40 -44 42 -51 2 -6 36 -19 74 -30 l70 -19 3 -92 c1 -51 -3 -118 -9
-149 -6 -31 -12 -67 -13 -79 0 -13 -4 -23 -8 -23 -5 0 -8 -7 -8 -15 0 -8 -9
-29 -19 -47 -11 -17 -17 -36 -14 -41 3 -5 -2 -24 -11 -43 -52 -111 -61 -142
-51 -173 3 -12 13 -21 20 -21 8 0 13 -6 11 -12 -1 -7 -1 -10 1 -5 7 11 23 8
40 -9 9 -8 22 -13 30 -10 10 4 19 -4 26 -24 14 -37 23 -38 31 -5 6 23 26 36
26 16 0 -26 -45 -121 -57 -121 -10 0 -11 5 -3 19 14 27 -18 98 -42 93 -15 -3
-14 -7 9 -28 14 -13 21 -24 14 -24 -6 0 -11 -7 -11 -15 0 -26 -38 -17 -54 13
l-15 27 -1 -27 c0 -14 5 -28 12 -30 7 -3 5 -7 -6 -11 -10 -4 -15 -3 -11 3 3 6
0 10 -7 10 -7 0 -23 -15 -35 -33 -19 -27 -23 -47 -23 -108 0 -51 5 -81 16 -97
12 -17 12 -22 2 -22 -19 -1 34 -40 54 -40 12 0 15 -6 10 -22 l-5 -22 23 22
c13 12 27 22 31 22 21 0 15 -21 -17 -59 -20 -23 -30 -40 -23 -39 9 2 15 -8 17
-25 2 -15 10 -39 17 -54 8 -15 12 -30 9 -35 -3 -4 15 -8 41 -8 32 0 47 -5 52
-15 8 -22 4 -24 -50 -26 -27 -2 -46 -7 -45 -13 1 -6 -4 -21 -11 -34 -7 -13
-10 -30 -7 -37 3 -8 0 -17 -5 -21 -6 -4 3 -20 22 -40 25 -26 30 -37 21 -46 -9
-9 -17 -7 -33 8 -13 10 -19 13 -15 6 4 -7 -2 -24 -13 -38 -44 -56 -14 -226 45
-252 21 -10 29 -22 25 -44 0 -4 9 -4 22 1 12 5 32 5 45 0 19 -7 22 -16 22 -57
0 -53 -23 -87 -56 -80 -30 5 -28 28 2 28 34 0 27 9 -9 12 -21 2 -27 8 -28 28
-1 23 -2 23 -8 -5 -8 -38 -24 -38 -32 1 -6 27 -7 27 -8 4 -1 -18 -4 -21 -10
-12 -6 10 -10 8 -14 -8 -8 -31 -27 -15 -28 23 l-2 32 -6 -34 c-6 -35 -31 -56
-31 -27 0 8 -9 20 -20 26 -14 7 -20 7 -20 0 0 -5 7 -10 15 -10 20 0 19 -19 0
-26 -21 -9 -45 14 -45 43 0 14 -4 21 -10 18 -5 -3 -10 -19 -10 -36 0 -16 -4
-29 -10 -29 -5 0 -10 12 -10 26 0 19 -4 25 -15 20 -9 -3 -15 0 -15 10 0 8 4
12 10 9 5 -3 10 -1 10 4 0 6 -7 11 -15 11 -11 0 -15 -11 -15 -40 0 -22 -4 -40
-9 -40 -10 0 -25 97 -19 124 4 23 22 21 26 -2 2 -14 9 -18 27 -14 17 3 27 -1
31 -12 3 -9 11 -16 17 -16 5 0 2 9 -8 20 -10 11 -15 28 -12 40 3 11 1 20 -4
20 -17 0 -79 68 -79 87 0 11 -5 24 -10 29 -12 12 -16 75 -7 91 8 14 -35 153
-61 195 -48 77 -37 162 31 233 43 46 47 52 54 95 9 52 26 110 33 110 11 0 30
48 30 76 0 14 -10 35 -23 47 -13 12 -26 30 -30 40 -4 10 -17 17 -31 17 -16 0
-32 9 -42 25 -12 19 -25 25 -51 25 -22 0 -32 -4 -27 -11 3 -6 19 -9 34 -5 21
4 29 1 33 -13 4 -15 -2 -17 -37 -15 -23 2 -46 4 -51 5 -14 3 -10 66 5 84 17
20 57 19 68 -2 9 -16 11 -16 27 0 9 9 26 17 38 17 13 0 17 3 11 8 -6 4 -10 15
-8 25 1 9 -3 23 -10 30 -14 13 -36 52 -36 62 0 3 5 3 12 -1 7 -4 8 -3 4 4 -4
6 -14 8 -23 5 -11 -4 -14 -2 -9 5 7 12 -13 52 -27 52 -4 0 -5 -5 -1 -12 4 -7
3 -8 -4 -4 -6 4 -9 13 -5 22 3 8 -3 25 -14 37 -60 66 -120 248 -130 392 -7
107 -6 108 85 120 33 4 50 11 45 17 -3 6 -1 8 4 5 6 -4 25 -2 43 4 21 8 28 14
20 19 -9 5 -1 19 24 46 20 21 36 43 36 49 0 17 -39 45 -73 52 -31 7 -31 7 -7
13 14 4 -78 10 -205 14 -488 17 -530 20 -530 36 0 18 60 19 490 8 158 -4 269
-3 255 1 -18 6 -20 9 -7 10 10 1 29 8 43 17 19 13 40 15 91 11 36 -3 68 -9 72
-14 3 -5 15 -13 26 -17 l20 -8 -20 -8 c-11 -4 64 -10 170 -14 105 -4 303 -11
440 -16 530 -20 828 -24 821 -12 -4 7 5 22 21 36 l27 24 -13 78 c-16 102 -67
209 -123 261 -60 54 -127 70 -368 82 -226 12 -433 28 -540 41 -98 12 -292 3
-354 -16 -54 -17 -90 -41 -142 -93 -28 -29 -36 -32 -49 -21 -8 7 -15 19 -15
26 0 8 -4 14 -10 14 -5 0 -10 8 -10 18 0 22 -57 92 -75 92 -8 0 -22 9 -32 19
-16 18 -42 20 -268 30 -138 6 -305 14 -372 17 l-122 7 -30 -31 c-41 -40 -43
223 24 -2332 8 -305 20 -769 26 -1030 11 -473 25 -838 27 -726 1 33 4 57 7 55
2 -3 9 -36 14 -74 13 -87 35 -114 79 -96 32 14 112 7 147 -13 11 -6 27 -12 35
-13 8 -1 33 -7 55 -12 22 -6 57 -11 79 -11 57 0 277 56 352 90 96 43 191 69
398 109 109 21 304 83 315 99 3 5 38 22 76 37 108 42 135 62 161 119 13 28 24
60 25 71 1 14 4 11 10 -10 5 -17 6 82 4 235 -11 620 -25 1290 -34 1640 -6 206
-13 545 -17 753 -6 330 -4 377 9 377 17 0 22 -117 37 -915 6 -280 14 -679 20
-885 5 -206 12 -528 16 -715 6 -297 18 -573 23 -492 1 30 21 38 21 9 0 -10 11
-29 24 -41 22 -20 29 -22 68 -14 26 5 88 5 156 -1 76 -6 116 -6 120 1 4 5 34
13 67 18 33 4 74 9 90 12 61 8 241 4 290 -6 72 -16 365 -24 545 -14 85 5 180
5 210 1 81 -10 94 1 108 102 16 112 31 140 95 173 28 15 56 27 62 27 21 0 175
82 208 111 26 23 41 49 57 103 26 83 62 179 71 186 3 3 9 25 12 50 4 25 12 77
18 115 6 39 13 86 15 105 15 126 21 149 44 174 35 36 69 33 108 -8 46 -50 62
-103 62 -212 0 -51 4 -96 10 -99 6 -3 10 -20 10 -38 0 -30 27 -116 40 -127 3
-3 20 -28 38 -56 27 -42 80 -100 177 -191 8 -7 18 -13 23 -13 5 0 17 -12 27
-26 9 -15 29 -40 44 -56 40 -46 45 -146 9 -213 -44 -82 -49 -95 -64 -147 -8
-29 -20 -81 -26 -115 -6 -35 -14 -63 -19 -63 -5 0 -9 -7 -9 -15 0 -27 -61 -74
-130 -100 -78 -30 -82 -34 -103 -95 -19 -56 -46 -118 -47 -107 0 5 -12 -6 -27
-24 -16 -18 -27 -37 -25 -42 1 -5 -2 -5 -8 -2 -7 4 -21 -1 -33 -12 -30 -26
-121 -30 -173 -7 -21 9 -43 16 -47 15 -5 -1 -6 3 -3 8 7 10 -18 33 -27 26 -4
-3 -5 -2 -3 1 3 3 -6 26 -20 51 -13 25 -24 56 -24 69 0 13 -4 25 -9 29 -14 8
-11 60 9 155 12 54 18 121 17 184 l-2 99 -30 8 c-16 5 -32 4 -35 0 -3 -5 -21
-12 -41 -16 -20 -4 -47 -16 -60 -28 -23 -21 -24 -27 -24 -162 0 -197 -20 -507
-34 -532 -6 -12 -8 -29 -4 -39 5 -13 3 -15 -7 -9 -10 6 -12 4 -7 -9 4 -9 3
-15 -2 -12 -5 3 -15 -2 -22 -11 -10 -12 -10 -14 -2 -9 32 19 8 -17 -43 -63
-39 -36 -50 -51 -37 -51 15 0 16 -2 3 -10 -10 -6 -11 -10 -2 -10 6 0 12 -7 12
-15 0 -8 6 -15 13 -16 6 0 22 -2 35 -5 13 -2 33 1 45 7 20 9 19 8 -3 -12 -18
-16 -20 -20 -7 -16 43 16 64 18 89 8 20 -7 29 -7 38 4 6 8 24 12 41 10 20 -3
29 0 29 10 0 8 8 15 18 15 9 0 44 21 77 48 91 72 99 74 300 82 179 7 181 7
270 45 133 55 183 68 256 68 76 0 107 -15 183 -86 49 -46 115 -73 144 -58 68
37 146 57 233 60 14 1 34 8 45 17 18 14 18 15 -3 4 -24 -11 -27 -8 -24 23 1 9
-5 20 -13 23 -9 3 -16 13 -16 21 0 10 -6 13 -17 9 -10 -4 -14 -4 -10 0 6 6
-23 54 -51 83 -7 8 -11 22 -9 33 3 11 1 16 -6 11 -7 -4 -8 0 -4 11 4 10 3 15
-3 11 -5 -3 -14 14 -21 37 -6 24 -15 52 -19 64 -23 59 -23 233 0 219 4 -3 6 4
3 15 -8 29 5 72 19 64 6 -4 8 -3 5 3 -9 14 12 75 23 68 4 -3 6 5 3 17 -4 19
-3 20 6 8 10 -13 11 -13 11 0 0 8 10 35 22 60 12 25 20 48 20 53 -1 4 2 7 8 7
5 0 12 16 16 35 3 19 10 32 15 29 5 -3 10 1 11 8 0 7 2 18 2 23 1 6 10 22 19
36 10 15 19 35 21 45 2 11 22 52 45 91 23 40 40 76 39 80 -4 14 64 113 77 113
14 0 67 -79 79 -118 4 -12 12 -20 17 -17 5 4 9 -2 9 -11 0 -10 8 -26 18 -37
12 -15 13 -19 2 -13 -9 4 -8 2 3 -7 9 -8 17 -17 17 -22 0 -4 9 -18 19 -32 11
-13 17 -31 14 -40 -4 -10 -2 -14 4 -10 7 4 26 -22 47 -65 35 -68 87 -137 103
-139 5 0 14 -5 21 -11 8 -7 12 -7 12 0 0 6 6 9 14 6 22 -9 222 75 256 107 16
16 34 29 40 29 5 0 10 7 10 15 0 8 7 15 15 15 8 0 15 9 15 19 0 24 16 36 24
19 4 -9 8 -10 11 -2 3 6 17 9 30 6 23 -4 25 -1 25 32 0 22 4 35 10 31 6 -3 10
-19 10 -36 0 -23 29 -69 43 -69 2 0 30 -25 62 -55 32 -30 64 -55 71 -55 8 0
14 -5 14 -10 0 -13 124 -70 150 -70 11 0 24 8 29 18 6 9 11 13 11 8 0 -12 46
52 60 82 6 13 19 26 30 29 11 3 22 14 25 24 4 11 16 19 29 19 13 0 29 6 35 14
18 22 97 35 190 33 l84 -3 48 47 c47 46 116 79 165 79 34 0 106 -28 130 -51
13 -12 28 -18 35 -14 8 6 10 4 4 -4 -4 -7 1 -22 13 -34 26 -29 54 -84 63 -127
l8 -35 -3 35 c-2 19 -7 46 -11 60 -6 23 -5 24 6 5 7 -11 20 -26 28 -32 10 -8
12 -15 6 -20 -10 -8 -13 -15 -21 -67 -4 -24 -3 -28 5 -16 9 13 11 11 12 -7 4
-55 19 -74 64 -77 22 -2 42 -10 47 -20 5 -9 16 -16 23 -16 9 0 15 -10 15 -26
0 -25 -2 -26 -37 -21 -29 5 -34 4 -23 -4 13 -9 13 -10 -1 -6 -9 3 -22 1 -28
-4 -6 -5 -9 -6 -6 -3 5 8 -25 33 -40 33 -5 0 -2 -6 8 -13 12 -9 14 -16 8 -21
-17 -10 -13 -23 10 -30 12 -4 18 -12 15 -21 -3 -8 3 -29 14 -47 25 -40 28
-166 5 -220 -8 -19 -11 -37 -8 -41 4 -3 -2 -6 -13 -7 -18 0 -18 -1 1 -9 31
-13 -2 -11 -65 4 -73 18 -120 38 -100 43 39 9 57 95 36 178 -2 11 -5 23 -5 28
-1 4 -7 7 -15 7 -8 0 -16 3 -18 8 -4 10 -75 42 -94 42 -13 0 -21 13 -35 55 -9
26 -93 95 -117 97 -15 1 -36 3 -47 4 -11 1 -25 2 -32 3 -6 1 -15 10 -18 21 -4
11 -19 32 -33 45 -15 14 -27 31 -27 38 -1 6 -6 11 -13 10 -6 -2 -26 6 -44 17
-50 30 -99 26 -149 -13 -65 -50 -82 -88 -74 -172 4 -38 12 -79 18 -90 6 -11
10 -23 9 -27 -1 -5 3 -8 9 -8 5 0 7 -5 4 -10 -3 -6 2 -13 12 -16 49 -16 49
-16 28 -24 -11 -5 -16 -9 -11 -9 11 -1 -33 -35 -55 -43 -20 -8 -92 -115 -84
-127 3 -5 1 -12 -5 -16 -5 -3 -10 -1 -10 4 0 6 -4 11 -10 11 -5 0 -7 -7 -3
-15 3 -9 -2 -21 -10 -28 -9 -7 -17 -19 -19 -27 -2 -8 -12 -23 -23 -33 -17 -16
-14 -16 19 3 22 12 35 15 28 7 -7 -7 -8 -17 -4 -22 4 -4 0 -6 -8 -3 -8 3 -20
-2 -26 -10 -9 -12 -15 -12 -35 -3 -22 11 -23 11 -5 -3 10 -8 15 -20 11 -26 -9
-15 18 -8 31 9 9 11 11 9 10 -10 -1 -27 -18 -51 -26 -38 -3 5 -11 -4 -17 -20
-8 -23 -8 -28 3 -27 7 1 17 6 21 11 4 4 2 5 -4 1 -7 -4 -13 -3 -13 2 0 6 11
13 24 16 14 3 29 18 36 36 20 49 21 28 1 -25 -11 -28 -21 -42 -24 -34 -3 8 -3
-4 0 -26 4 -22 10 -43 16 -46 5 -4 7 -11 3 -17 -3 -5 -1 -24 6 -42 l11 -33 14
27 c20 39 33 32 35 -21 l1 -48 4 45 c3 25 9 49 14 55 6 6 7 -1 4 -20 -4 -22 2
-40 22 -69 16 -22 34 -42 42 -44 8 -3 2 8 -13 24 -26 27 -27 34 -24 104 2 52
10 89 25 119 12 24 19 49 17 56 -8 19 9 25 23 9 8 -8 9 -15 3 -19 -6 -3 -10
-13 -10 -22 0 -9 3 -14 6 -10 4 3 20 -1 36 -9 22 -12 27 -19 19 -27 -16 -16
-13 -27 5 -20 14 5 15 3 5 -15 -15 -29 -14 -40 3 -17 13 18 14 17 21 -16 7
-29 9 -31 16 -14 5 13 8 15 8 5 1 -13 2 -13 12 0 8 11 9 7 5 -17 -3 -20 1 -43
10 -60 13 -23 15 -24 11 -6 -3 13 -1 25 4 28 4 3 6 13 3 23 -5 13 -4 14 4 3 5
-7 12 -9 14 -5 3 5 3 2 1 -6 -6 -19 -6 -21 -4 -45 2 -19 3 -18 11 3 12 28 26
28 40 1 8 -14 8 -24 1 -32 -5 -7 -6 -19 -2 -26 6 -10 11 -5 16 17 3 17 15 40
26 53 l19 22 0 -29 c0 -20 -3 -25 -9 -16 -6 10 -10 4 -15 -18 -9 -48 -6 -70 5
-32 8 27 13 31 24 22 8 -6 16 -26 18 -43 4 -31 4 -31 5 5 1 20 -2 40 -8 43 -5
3 -10 18 -9 33 1 25 2 23 15 -17 4 -11 7 -10 18 4 12 16 13 16 19 1 4 -9 3
-16 -2 -16 -5 0 -11 -9 -14 -20 -4 -16 -2 -18 12 -11 9 5 25 32 35 61 10 28
20 49 22 47 2 -2 -2 -21 -9 -43 -23 -65 -29 -96 -17 -89 5 3 10 2 10 -4 0 -5
-4 -13 -10 -16 -5 -3 -10 -13 -10 -22 0 -24 11 -9 37 50 20 45 23 47 17 17 -3
-19 -13 -48 -21 -65 -15 -30 -15 -30 4 -10 10 11 24 36 31 55 9 27 10 28 6 7
-7 -38 5 -75 17 -56 5 8 9 21 9 29 0 13 -1 13 -11 0 -9 -13 -10 -13 -6 0 2 8
9 14 15 13 5 -1 13 13 16 32 4 19 11 37 15 40 10 6 -20 -101 -36 -130 -10 -17
-11 -17 -18 5 l-7 23 -19 -24 c-25 -32 -24 -48 1 -18 10 13 19 19 20 13 0 -6
-3 -14 -7 -18 -7 -7 -13 -56 -7 -56 1 0 12 16 25 36 16 27 24 33 31 22 7 -9 8
-7 4 7 -6 23 14 90 34 108 10 10 10 8 1 -11 -7 -13 -10 -28 -7 -35 2 -7 5 -5
5 4 1 9 8 22 16 29 13 11 14 10 8 -6 -6 -17 -5 -18 12 -4 17 14 17 14 4 -7 -8
-13 -16 -18 -20 -12 -4 7 -9 4 -13 -6 -10 -28 -7 -39 8 -26 7 6 21 9 30 5 12
-5 13 -10 5 -26 -6 -11 -8 -35 -5 -53 5 -23 2 -36 -10 -46 -15 -12 -16 -11 -9
11 9 29 6 27 -20 -15 -18 -29 -18 -30 0 -15 17 14 18 13 12 -5 -5 -15 -1 -13
16 8 30 36 44 35 18 -2 -12 -16 -21 -35 -21 -43 0 -7 9 2 21 21 22 36 38 37
19 0 -10 -18 -10 -24 2 -33 8 -6 17 -18 21 -26 4 -10 6 -11 6 -2 1 20 51 121
63 128 6 4 8 -1 3 -16 -5 -15 -4 -20 4 -16 7 5 9 -4 6 -26 -4 -26 -3 -29 4
-13 9 19 10 18 10 -4 1 -24 1 -24 16 -5 14 18 15 17 8 -11 -6 -27 -5 -29 10
-16 21 17 21 9 1 -32 l-16 -32 26 30 c27 32 36 24 11 -9 -23 -31 -17 -42 6
-12 12 15 24 25 27 22 3 -3 -2 -14 -10 -23 -19 -22 -32 -56 -18 -48 6 3 10 14
11 23 1 11 4 8 9 -8 5 -16 8 -19 9 -8 1 9 5 19 10 22 5 4 7 -4 4 -16 -4 -19
-3 -20 6 -8 17 24 12 2 -6 -28 l-17 -27 22 19 c24 21 28 16 11 -17 -10 -22
-10 -22 10 1 11 12 22 18 25 14 3 -5 2 -12 -1 -16 -4 -3 -7 -16 -8 -28 -2 -18
-1 -19 10 -5 7 9 15 14 18 10 4 -3 2 -12 -4 -20 -8 -9 -8 -13 -1 -13 6 0 16 8
21 18 9 15 11 14 12 -8 1 -14 1 -29 0 -35 -1 -5 6 -1 14 9 15 19 15 19 16 -5
0 -22 1 -23 10 -4 8 16 9 15 5 -10 l-4 -30 19 24 c17 21 19 21 19 4 0 -10 -6
-25 -12 -33 -10 -11 -9 -11 7 0 11 8 23 20 27 25 5 6 8 4 8 -5 0 -9 -5 -21
-12 -28 -9 -9 -9 -12 1 -12 7 0 15 9 18 20 3 11 9 20 13 20 10 0 8 -20 -3 -37
-5 -8 -3 -13 3 -13 7 0 14 9 17 20 3 11 9 20 14 20 5 0 4 -11 -1 -25 -12 -32
0 -32 34 0 31 29 35 21 4 -12 -16 -17 -18 -23 -7 -24 8 -1 19 -2 24 -4 6 -1
16 -3 23 -3 7 -1 10 -7 7 -13 -4 -6 -13 -8 -21 -5 -8 3 -11 0 -7 -10 5 -13 8
-13 24 2 10 9 17 20 14 23 -2 4 5 12 15 19 17 10 18 9 13 -6 -3 -9 -15 -28
-27 -41 l-21 -24 23 14 c12 8 25 21 27 31 3 9 13 22 23 30 15 12 16 11 4 -4
-8 -9 -11 -22 -7 -27 3 -6 -3 -16 -15 -23 -11 -7 -20 -17 -20 -22 0 -6 5 -5
12 2 15 15 32 16 23 2 -3 -5 -1 -10 5 -10 7 0 9 8 5 20 -8 24 10 27 19 4 6
-15 8 -15 26 1 34 31 22 6 -12 -27 -22 -20 -26 -27 -11 -19 12 6 36 28 53 48
22 27 28 30 20 13 -7 -14 -24 -38 -39 -55 -14 -16 -20 -25 -12 -18 7 6 19 9
26 7 6 -3 18 2 25 11 7 8 17 15 23 15 5 0 2 -9 -7 -19 -12 -13 -14 -21 -6 -26
6 -3 9 -3 8 2 -3 8 5 13 23 13 5 0 7 -5 3 -11 -3 -6 6 -3 22 7 l29 18 -25 -30
c-14 -16 -18 -23 -10 -16 21 18 35 15 19 -5 -12 -15 -12 -16 2 -11 13 5 19 -1
25 -25 l8 -32 3 37 c3 29 13 44 41 66 53 41 72 49 37 15 -52 -50 -62 -69 -16
-30 65 54 71 45 9 -14 l-53 -51 70 53 c70 53 70 53 31 11 -22 -23 -37 -44 -35
-47 3 -3 18 9 34 25 16 17 33 30 39 30 5 0 -7 -17 -27 -38 -20 -21 -37 -42
-37 -46 0 -5 8 1 19 12 24 29 35 28 20 -1 -12 -22 -12 -22 10 -3 13 12 17 22
11 26 -6 4 -2 14 12 26 19 16 20 16 9 1 -8 -9 -11 -21 -7 -25 4 -4 16 4 27 18
15 20 18 21 12 5 -4 -11 -16 -28 -28 -37 -11 -10 -15 -17 -9 -18 5 0 15 5 22
12 19 19 14 -3 -5 -26 -17 -20 -17 -20 0 -7 20 15 23 2 5 -19 -7 -8 -3 -6 10
5 12 10 18 21 13 24 -5 4 -1 17 9 31 11 14 20 20 20 15 0 -6 -5 -16 -12 -23
-6 -6 -9 -15 -5 -19 4 -4 13 -1 19 5 7 7 15 12 20 12 4 0 -12 -19 -35 -41
l-42 -41 45 33 45 33 -40 -43 c-22 -24 -31 -39 -20 -33 11 6 29 20 40 32 25
27 62 49 49 28 -5 -7 -9 -17 -9 -23 -2 -23 -18 -44 -29 -38 -6 3 -8 3 -4 -2 4
-4 3 -14 -3 -22 -25 -30 11 -11 38 20 42 48 63 58 30 14 -30 -40 -27 -48 7
-19 21 17 21 17 2 -5 -20 -24 -10 -32 15 -10 7 6 -4 -8 -26 -33 -22 -24 -31
-37 -19 -27 32 26 40 20 13 -10 l-24 -26 33 23 c19 14 28 27 21 30 -6 4 0 14
15 23 36 24 46 21 16 -4 -20 -17 -21 -20 -5 -14 17 5 17 3 -5 -21 l-25 -28 29
18 c18 11 25 13 20 5 -5 -8 -9 -17 -9 -21 0 -3 -4 -10 -9 -15 -5 -5 -6 -3 -2
4 5 9 2 11 -10 6 -12 -4 -14 -8 -5 -11 8 -3 7 -8 -6 -18 -13 -11 -7 -10 17 2
35 17 35 17 17 -4 -20 -21 -10 -36 17 -26 13 5 15 2 10 -12 -4 -11 -12 -26
-18 -34 -8 -12 -8 -13 4 -2 24 21 34 13 14 -10 -10 -12 3 -4 31 17 43 35 47
36 27 11 -25 -33 -20 -51 10 -35 15 8 19 8 13 0 -4 -7 -1 -18 5 -26 6 -8 8
-20 4 -26 -4 -8 -3 -9 5 -5 6 4 14 0 17 -8 3 -9 10 -13 15 -10 5 3 6 -2 3 -10
-4 -9 1 -18 10 -22 9 -3 13 -10 10 -15 -3 -5 0 -9 6 -9 6 0 9 -4 6 -9 -3 -4 3
-19 14 -31 11 -13 20 -28 21 -34 5 -66 17 -96 52 -133 17 -18 27 -33 22 -33
-5 0 8 -9 30 -20 22 -11 40 -20 41 -20 2 0 0 15 -3 34 -3 22 -1 36 8 41 7 5
14 4 17 -3 2 -7 8 -10 13 -6 5 3 9 -2 9 -12 0 -13 3 -14 13 -5 11 9 13 4 12
-22 -2 -34 13 -77 27 -77 4 0 8 -12 8 -26 0 -14 3 -23 8 -21 4 3 8 -9 9 -26 1
-17 7 -33 12 -36 5 -3 16 -24 25 -45 9 -21 24 -45 34 -53 9 -8 11 -11 3 -7 -9
5 -7 -2 5 -19 l19 -25 27 25 c20 19 25 30 19 47 -16 42 -22 96 -11 96 5 0 10
-11 10 -25 0 -14 5 -25 10 -25 10 0 14 22 12 78 -2 42 14 41 22 -2 8 -44 -1
-98 -19 -112 -21 -16 -19 -23 5 -17 16 4 18 1 15 -18 -13 -64 -15 -102 -10
-120 7 -20 7 -20 21 -2 13 17 13 17 14 -2 0 -12 -6 -27 -12 -34 -11 -10 -9
-11 5 -5 10 3 17 3 16 -2 -6 -21 15 -101 32 -131 11 -17 19 -35 18 -40 -1 -4
-1 -15 0 -23 4 -29 29 66 35 130 8 80 13 115 20 160 5 30 3 36 -14 37 -17 2
-19 -3 -14 -40 3 -23 7 -53 10 -65 3 -17 1 -21 -7 -16 -8 4 -9 3 -5 -4 4 -7 5
-12 2 -12 -10 0 -46 83 -46 105 0 11 -5 26 -12 33 -7 7 -8 12 -3 12 6 0 4 4
-3 9 -17 10 -23 60 -11 83 6 10 5 18 -2 20 -8 3 -5 19 9 51 12 26 17 45 12 42
-6 -4 -10 -2 -10 4 0 14 38 34 53 27 7 -2 4 -5 -5 -5 -10 -1 -18 -6 -18 -12 0
-6 7 -9 15 -5 17 6 21 -9 5 -19 -5 -3 -10 -16 -10 -27 0 -19 1 -20 18 -5 20
17 42 3 34 -23 -4 -12 -2 -13 9 -3 18 18 30 16 23 -2 -4 -8 -1 -15 4 -15 6 0
13 8 15 18 4 14 5 14 6 -3 0 -11 -8 -35 -19 -53 -30 -48 -24 -50 16 -6 35 38
35 38 13 5 -19 -28 -20 -33 -6 -28 21 8 22 3 0 -18 -13 -13 -13 -19 -4 -25 11
-6 11 -12 1 -31 -13 -23 -12 -24 7 -7 11 10 27 18 36 18 9 0 17 5 17 12 0 6 3
8 7 4 5 -4 1 -13 -7 -20 -17 -13 -43 -56 -38 -62 2 -1 19 11 38 29 36 34 50
39 70 27 10 -6 8 -13 -9 -31 -23 -25 -20 -39 4 -19 13 10 15 9 15 -7 0 -10 -6
-25 -12 -32 -11 -11 -10 -13 5 -8 18 7 24 -8 7 -18 -6 -4 -8 -11 -4 -16 9 -15
-23 -57 -59 -79 -44 -27 -9 -26 39 0 44 25 51 22 21 -11 -12 -13 -22 -30 -22
-39 0 -9 -9 -15 -22 -15 -13 0 -28 -7 -35 -14 -11 -12 -10 -13 5 -8 24 9 57
-22 54 -51 -1 -12 -7 -22 -14 -22 -8 0 -10 -7 -6 -17 6 -16 3 -15 -17 2 l-23
20 7 -29 c6 -26 5 -28 -9 -16 -8 7 -18 10 -22 6 -3 -3 -1 -6 5 -6 20 0 14 -27
-13 -58 -26 -32 -32 -52 -14 -52 5 0 7 -5 3 -11 -5 -8 -9 -7 -14 1 -4 7 -15
10 -25 7 -9 -4 -13 -11 -10 -17 3 -6 -1 -13 -10 -16 -13 -6 -14 -8 -3 -15 7
-5 970 -9 2141 -9 l2127 0 0 3750 0 3750 -7500 0 -7500 0 2 -952z m4903 -418
c-2 -4 7 -5 22 -2 17 3 24 1 19 -6 -3 -6 9 -20 28 -31 19 -12 46 -38 61 -57
24 -32 28 -46 28 -108 0 -39 -2 -83 -6 -99 -3 -15 -2 -25 3 -22 4 3 15 2 24
-1 13 -5 14 -9 5 -21 -11 -12 -9 -12 15 -2 19 9 23 15 14 21 -8 5 -1 6 16 2
17 -4 27 -3 23 2 -9 15 115 0 149 -19 17 -9 34 -13 38 -10 3 4 6 2 6 -4 0 -5
14 -26 32 -47 23 -28 34 -34 40 -24 6 8 7 5 3 -11 -4 -13 -3 -21 1 -18 10 6
13 -8 20 -119 5 -70 2 -88 -15 -123 -22 -42 -80 -81 -121 -81 -12 0 -19 -4
-16 -9 3 -5 -1 -11 -9 -15 -8 -3 -15 -1 -15 4 0 6 -5 10 -11 10 -5 0 -7 -5 -3
-11 3 -6 1 -14 -5 -18 -7 -5 -3 -18 14 -41 14 -19 23 -40 21 -47 -3 -7 -1 -13
4 -13 6 0 11 -10 11 -22 1 -20 2 -20 6 -4 4 16 9 12 24 -20 20 -42 25 -129 9
-139 -5 -3 -10 -11 -10 -16 0 -6 5 -7 11 -4 24 15 -10 -99 -35 -118 -8 -6 -8
-10 0 -13 17 -7 -64 -86 -108 -107 -56 -26 -137 -18 -145 15 -3 10 -10 18 -15
18 -5 0 -6 -4 -3 -10 3 -5 1 -10 -4 -10 -6 0 -11 9 -11 19 0 24 -16 36 -24 19
-4 -9 -5 -8 -4 2 1 8 -6 31 -17 50 -10 19 -26 62 -34 94 -9 33 -22 61 -30 64
-9 3 -11 0 -6 -8 5 -8 3 -11 -6 -8 -10 3 -14 21 -12 64 l2 59 -10 -63 c-32
-212 -190 -333 -344 -263 -47 21 -108 86 -130 137 -46 111 24 242 154 285 22
7 20 8 -9 4 -30 -4 -36 -2 -37 14 -1 14 6 21 25 24 18 3 13 4 -15 6 -100 3
-198 67 -250 162 -29 54 -25 200 6 259 25 48 38 60 86 87 29 16 128 26 120 12
-3 -4 9 -12 25 -19 16 -7 35 -19 41 -27 7 -8 20 -18 30 -23 14 -8 16 -6 12 13
-4 18 -3 19 7 7 10 -13 12 -13 17 -1 4 10 9 8 19 -10 14 -24 14 -23 7 6 -5 17
-8 71 -8 120 0 86 2 94 35 149 19 32 45 63 57 69 12 5 20 14 17 18 -3 5 -2 9
3 10 44 3 79 11 86 18 11 11 79 12 72 1z m1768 -65 c18 -8 43 -32 57 -52 l25
-36 8 -366 9 -365 28 -42 c82 -119 59 -296 -49 -367 -79 -53 -160 -45 -234 22
-56 50 -77 100 -77 188 0 79 9 110 47 166 l26 38 -7 357 c-6 337 -5 359 12
392 21 39 75 80 104 80 11 0 34 -7 51 -15z m1813 -44 c152 -71 255 -198 319
-396 23 -69 25 -87 20 -203 -4 -127 -7 -154 -18 -182 -4 -8 -15 -40 -27 -70
-24 -68 -66 -136 -120 -193 -22 -24 -36 -48 -32 -52 4 -5 2 -5 -4 -2 -7 4 -22
-2 -35 -12 -53 -41 -158 -88 -186 -83 -6 1 -30 -2 -52 -7 -24 -5 -39 -5 -35 0
3 5 -14 9 -38 9 -66 0 -193 65 -258 132 -29 29 -56 52 -61 51 -4 -2 -6 3 -3
11 3 8 0 17 -7 22 -8 4 -10 3 -5 -4 4 -7 5 -12 2 -12 -3 0 -10 10 -17 21 -8
17 -8 20 1 14 7 -4 4 4 -5 19 -10 14 -22 26 -27 26 -5 0 -7 4 -3 9 7 13 -16
62 -26 55 -5 -3 -6 3 -2 12 4 12 3 15 -6 10 -9 -6 -10 0 -6 21 5 22 4 25 -5
13 -9 -12 -10 -9 -5 13 4 20 2 27 -6 22 -8 -5 -9 -1 -4 14 3 11 3 26 -2 33
-10 17 -14 46 -19 148 -2 47 -1 92 3 100 8 20 10 29 11 68 1 18 6 31 11 28 4
-3 6 6 3 21 -3 16 -1 24 5 20 6 -4 18 12 28 36 35 90 163 244 218 263 9 3 14
10 11 16 -4 7 -2 8 5 4 6 -4 17 -3 24 2 31 26 114 42 199 38 71 -3 98 -9 154
-35z m-360 -1362 c29 -32 27 -141 -3 -170 -29 -29 -66 -19 -83 21 -18 43 -8
139 15 156 27 20 49 17 71 -7z m139 -3 c19 -29 22 -95 5 -135 -19 -46 -90 -66
-90 -26 0 8 7 11 19 8 17 -4 51 19 51 36 0 5 -11 9 -25 9 -32 0 -65 29 -65 57
0 32 37 75 65 75 15 0 31 -10 40 -24z m-3408 -24 c44 -28 43 -175 -1 -204 -23
-16 -65 -8 -80 14 -34 49 -32 142 5 179 19 19 55 25 76 11z m154 -14 c7 -12
12 -36 11 -52 -1 -27 2 -24 25 22 14 29 32 52 39 52 10 0 11 -6 4 -26 -13 -33
-13 -35 3 -32 7 2 14 -1 16 -7 2 -5 12 -16 23 -24 11 -7 23 -23 28 -35 l9 -21
0 22 c1 12 -6 29 -15 37 -8 9 -11 16 -4 16 6 0 16 -11 22 -25 9 -19 14 -22 20
-13 6 8 7 5 3 -10 -4 -15 -1 -24 9 -28 9 -3 16 -13 16 -21 0 -9 -6 -13 -14
-10 -11 4 -13 -2 -10 -26 3 -25 2 -28 -5 -12 -8 18 -9 19 -16 3 -4 -10 -12
-18 -18 -18 -7 0 -7 4 1 12 7 7 12 23 11 38 l-1 25 -7 -24 c-3 -13 -14 -29
-22 -34 -23 -15 -67 0 -74 24 -6 17 -9 19 -17 8 -7 -10 -8 -8 -5 9 7 31 2 28
-22 -14 -26 -44 -45 -36 -25 11 20 49 18 54 -20 48 -31 -5 -36 -2 -50 25 -20
39 -20 52 0 80 21 30 69 30 85 0z m-307 -40 c4 -29 7 -55 7 -58 0 -3 7 -8 14
-13 8 -4 12 -14 9 -22 -4 -8 -10 -13 -14 -10 -5 3 -10 -7 -12 -22 -4 -36 -25
-40 -32 -6 -6 25 -11 29 -42 28 -59 -2 -61 23 -9 94 25 34 51 61 59 61 9 0 16
-18 20 -52z m2050 -209 c29 -23 33 -50 11 -73 -15 -14 -4 -33 13 -22 4 2 6
-13 4 -35 -7 -66 -68 -91 -111 -45 -16 17 -20 30 -15 50 3 14 10 29 16 32 5 3
4 11 -2 19 -19 23 -8 68 20 82 33 17 33 16 64 -8z m-376 -10 c2 -12 -3 -15
-21 -12 -18 4 -29 -2 -41 -18 -22 -33 -21 -36 18 -31 61 7 88 -67 41 -113 -13
-14 -31 -25 -40 -25 -9 0 -27 11 -40 25 -42 41 -28 154 22 184 25 15 57 9 61
-10z m136 8 c23 -17 36 -78 26 -123 -12 -51 -37 -76 -74 -72 -37 4 -41 20 -6
25 23 3 50 27 50 43 0 4 -12 5 -27 3 -40 -5 -67 20 -67 62 0 60 54 94 98 62z
m-4313 -368 c10 -5 27 -9 38 -9 12 0 21 -4 21 -10 0 -5 9 -10 19 -10 11 0 23
-5 26 -10 4 -6 11 -8 16 -5 5 4 12 -1 15 -10 4 -9 13 -14 20 -11 7 3 16 0 20
-6 5 -7 2 -8 -7 -3 -8 4 3 -7 24 -24 20 -18 37 -38 37 -46 0 -7 -19 -34 -43
-61 l-43 -47 -29 19 c-19 12 -26 14 -21 5 11 -18 -9 -7 -41 22 -12 10 -26 16
-32 12 -6 -3 -11 -2 -11 3 0 5 -15 13 -32 17 -39 9 -201 13 -208 5 -7 -8 -97
-55 -153 -81 -26 -12 -30 -10 -72 31 -25 24 -45 48 -45 53 0 5 15 23 33 40 17
16 31 34 29 39 -1 5 2 7 7 4 5 -4 16 0 23 8 18 18 100 55 168 77 42 14 75 17
139 13 47 -3 93 -10 102 -15z m-41 -222 c21 0 37 -4 34 -8 -6 -10 26 -20 38
-12 6 3 8 2 5 -4 -3 -5 7 -20 23 -32 17 -12 30 -25 30 -30 0 -4 -19 -29 -41
-55 -30 -33 -46 -45 -58 -40 -9 4 -38 10 -64 15 -26 4 -57 11 -69 15 -13 4
-18 2 -14 -4 3 -6 -8 -13 -26 -17 -18 -3 -43 -11 -56 -18 -20 -10 -28 -6 -69
36 l-47 46 22 24 c12 13 19 27 15 31 -5 4 -3 6 4 4 6 -1 19 6 28 17 9 11 14
14 10 8 -4 -9 -1 -11 9 -7 9 3 13 10 10 15 -5 9 8 13 40 9 10 -1 15 3 12 8 -3
6 2 8 11 6 10 -2 32 0 48 4 18 6 37 5 48 0 10 -5 35 -10 57 -11z m-21 -253
c30 -38 27 -80 -8 -115 -36 -36 -73 -37 -106 -4 -32 31 -34 91 -5 123 31 33
92 30 119 -4z m8238 -2409 c6 -65 6 -64 28 -53 20 11 20 11 1 -11 -20 -22 -9
-30 12 -9 9 9 12 8 12 -6 0 -13 5 -16 18 -12 15 5 15 4 -2 -8 -17 -14 -17 -16
-1 -38 11 -14 15 -16 12 -6 -4 10 -2 20 3 23 6 4 10 -5 10 -19 0 -14 -4 -26
-9 -26 -12 0 -9 -33 4 -42 16 -12 25 -9 19 5 -2 7 4 22 16 32 11 10 20 13 20
7 0 -6 -5 -14 -10 -17 -6 -4 -7 -11 -4 -17 4 -6 9 -5 15 3 4 7 11 10 15 6 4
-4 -2 -14 -14 -23 -12 -8 -20 -20 -16 -25 3 -6 12 -5 22 3 15 11 15 10 -1 -14
-9 -15 -17 -31 -17 -35 0 -4 4 -1 10 7 5 8 12 11 16 7 4 -4 -3 -19 -17 -34
-18 -20 -20 -25 -6 -20 25 9 21 2 -10 -19 -27 -17 -28 -17 -13 1 14 17 13 18
-4 12 -17 -7 -17 -6 -5 10 8 9 9 14 2 10 -6 -4 -19 1 -29 10 -16 16 -16 16
-10 -5 4 -12 3 -22 -2 -22 -12 0 -24 29 -16 41 8 13 -10 11 -25 -3 -10 -11
-11 -9 -5 6 4 12 4 17 -2 13 -6 -3 -16 -1 -24 5 -13 8 -13 9 1 5 12 -4 15 3
15 38 -1 24 -4 41 -8 38 -5 -2 -8 3 -8 11 0 9 -4 16 -8 16 -4 0 -8 8 -9 18 0
9 -5 32 -11 50 -6 17 -7 32 -3 32 4 0 5 14 3 31 -3 22 -1 30 7 25 6 -4 11 -1
11 8 0 26 15 18 17 -9z"/>
<path d="M4930 6046 c14 -18 14 -19 -5 -11 -17 8 -88 10 -147 5 -16 -1 -48
-30 -34 -30 4 0 -1 -11 -10 -25 -9 -14 -19 -23 -22 -21 -3 3 1 12 8 21 7 9 11
18 8 21 -9 9 -41 -69 -46 -112 -6 -55 7 -156 19 -149 5 3 6 0 4 -8 -8 -18 23
-89 35 -82 6 3 7 -1 4 -10 -4 -9 -3 -15 2 -13 5 1 19 -3 31 -10 14 -8 24 -9
28 -2 3 5 14 10 24 10 10 0 22 13 30 35 6 19 26 47 42 62 16 15 37 43 46 61 8
18 18 30 21 27 3 -3 0 -11 -6 -17 -21 -21 -13 -32 8 -13 12 10 18 25 15 32 -2
8 -1 12 4 8 5 -3 14 18 20 45 12 57 13 102 1 55 l-8 -30 -1 30 c-1 31 -24 74
-48 88 -7 5 -11 12 -8 16 2 5 -3 15 -13 22 -16 13 -16 13 -2 -5z"/>
<path d="M4406 5739 c4 -7 0 -9 -13 -5 -24 8 -69 -36 -58 -55 5 -7 4 -10 -2
-6 -17 11 -33 -41 -33 -110 0 -58 4 -74 32 -120 19 -32 38 -52 48 -50 8 1 14
-4 13 -10 -5 -23 63 -42 142 -40 42 1 68 4 58 8 -15 6 -14 8 10 18 16 6 32 11
37 11 14 0 23 46 14 72 -5 13 -9 30 -9 38 -1 8 -7 14 -14 12 -7 -1 -10 2 -6 8
8 13 -19 52 -30 42 -5 -4 -5 -1 -1 6 10 16 -21 102 -36 102 -6 0 -9 3 -5 6 10
10 -46 65 -60 59 -8 -2 -12 -1 -9 4 6 10 -26 21 -62 21 -14 0 -21 -4 -16 -11z"/>
<path d="M5148 5732 c-6 -7 -16 -11 -22 -10 -16 3 -56 -21 -56 -34 0 -6 12 -1
28 13 26 23 26 23 -2 -9 -29 -31 -43 -42 -31 -22 3 6 2 10 -4 10 -13 0 -42
-41 -35 -51 2 -4 -1 -11 -7 -15 -8 -5 -9 -3 -4 7 8 12 6 12 -8 0 -19 -15 -24
-46 -6 -35 7 4 7 -1 -1 -16 -15 -28 -7 -48 25 -60 15 -6 24 -13 22 -17 -3 -5
5 -9 16 -9 55 -4 85 -10 81 -16 -6 -9 44 -42 65 -43 9 -1 36 -3 61 -5 l45 -3
-40 -7 c-35 -6 -36 -7 -10 -8 42 -2 74 8 70 21 -2 7 10 23 27 36 l31 25 -12
-25 c-11 -21 -11 -22 2 -6 19 22 31 97 18 110 -5 5 -7 15 -5 21 7 18 -25 88
-36 81 -6 -4 -7 2 -3 12 3 10 3 15 -2 11 -4 -4 -15 1 -24 10 -9 10 -12 12 -7
5 6 -10 4 -12 -8 -7 -14 5 -20 16 -18 35 1 3 -11 4 -26 2 -17 -3 -23 -1 -15 4
8 6 -8 9 -43 9 -32 -1 -60 -6 -66 -14z"/>
<path d="M5039 5261 c-20 -16 -20 -18 -5 -55 17 -41 22 -101 7 -92 -10 7 -24
-22 -16 -34 3 -5 1 -29 -5 -53 -17 -77 26 -144 90 -139 34 3 102 52 96 69 -3
8 -2 11 3 8 16 -10 23 15 9 32 -9 12 -9 15 0 9 13 -8 15 -2 16 61 1 24 -1 43
-4 43 -8 0 -35 72 -32 83 1 5 -2 6 -8 2 -13 -8 -42 14 -34 26 3 5 -4 9 -15 9
-12 0 -21 3 -21 8 0 4 -13 15 -30 24 -28 16 -31 16 -51 -1z"/>
<path d="M4707 5202 c-11 -10 -39 -17 -81 -20 -46 -3 -70 -10 -81 -22 -9 -10
-23 -16 -30 -14 -7 3 -27 -14 -44 -38 -29 -39 -32 -49 -29 -99 11 -156 203
-226 310 -113 42 45 71 121 76 201 4 62 2 74 -17 94 -26 28 -81 34 -104 11z"/>
<path d="M6652 5999 c2 -8 -6 -14 -22 -14 -14 0 -35 -7 -48 -16 -22 -16 -23
-22 -21 -133 1 -112 2 -116 21 -110 15 4 18 3 13 -6 -6 -9 -3 -9 12 -2 11 6
29 9 40 6 11 -3 27 1 36 10 14 15 16 14 20 -6 2 -13 5 27 6 89 1 120 -3 143
-26 143 -9 0 -13 6 -10 14 3 8 -1 20 -9 27 -12 10 -15 10 -12 -2z"/>
<path d="M8278 5955 c-3 -3 -20 -7 -37 -7 -17 -1 -28 -5 -24 -11 3 -6 1 -7 -5
-3 -6 3 -28 -3 -49 -14 -21 -11 -33 -20 -28 -20 6 0 -9 -10 -33 -22 -24 -13
-41 -27 -38 -35 3 -8 -1 -10 -11 -6 -12 5 -15 2 -10 -10 4 -11 1 -17 -8 -17
-9 0 -12 -6 -8 -16 4 -10 -1 -17 -14 -20 -10 -3 -25 -14 -32 -26 -7 -11 -8
-17 -2 -14 7 4 8 1 5 -8 -3 -9 -10 -14 -15 -11 -4 3 -11 -11 -15 -32 -4 -21
-12 -41 -18 -45 -8 -5 -7 -8 2 -8 9 0 9 -5 3 -17 -27 -49 -29 -127 -5 -187 4
-12 4 -17 -2 -13 -6 3 -9 -18 -9 -51 1 -41 9 -73 29 -114 15 -32 25 -62 21
-68 -3 -5 3 -18 14 -29 11 -11 16 -23 13 -27 -4 -4 -2 -4 5 0 13 7 56 -47 45
-58 -4 -4 0 -6 8 -4 8 2 14 -3 12 -10 -1 -8 1 -11 5 -9 11 6 34 -19 25 -27 -3
-4 2 -4 12 0 14 5 17 4 12 -4 -5 -8 0 -12 13 -12 12 0 30 -9 40 -19 18 -18 65
-39 67 -30 0 2 8 -2 17 -10 10 -7 17 -9 17 -3 0 6 33 9 83 8 54 -2 89 2 103
11 11 7 24 10 29 6 4 -5 4 -2 0 6 -6 11 -4 13 9 8 10 -4 15 -3 11 3 -3 6 1 10
9 10 8 0 31 16 52 35 20 19 34 35 30 35 -4 0 11 18 33 40 40 40 45 50 42 79
-2 7 2 10 7 7 5 -3 7 6 4 19 -2 15 0 25 7 25 6 0 10 3 10 8 -1 4 -1 16 0 27 1
17 3 18 12 5 8 -12 10 -10 5 9 -3 14 -1 30 4 36 5 6 5 29 -1 55 -10 44 -9 77
7 149 5 23 4 32 -4 27 -9 -6 -36 83 -29 102 4 14 -36 92 -44 86 -5 -3 -6 1 -4
8 6 16 -48 81 -59 71 -4 -4 -4 1 0 12 6 14 4 17 -9 12 -10 -4 -14 -2 -12 6 6
16 -72 70 -87 61 -6 -4 -8 -3 -5 3 7 11 -28 27 -52 23 -7 -1 -10 3 -7 8 3 6
-4 10 -17 11 -12 0 -45 4 -72 7 -28 3 -53 3 -57 -1z m69 -330 c3 -166 7 -185
33 -185 29 0 25 -28 -5 -36 -18 -4 -25 -13 -25 -31 0 -31 -34 -28 -38 4 -4 28
-27 33 -149 33 -91 0 -128 9 -110 26 2 3 52 6 111 7 82 2 109 5 116 17 9 13
11 13 20 0 7 -10 10 38 10 148 0 150 1 163 18 160 15 -3 17 -19 19 -143z"/>
<path d="M3838 6992 c11 -7 7 -14 -18 -32 -30 -21 -32 -26 -27 -64 3 -23 2
-75 -3 -116 -6 -41 -11 -108 -12 -149 -2 -70 -1 -75 26 -98 22 -19 26 -27 16
-33 -20 -13 121 -19 905 -40 402 -11 782 -22 845 -25 107 -5 590 -21 1380 -45
184 -5 454 -14 600 -20 146 -5 420 -14 610 -20 412 -12 898 -27 1143 -36 158
-5 176 -4 171 10 -4 10 0 18 10 22 9 3 13 10 10 15 -3 5 3 9 13 10 11 0 13 3
5 6 -6 2 -10 8 -7 13 3 4 -9 13 -26 19 -17 6 -28 15 -25 20 3 5 -2 11 -13 14
-27 7 -47 114 -30 165 7 20 20 43 28 50 8 6 11 12 6 12 -4 0 1 8 11 18 27 24
27 40 1 48 -22 8 -22 8 3 14 28 8 -55 13 -575 35 -192 8 -451 20 -575 25 -256
12 -818 36 -1180 50 -135 5 -290 12 -345 15 -109 6 -671 30 -1070 45 -234 9
-340 14 -895 40 -238 12 -578 26 -830 35 -105 4 -160 3 -152 -3z m1107 -71
c17 -1 17 -3 5 -11 -13 -9 -13 -10 0 -10 12 0 12 -2 2 -8 -9 -6 -6 -12 13 -20
19 -9 25 -19 25 -43 0 -30 -1 -31 -17 -17 -10 8 -31 18 -48 22 l-30 6 25 -16
c14 -8 17 -13 7 -10 -10 3 -24 0 -31 -6 -10 -10 -10 -15 3 -29 9 -9 25 -19 36
-21 11 -2 20 -9 20 -17 0 -8 11 -18 24 -22 19 -8 22 -6 17 6 -3 9 -2 13 4 10
16 -10 50 19 50 42 0 17 6 23 23 23 13 0 29 6 36 13 9 7 11 8 7 1 -4 -8 9 -13
38 -15 24 -2 42 -1 39 4 -2 4 10 7 27 7 19 0 29 -4 25 -10 -4 -7 2 -9 19 -4
15 3 38 0 56 -9 21 -11 30 -12 30 -4 0 8 3 9 8 1 4 -6 16 -16 27 -22 15 -8 16
-11 4 -12 -8 0 -21 6 -28 13 -11 10 -13 9 -7 -6 3 -10 6 -24 6 -30 0 -8 3 -8
8 -2 4 6 16 10 27 10 13 0 21 8 23 21 2 15 15 23 49 32 32 9 48 10 53 2 4 -6
21 -12 38 -14 17 -3 37 -8 43 -12 6 -3 15 0 20 7 7 11 9 10 9 -5 0 -18 1 -18
13 -3 11 16 81 36 135 40 12 1 22 7 22 14 0 6 4 14 9 17 14 9 41 -4 41 -20 0
-8 7 -14 16 -14 10 0 14 -6 11 -14 -4 -10 2 -16 16 -18 29 -4 35 -38 9 -45
-12 -3 -18 -11 -15 -19 5 -15 -21 -47 -31 -37 -3 4 -6 -11 -5 -33 0 -21 3 -33
6 -26 2 6 9 12 14 12 6 0 8 -4 4 -9 -3 -5 -1 -12 5 -16 16 -10 12 -28 -6 -21
-9 3 -12 2 -9 -5 4 -5 16 -9 28 -7 16 2 23 -3 25 -19 3 -21 -1 -23 -41 -23
-41 0 -46 3 -61 34 -9 19 -17 51 -17 73 l-2 38 -7 -35 c-6 -30 -8 -31 -9 -8
-2 37 -11 58 -26 58 -19 0 -45 -45 -47 -82 -1 -22 -3 -15 -8 22 l-7 55 -1 -76
c-2 -75 -3 -76 -26 -72 -15 3 -23 11 -21 21 1 10 0 11 -2 4 -3 -9 -14 -12 -29
-9 -13 2 -21 0 -18 -4 3 -5 -6 -9 -20 -9 -14 0 -26 -5 -26 -10 0 -7 -7 -7 -21
0 -11 7 -26 9 -34 7 -7 -3 -24 1 -39 8 -15 8 -24 10 -21 5 10 -16 -12 -12 -29
5 -17 17 -36 20 -36 5 0 -5 -11 -10 -25 -10 -24 0 -25 2 -26 73 0 56 -2 67
-10 48 -5 -13 -7 -32 -4 -42 4 -11 4 -19 1 -19 -3 0 -10 18 -16 40 -11 40 -30
46 -30 9 0 -29 -18 -23 -23 9 -2 15 -5 -6 -6 -45 -1 -65 -3 -73 -20 -73 -17 0
-21 10 -27 68 -6 50 -9 61 -14 42 l-7 -25 -4 25 c-5 29 -39 41 -40 13 0 -16
-1 -16 -9 2 -6 14 -9 -1 -9 -47 -1 -66 -2 -68 -26 -68 -21 0 -25 5 -26 33 0
17 -3 26 -6 19 -2 -6 -9 -10 -14 -7 -5 4 -6 -1 -3 -9 8 -22 -13 -20 -25 2 -6
10 -11 12 -11 4 0 -7 -11 -17 -25 -24 -13 -6 -23 -14 -21 -17 2 -3 -21 -5 -52
-5 -38 1 -44 0 -18 -3 25 -3 35 -7 27 -12 -7 -5 -31 -4 -53 2 -23 6 -35 13
-28 17 8 5 2 10 -14 14 -22 5 -26 12 -26 42 0 28 3 34 13 27 18 -14 49 -24 43
-14 -3 5 5 11 19 13 14 3 25 1 25 -5 0 -14 15 2 15 16 0 7 -15 22 -35 34 -19
12 -30 23 -25 23 6 1 1 5 -11 10 -23 9 -54 66 -54 100 0 12 14 35 31 51 25 24
41 29 83 30 l51 1 -49 9 c-28 4 -55 5 -60 2 -6 -4 -6 -1 1 8 10 13 36 15 118
10z m1175 -110 c0 -31 11 -51 28 -51 8 0 13 -3 9 -6 -3 -3 1 -14 10 -23 14
-17 16 -17 40 5 14 13 29 21 34 18 5 -3 9 13 9 35 0 34 3 41 20 41 17 0 20 -7
20 -45 0 -25 4 -45 10 -45 5 0 7 -7 3 -16 -5 -13 -2 -15 17 -9 19 6 22 4 17
-9 -9 -23 -3 -20 31 14 44 43 84 41 130 -7 20 -21 33 -30 29 -20 -3 9 -2 17 3
17 6 0 10 -6 11 -12 0 -9 2 -9 6 1 5 11 7 11 14 0 6 -10 9 -6 9 12 0 20 6 28
24 31 18 4 23 1 19 -9 -4 -11 -1 -12 22 -1 20 9 34 9 56 1 16 -6 29 -7 29 -2
0 5 5 9 11 9 5 0 7 -4 4 -10 -8 -13 -2 -13 30 2 35 16 72 -3 90 -45 8 -17 14
-25 15 -16 0 12 7 15 24 12 16 -3 28 2 39 17 12 17 26 23 57 24 55 1 90 -36
90 -95 l0 -39 -42 0 c-34 -1 -39 -3 -25 -11 9 -5 22 -7 27 -4 6 4 7 -2 1 -17
-6 -16 -16 -23 -34 -23 -14 1 -23 -3 -20 -8 6 -9 45 -5 76 8 13 6 17 2 17 -18
0 -27 -20 -37 -78 -37 -25 0 -43 9 -68 34 -19 19 -34 28 -34 21 0 -8 -5 -17
-12 -21 -7 -5 -9 -2 -5 9 4 11 2 14 -7 11 -8 -3 -13 -13 -12 -22 1 -11 -8 -18
-21 -20 -22 -3 -23 -1 -23 80 0 46 -5 90 -10 98 -7 11 -8 6 -4 -17 6 -30 5
-32 -25 -31 -17 1 -32 6 -33 12 -1 6 -4 -23 -7 -64 -5 -61 -9 -75 -23 -78 -15
-3 -18 4 -19 40 0 44 -16 136 -18 107 -1 -14 -7 -16 -36 -9 l-35 8 0 -69 c0
-62 -2 -69 -20 -69 -17 0 -20 7 -21 43 -1 32 -3 36 -8 17 -3 -14 -14 -26 -23
-28 -13 -2 -16 2 -11 15 4 10 -6 3 -21 -14 -44 -52 -118 -44 -150 15 -11 19
-15 22 -16 10 0 -22 -27 -13 -33 10 -3 10 -5 0 -6 -20 -1 -34 -4 -38 -26 -38
-24 0 -25 2 -26 68 -1 37 -3 59 -6 50 -3 -14 -8 -15 -23 -6 -10 6 -16 18 -13
25 4 9 -4 13 -23 13 -22 0 -25 -3 -14 -10 13 -8 12 -11 -5 -24 -14 -10 -22
-11 -27 -3 -4 6 -8 -15 -10 -48 -3 -52 -6 -60 -23 -60 -19 0 -20 8 -23 158 -2
152 -2 157 18 157 13 0 20 -7 20 -19z m3030 -92 c0 -5 7 -9 15 -9 8 0 15 -5
15 -11 0 -5 -6 -7 -12 -3 -7 4 -9 3 -5 -2 4 -4 18 -9 30 -9 18 0 22 -6 22 -33
0 -18 5 -36 11 -40 17 -11 47 -80 39 -92 -3 -5 1 -13 9 -16 19 -7 21 -41 4
-46 -7 -3 -13 -15 -13 -29 0 -15 -5 -23 -14 -21 -7 1 -19 -5 -27 -15 -13 -17
-15 -17 -30 2 -8 11 -22 19 -30 17 -8 -2 -17 4 -20 13 -3 8 -12 15 -18 15 -7
0 -18 12 -24 26 -10 20 -17 24 -33 19 -27 -9 -40 10 -32 47 4 21 2 28 -11 28
-20 0 -22 48 -3 56 8 3 14 18 15 34 1 41 9 51 38 44 19 -5 24 -2 24 14 0 21
17 32 38 24 6 -2 12 -8 12 -13z m-500 -9 c9 -5 19 -5 27 2 9 7 29 -3 76 -41
80 -63 96 -81 73 -81 -13 0 -16 -13 -16 -80 l0 -80 -30 0 c-22 0 -33 6 -40 23
-5 13 -9 16 -10 7 -1 -10 -4 -9 -10 5 -8 17 -9 16 -9 -9 l-1 -28 -60 4 c-33 2
-63 8 -67 12 -4 4 -9 41 -11 82 -2 40 -8 71 -13 68 -5 -3 -9 2 -9 10 0 9 4 16
10 16 5 0 12 11 16 25 3 14 10 25 15 25 5 0 9 11 9 25 0 26 22 33 50 15z"/>
<path d="M1941 5019 c-51 -48 -53 -105 -6 -209 19 -43 35 -86 35 -96 0 -11 5
-26 10 -34 10 -14 7 13 -6 60 -3 13 -2 13 8 -1 35 -43 99 -24 91 28 -2 15 -8
69 -13 118 -8 80 -12 92 -36 111 -14 12 -34 21 -43 20 -9 0 -15 5 -13 12 3 17
-1 15 -27 -9z"/>
<path d="M8461 3586 c-18 -10 -20 -15 -10 -20 8 -3 5 -4 -7 -1 -20 5 -36 -8
-74 -59 -10 -13 -10 -17 -2 -12 8 5 12 -2 13 -26 1 -18 0 -37 -1 -43 -1 -5 2
-7 6 -2 4 4 15 0 25 -9 9 -8 47 -26 83 -38 36 -13 75 -34 87 -47 11 -13 17
-17 13 -9 -7 13 -5 13 8 2 9 -8 15 -19 12 -27 -3 -7 -1 -16 5 -20 6 -3 11 -1
11 6 0 6 8 2 18 -9 13 -16 22 -18 39 -12 18 7 23 20 29 72 6 51 9 58 16 38 5
-16 5 -6 2 25 -6 55 -51 144 -80 160 -10 5 -30 18 -43 28 -29 21 -115 23 -150
3z"/>
<path d="M3377 2886 c-20 -12 -35 -25 -31 -28 3 -4 -5 -9 -18 -13 -13 -3 -43
-17 -68 -30 -25 -13 -63 -26 -85 -30 -79 -14 -140 -39 -167 -67 -23 -26 -27
-27 -31 -11 -8 32 -6 -176 4 -402 5 -121 10 -256 11 -300 l0 -80 7 72 c3 39 9
74 12 77 3 4 9 -22 12 -56 3 -35 13 -124 21 -198 9 -74 16 -175 16 -225 0 -49
3 -114 7 -143 5 -46 9 -53 27 -51 12 1 37 0 56 -4 19 -3 82 -11 139 -18 72 -9
98 -15 85 -21 -23 -10 124 -2 350 18 l169 16 44 41 c52 49 52 55 14 210 -26
102 -34 121 -62 145 -34 28 -64 41 -114 47 -82 9 -120 27 -167 77 -26 27 -50
60 -54 72 -3 11 -15 30 -25 42 -21 23 -28 105 -14 159 7 25 84 115 100 115 2
0 27 14 54 30 26 17 64 35 82 42 19 6 50 26 69 44 19 18 52 49 73 68 34 33 43
36 95 36 31 -1 127 -9 212 -18 85 -10 166 -15 180 -12 24 5 32 24 18 45 -19
30 -18 262 1 251 4 -3 7 3 8 12 2 26 9 51 15 57 3 4 4 15 1 25 -6 21 -22 20
-168 -12 -49 -11 -106 -24 -127 -28 -47 -9 -170 -61 -183 -77 -5 -7 -30 -21
-55 -31 -44 -18 -46 -18 -107 2 -35 12 -73 30 -86 41 -33 31 -114 85 -125 85
-6 0 -12 6 -15 14 -6 14 -81 37 -119 35 -13 0 -40 -11 -61 -23z"/>
<path d="M2810 2710 c-14 -4 -92 -20 -175 -36 -82 -15 -153 -33 -157 -38 -4
-6 -8 -7 -8 -1 0 5 -5 4 -11 -2 -6 -6 -19 -9 -28 -6 -11 4 -8 -2 8 -20 29 -32
20 -35 -20 -6 -16 11 -29 16 -29 10 0 -6 -11 -11 -25 -11 -14 0 -34 -9 -44
-19 -11 -11 -22 -17 -24 -14 -3 2 -10 -17 -15 -44 -6 -26 -14 -56 -17 -66 -6
-13 -3 -16 11 -10 12 4 15 3 10 -5 -4 -7 -13 -12 -20 -12 -7 0 -21 -7 -32 -15
-16 -13 -13 -13 20 1 54 22 111 59 162 106 58 54 56 40 -3 -24 -59 -63 -182
-145 -231 -154 -30 -6 -33 -8 -17 -14 18 -7 16 -9 -15 -24 -19 -9 -27 -14 -17
-11 11 3 16 1 11 -6 -3 -6 -14 -9 -24 -6 -25 6 -14 -20 11 -28 15 -5 19 -16
19 -56 0 -27 -4 -49 -10 -49 -5 0 -10 9 -10 20 0 13 -5 18 -15 14 -8 -4 -15
-12 -15 -20 0 -21 -30 -17 -31 4 0 10 -3 12 -6 4 -2 -6 -9 -10 -14 -6 -5 3 -9
0 -9 -6 0 -7 -21 -33 -47 -58 -73 -71 -92 -135 -93 -310 0 -144 8 -164 53
-126 16 13 35 24 43 24 8 0 14 4 14 10 0 14 59 42 72 34 6 -4 8 -3 5 3 -4 6 0
14 9 17 20 8 94 -14 94 -27 0 -5 7 -6 16 -3 8 3 13 2 10 -3 -3 -5 6 -12 21
-15 30 -8 123 -100 123 -123 0 -8 5 -11 10 -8 6 3 10 5 10 3 18 -226 20 -239
41 -278 13 -22 26 -40 31 -40 4 0 4 -7 1 -17 -5 -11 -3 -14 6 -8 10 6 11 3 2
-14 -7 -11 -16 -21 -22 -21 -6 0 -7 -4 -4 -10 4 -6 -1 -7 -11 -3 -11 4 -15 2
-11 -4 9 -14 -10 -21 -75 -28 -67 -8 -108 -24 -108 -41 0 -7 -6 -17 -12 -21
-23 -14 -39 -51 -25 -56 7 -3 4 -6 -5 -6 -10 -1 -18 -5 -18 -10 0 -4 -10 -7
-22 -6 -13 1 -32 3 -43 4 l-20 2 20 16 c17 13 17 15 2 10 -23 -8 -53 22 -49
48 2 15 1 17 -6 6 -8 -11 -11 -10 -19 4 -7 13 -25 18 -64 21 -106 6 -137 14
-142 40 -2 13 3 30 12 40 9 9 10 14 4 10 -15 -8 -18 10 -3 19 13 8 13 106 0
139 -12 33 -19 33 -76 -6 -41 -27 -56 -32 -113 -32 -59 -1 -75 4 -150 42 -77
40 -116 73 -201 170 -11 12 -20 29 -20 37 0 7 -5 17 -10 20 -17 11 -37 -54
-50 -160 -7 -55 -14 -102 -16 -104 -2 -2 -5 34 -6 80 0 46 -3 68 -6 49 -7 -62
18 -882 29 -901 15 -29 65 -51 102 -44 18 3 102 12 187 20 85 8 380 37 655 65
275 28 547 55 605 61 58 5 193 19 300 30 107 11 242 24 300 29 58 6 146 15
195 20 50 6 185 19 300 31 277 27 422 46 368 48 -42 1 -57 16 -28 27 8 4 15
12 15 19 0 11 -49 55 -90 80 -9 6 -40 36 -68 67 -55 62 -71 102 -81 207 -6 60
-8 65 -41 83 -19 10 -34 23 -32 28 1 6 -10 10 -25 10 -35 0 -441 -38 -508 -47
-45 -6 -47 -8 -20 -13 26 -5 15 -10 -75 -39 -58 -18 -111 -35 -117 -37 -7 -2
-13 -12 -13 -23 0 -23 -30 -37 -41 -19 -11 17 -12 13 -34 -72 -10 -41 -26 -93
-36 -114 l-18 -40 -4 40 c-2 21 -4 0 -5 -48 -2 -76 -12 -111 -28 -96 -2 3 -8
38 -13 79 -5 41 -9 63 -10 49 -2 -24 -2 -24 -13 -5 -7 11 -22 54 -33 95 -15
50 -26 74 -35 72 -11 -3 -11 0 -1 12 9 11 9 16 0 22 -8 5 -9 3 -4 -6 6 -9 4
-11 -5 -5 -10 6 -9 11 6 23 14 10 15 16 6 19 -10 4 -10 8 -1 19 8 9 14 120 20
341 5 181 13 355 18 388 5 33 11 69 12 80 1 11 6 -14 10 -55 4 -41 5 89 3 290
-5 399 -9 457 -29 440 -9 -8 -17 -6 -28 5 -17 16 -38 18 -77 5z m-760 -1713
c0 -31 0 -31 15 -9 13 17 26 22 63 21 70 0 175 8 195 16 34 14 47 -2 47 -55 0
-32 -4 -49 -10 -45 -5 3 -10 22 -10 41 0 24 -5 34 -15 34 -8 0 -15 -5 -15 -11
0 -5 5 -7 10 -4 6 3 10 -4 10 -17 0 -18 -2 -20 -10 -8 -8 12 -10 9 -10 -12 0
-18 -5 -28 -15 -28 -11 0 -15 11 -15 41 0 55 -24 47 -28 -10 -4 -52 -26 -51
-30 2 -3 40 -3 40 -26 31 -10 -4 -16 -18 -16 -40 0 -37 -19 -48 -21 -11 -1 12
-1 25 0 30 0 4 -3 7 -9 7 -5 0 -10 -15 -10 -33 0 -32 -2 -34 -39 -35 -22 -1
-43 3 -46 8 -11 19 6 50 31 56 14 4 23 9 20 12 -3 2 -19 -1 -36 -8 -24 -10
-30 -19 -30 -41 0 -19 -5 -29 -15 -29 -10 0 -15 10 -15 30 0 17 -4 30 -9 30
-5 0 -11 9 -14 20 -3 11 -1 20 3 20 5 0 11 -8 13 -17 3 -10 5 -4 6 13 2 55 31
56 31 1z"/>
<path d="M7664 2495 l30 -13 -32 -7 c-18 -3 -30 -11 -27 -16 3 -4 -4 -16 -16
-26 -12 -10 -29 -25 -37 -34 -8 -9 -25 -29 -38 -43 -32 -35 -42 -55 -53 -107
-8 -37 -7 -49 9 -77 11 -18 20 -39 20 -46 0 -8 15 -16 37 -18 29 -4 42 0 60
18 13 13 23 28 23 33 0 5 8 16 18 23 9 7 28 36 41 63 46 96 63 115 99 115 18
0 43 -5 55 -11 16 -9 22 -9 25 0 5 15 31 41 42 41 5 0 11 -8 13 -17 4 -17 5
-17 6 0 1 11 -11 23 -31 32 -115 50 -252 105 -262 104 -6 0 2 -6 18 -14z"/>
<path d="M4896 2143 c-3 -3 -6 -13 -5 -22 0 -12 3 -11 9 4 7 15 9 16 9 4 1 -9
-6 -22 -14 -29 -13 -11 -18 -8 -17 10 0 3 -21 3 -46 0 -46 -4 -46 -5 -10 -8
20 -2 42 -10 49 -18 10 -13 8 -13 -15 -5 -17 7 -26 7 -26 1 0 -6 5 -10 12 -10
6 0 9 -2 6 -5 -8 -9 -38 6 -32 16 3 5 0 9 -5 9 -6 0 -11 -5 -11 -11 0 -6 -7
-3 -16 5 -20 21 -41 21 -24 1 14 -16 3 -20 -19 -6 -7 5 -10 14 -7 20 4 6 1 11
-6 11 -9 0 -9 3 2 10 11 7 6 8 -19 5 -41 -5 -43 -7 -36 -36 6 -26 56 -53 114
-63 38 -7 154 21 145 35 -3 5 2 6 10 3 9 -3 16 -1 16 5 0 6 -4 11 -10 11 -5 0
-10 6 -10 14 0 9 7 12 19 9 10 -3 22 1 26 8 6 9 2 11 -13 7 -14 -4 -22 -1 -25
11 -4 14 -5 14 -6 -1 -1 -21 -21 -24 -21 -4 0 17 -14 28 -24 19z"/>
<path d="M6180 2120 c-8 -4 -53 -27 -100 -49 -75 -36 -93 -41 -155 -41 -74 1
-170 12 -245 30 -71 17 -113 21 -135 11 -11 -5 -28 -12 -38 -15 -25 -8 -37
-47 -37 -120 0 -42 5 -67 14 -75 8 -7 17 -23 20 -36 11 -43 64 -87 164 -136
34 -17 60 -35 56 -40 -9 -14 54 -37 126 -45 36 -4 72 -8 80 -10 8 -1 22 -3 30
-4 8 -1 2 -6 -15 -11 -36 -10 89 -4 280 13 106 10 124 13 100 21 -27 9 -23 12
61 34 69 19 309 59 369 63 6 0 17 5 25 10 12 8 13 12 1 19 -10 7 -11 13 -2 30
7 12 16 19 22 16 5 -4 12 2 16 11 4 10 2 19 -5 22 -7 2 -12 8 -12 14 0 6 8 7
18 3 13 -5 14 -4 5 6 -7 6 -31 14 -54 16 -24 2 -60 10 -81 18 -28 9 -50 10
-81 3 -23 -5 -69 -7 -102 -3 -33 4 -88 7 -122 7 -54 0 -63 3 -63 18 0 13 9 20
28 23 25 4 25 4 -5 6 -26 1 -33 5 -33 21 0 34 -32 101 -45 96 -10 -3 -12 6 -8
37 3 26 1 37 -4 30 -7 -10 -13 -10 -29 2 -22 17 -24 17 -44 5z"/>
<path d="M8734 1984 c19 -18 20 -26 6 -40 -8 -8 -6 -15 4 -23 8 -7 12 -19 9
-27 -3 -8 6 -26 21 -41 19 -18 23 -29 15 -34 -7 -4 28 -5 77 -2 49 3 91 7 92
9 2 1 -15 12 -38 24 -23 12 -75 50 -115 86 -41 35 -77 64 -80 64 -4 0 1 -7 9
-16z"/>
<path d="M7350 1823 c-8 -3 -23 -15 -34 -25 -14 -15 -27 -18 -55 -14 -34 5
-34 5 -8 -5 15 -6 27 -17 27 -25 0 -10 11 -12 43 -9 23 2 65 7 92 9 66 7 130
26 119 35 -30 27 -145 48 -184 34z"/>
<path d="M8900 1788 c-52 -5 -102 -14 -110 -20 -12 -7 -11 -8 5 -3 13 4 5 -7
-20 -30 -29 -26 -40 -45 -42 -68 -3 -55 -10 -91 -22 -120 -6 -16 -11 -30 -11
-33 0 -11 -45 -47 -71 -56 -16 -5 -29 -14 -29 -19 0 -4 -15 -12 -32 -18 -18
-5 -58 -19 -88 -31 -71 -28 -131 -39 -239 -41 -49 -1 -106 -8 -127 -15 -49
-17 -57 -17 -48 -1 4 6 -2 4 -14 -6 -22 -20 -138 -35 -127 -17 6 9 0 11 -44
14 -8 1 -16 7 -19 14 -2 6 -8 9 -13 6 -6 -3 -15 -1 -22 4 -18 15 -77 20 -77 7
0 -6 -8 -12 -17 -13 -68 -7 -135 -32 -129 -49 3 -7 1 -13 -4 -13 -6 0 -10 5
-10 10 0 6 -4 10 -10 10 -5 0 -9 -3 -9 -7 3 -21 -2 -34 -11 -28 -6 4 -7 11 -4
17 4 7 2 8 -5 4 -6 -4 -9 -11 -6 -16 3 -4 -10 -7 -27 -6 -48 4 -50 5 -43 16 3
5 -3 15 -15 22 -11 7 -20 21 -20 31 0 10 5 15 10 12 6 -4 2 8 -10 27 -11 18
-20 42 -20 54 0 23 35 100 49 109 6 3 8 12 4 20 -3 8 0 15 7 15 6 0 8 -4 5
-10 -3 -5 -2 -10 4 -10 14 0 30 32 29 56 -2 25 -25 28 -103 13 -76 -14 -116
-29 -109 -40 3 -5 0 -9 -6 -9 -7 0 -5 -9 4 -22 9 -12 16 -29 16 -38 0 -13 -1
-13 -10 0 -5 8 -10 10 -10 4 0 -5 7 -19 16 -30 8 -10 13 -13 9 -6 -3 6 2 20
11 29 16 17 17 16 10 -10 -3 -15 -3 -27 1 -27 5 0 9 -31 9 -70 1 -38 -2 -67
-7 -64 -12 7 -11 -13 2 -38 6 -12 7 -18 1 -14 -5 3 -19 -13 -30 -36 -28 -60
-14 -88 42 -88 41 -1 41 -1 16 -16 l-25 -15 30 5 c17 3 71 8 120 11 108 7 360
32 830 80 77 8 195 20 263 26 l122 12 0 63 c0 214 111 369 314 438 19 6 19 7
0 21 -10 8 -23 14 -29 13 -5 0 -53 -5 -105 -10z"/>
<path d="M9408 1590 c20 -23 14 -35 -8 -15 -21 19 -29 8 -9 -12 13 -13 3 -36
-12 -28 -5 4 -9 16 -9 27 0 21 0 21 -20 3 -12 -10 -19 -24 -16 -31 3 -9 -1
-11 -11 -7 -12 5 -15 2 -10 -10 3 -9 1 -19 -5 -23 -6 -4 -9 -3 -6 2 3 5 -1 16
-10 24 -14 13 -15 12 -9 -2 3 -9 -1 -22 -9 -29 -16 -13 -16 -13 -32 16 -7 12
-12 15 -12 6 0 -11 -5 -10 -20 4 -20 18 -21 18 -14 -1 4 -10 14 -28 23 -38 9
-11 10 -16 3 -12 -19 11 -52 -3 -52 -22 0 -15 -2 -15 -10 -2 -7 11 -4 17 10
24 11 5 20 13 20 18 0 11 -33 6 -42 -7 -4 -6 -14 -2 -23 10 -9 11 -14 14 -10
8 3 -7 3 -18 -1 -25 -13 -20 -14 -59 -2 -52 7 4 8 2 4 -4 -4 -6 -13 -9 -21 -5
-17 6 -20 -8 -4 -24 7 -7 6 -12 -5 -16 -9 -4 -16 -3 -16 2 0 5 -9 11 -20 14
-23 6 -26 -3 -7 -22 10 -10 9 -11 -4 -6 -10 4 -20 1 -25 -6 -4 -8 -3 -10 4 -5
7 4 12 4 12 1 0 -9 -27 -35 -32 -30 -2 2 -4 -4 -4 -15 0 -10 4 -17 7 -14 4 2
10 0 14 -6 3 -5 0 -10 -7 -10 -7 0 -2 -10 12 -21 l25 -21 -35 21 c-92 54 -87
52 -105 35 -11 -12 -14 -25 -9 -48 3 -17 7 -35 8 -41 0 -5 4 -12 8 -15 3 -3 2
-27 -3 -53 -6 -32 -5 -56 1 -68 8 -14 7 -19 -2 -19 -9 0 -9 -3 0 -12 16 -16
15 -28 -2 -28 -9 0 -12 -9 -9 -27 6 -37 4 -81 -4 -118 -9 -43 -10 -74 -1 -88
4 -6 1 -18 -5 -26 -10 -12 -9 -13 3 -6 9 5 7 0 -4 -14 -20 -22 -20 -22 1 -27
14 -4 19 -12 16 -24 -3 -10 0 -21 6 -24 17 -11 13 -29 -4 -22 -13 4 -14 2 -5
-14 7 -13 7 -20 1 -20 -10 0 -7 -32 4 -49 3 -5 1 -12 -5 -16 -5 -3 -10 -15
-10 -26 0 -10 -5 -19 -12 -19 -6 0 -9 -3 -6 -6 4 -3 0 -21 -8 -39 -8 -19 -14
-39 -14 -44 0 -14 60 -42 73 -34 6 4 8 0 4 -11 -6 -14 -4 -15 16 -5 l22 12
-20 -22 c-11 -12 -15 -22 -10 -21 24 5 33 -1 28 -19 -3 -10 1 -22 8 -26 7 -5
10 -4 5 3 -3 6 -1 14 5 18 8 4 9 3 5 -4 -4 -7 -1 -12 6 -12 10 0 9 -3 -2 -10
-8 -5 -11 -12 -7 -16 4 -4 1 -14 -6 -22 -8 -11 -3 -10 18 3 l30 19 -25 -30
c-14 -16 -18 -23 -10 -17 21 19 34 16 19 -4 -12 -16 -12 -17 2 -6 8 7 25 9 38
6 17 -4 19 -8 9 -14 -10 -7 -9 -9 4 -9 11 0 15 -6 11 -20 -3 -11 -10 -17 -16
-13 -6 3 -7 1 -3 -5 5 -9 13 -9 28 -1 18 10 20 9 14 -6 -5 -13 -2 -16 11 -11
15 5 15 4 -1 -9 -11 -8 -28 -13 -38 -9 -10 3 -18 1 -18 -4 0 -18 13 -20 47 -5
29 12 35 12 30 1 -2 -8 2 -23 10 -33 12 -15 14 -16 10 -3 -4 12 -1 16 12 15
11 0 17 -7 14 -13 -2 -7 0 -22 7 -33 11 -21 13 -21 615 -21 332 0 610 3 619 6
9 4 16 18 16 33 0 46 -59 260 -85 309 -35 66 -33 76 25 94 l49 16 5 -32 c3
-17 7 -63 10 -102 2 -38 12 -101 22 -140 9 -38 21 -86 26 -106 l9 -38 34 14
c54 23 123 74 130 96 4 13 -5 39 -28 78 -19 31 -58 104 -87 162 -29 58 -86
161 -128 228 -41 68 -85 149 -98 180 -21 51 -29 60 -81 87 -32 17 -92 54 -134
83 -42 28 -91 58 -110 66 -39 17 -113 68 -150 105 -33 34 -109 138 -109 150 0
5 -27 38 -59 74 -33 36 -78 90 -100 121 -23 30 -51 61 -64 67 -18 9 -20 9 -9
-2 15 -16 16 -33 1 -24 -5 4 -15 18 -20 32 -5 14 -12 23 -16 19 -3 -3 -12 -1
-20 5 -7 6 -13 8 -13 4 0 -4 -8 -1 -17 6 -15 11 -16 11 -5 -1z m138 -726 c18
-5 22 -16 27 -71 4 -36 11 -70 16 -77 5 -6 12 -40 15 -76 4 -36 11 -83 16
-105 5 -22 14 -60 19 -85 6 -25 17 -77 24 -117 12 -64 12 -71 -2 -63 -19 10
-78 75 -92 102 -5 10 -14 85 -20 166 -8 125 -23 208 -55 315 -6 18 12 22 52
11z"/>
<path d="M6125 1544 c-66 -7 -145 -13 -175 -14 -41 -2 -49 -4 -30 -9 22 -7 20
-9 -20 -16 -25 -5 -47 -9 -50 -10 -3 -1 -21 -5 -40 -9 -206 -46 -260 -62 -260
-76 0 -5 -8 -16 -17 -26 -16 -15 -18 -36 -15 -167 2 -123 0 -152 -12 -166 -9
-9 -17 -28 -18 -42 -3 -21 2 -24 30 -27 17 -2 32 -8 32 -14 0 -6 -10 -8 -25
-4 -14 4 -25 2 -25 -4 0 -6 25 -10 58 -10 52 1 55 2 38 15 -11 8 -15 15 -9 15
7 0 15 -5 19 -11 8 -13 28 -12 513 37 190 19 351 34 358 34 7 0 13 5 13 10 0
6 -22 8 -57 5 -57 -4 -57 -4 -11 4 50 10 95 30 68 31 -12 0 -11 4 4 15 16 12
17 15 4 20 -8 3 -15 11 -15 18 0 7 -4 45 -7 85 -5 52 -4 72 5 72 6 0 9 9 6 20
-3 11 -2 20 3 20 4 0 4 18 -1 41 -10 45 -2 110 15 121 6 4 -9 9 -34 10 -57 2
-71 4 -90 11 -8 3 -33 9 -55 12 -33 6 -37 9 -20 15 29 12 -36 10 -180 -6z
m156 -89 c11 8 57 -38 68 -68 6 -14 9 -43 7 -64 -3 -34 2 -42 45 -81 28 -26
46 -51 44 -60 -10 -51 -18 -71 -32 -76 -10 -4 -13 -2 -10 8 4 10 0 12 -14 9
-10 -3 -25 0 -33 6 -11 9 -16 9 -22 0 -4 -7 -3 -9 3 -6 6 4 16 0 23 -8 11 -13
9 -14 -11 -7 -13 5 -24 14 -24 20 0 16 -54 54 -80 56 -13 0 -21 3 -19 6 3 2
-14 9 -38 15 -79 19 -111 110 -69 193 26 52 74 75 125 61 16 -5 32 -6 37 -4z
m-448 -55 c8 -11 17 -17 22 -12 5 4 5 1 1 -5 -6 -11 81 -189 121 -248 32 -47
24 -51 -144 -68 -193 -21 -193 -21 -193 -1 0 9 23 64 51 122 28 59 52 117 53
129 0 11 4 19 7 17 10 -6 19 24 13 44 -4 12 -3 13 3 4 7 -9 12 -6 21 13 14 30
26 32 45 5z"/>
<path d="M5870 1246 c9 -23 5 -36 -11 -36 -5 0 -5 7 -2 17 4 11 3 14 -5 9 -7
-4 -12 -18 -12 -31 0 -13 -5 -27 -10 -30 -8 -5 -7 -11 1 -21 16 -19 4 -44 -22
-44 -18 0 -21 4 -16 28 3 15 2 43 -3 62 -6 25 -8 28 -9 12 -1 -15 -5 -21 -13
-16 -6 4 -17 -1 -25 -11 -17 -25 -16 -7 2 25 8 14 14 30 14 35 0 12 -37 -57
-56 -105 -12 -32 -12 -33 2 -16 8 11 15 23 15 26 0 4 7 7 14 7 12 0 13 -5 4
-21 -10 -19 -8 -18 18 4 16 14 23 18 17 10 -15 -17 -17 -34 -3 -25 6 3 10 2
10 -4 0 -5 -10 -12 -22 -15 -13 -2 20 -2 72 1 52 2 97 7 100 10 3 2 -4 11 -14
19 -11 8 -15 14 -8 14 6 0 18 -10 28 -22 14 -20 16 -21 10 -3 -9 26 -76 145
-81 145 -3 0 0 -11 5 -24z"/>
</g>
</svg>
