<?xml version="1.0" standalone="no"?>
<!DOCTYPE svg PUBLIC "-//W3C//DTD SVG 20010904//EN"
 "http://www.w3.org/TR/2001/REC-SVG-20010904/DTD/svg10.dtd">
<svg version="1.0" xmlns="http://www.w3.org/2000/svg"
 width="1000.000000pt" height="667.000000pt" viewBox="0 0 1000.000000 667.000000"
 preserveAspectRatio="xMidYMid meet">
<metadata>
Created by potrace 1.16, written by Peter Selinger 2001-2019
</metadata>
<g transform="translate(0.000000,667.000000) scale(0.100000,-0.100000)"
fill="#000000" stroke="none">
<path d="M104 4667 c0 -1101 -3 -2081 -6 -2177 -6 -177 -4 -200 14 -200 12 0
169 -62 247 -97 30 -14 79 -42 110 -63 31 -21 103 -64 161 -96 119 -66 152
-90 169 -121 9 -19 8 -24 -9 -33 -30 -16 -25 -26 25 -56 81 -47 91 -79 49
-162 -25 -50 -25 -53 -11 -103 14 -45 14 -56 0 -93 -8 -22 -14 -63 -13 -91 3
-139 1 -167 -20 -202 -11 -19 -20 -41 -20 -48 0 -8 -9 -29 -20 -47 -26 -43
-25 -80 4 -138 41 -82 42 -120 5 -243 -5 -17 -4 -27 2 -27 6 0 3 -10 -5 -22
-9 -12 -16 -31 -16 -42 0 -23 -48 -108 -67 -119 -10 -6 -13 -18 -9 -33 4 -13
2 -32 -3 -41 -6 -10 -17 -45 -26 -78 -9 -33 -23 -70 -31 -82 -10 -15 -11 -23
-3 -23 6 0 9 -7 5 -15 -9 -23 3 -42 34 -55 31 -13 70 -88 51 -99 -5 -3 -13
-19 -16 -34 l-7 -27 351 0 352 0 -7 38 c-4 20 -12 55 -20 77 -22 68 -21 86 4
102 21 15 25 13 93 -53 38 -38 84 -90 101 -116 l31 -48 199 0 c216 0 220 1
172 53 -14 16 -23 31 -20 34 3 4 7 4 9 2 32 -42 44 -54 56 -54 8 0 15 -6 17
-13 1 -7 0 -8 -3 -2 -7 15 -23 12 -23 -5 0 -9 9 -15 25 -15 14 0 25 6 25 13 0
16 -50 78 -59 73 -4 -3 -7 4 -7 15 0 10 3 19 6 19 10 0 50 -49 50 -60 0 -6 5
-10 10 -10 6 0 10 -9 10 -20 0 -24 27 -37 43 -21 8 8 6 11 -10 11 -14 0 -23 8
-27 26 -7 27 0 47 8 23 11 -35 16 -42 12 -19 -2 14 -7 33 -11 43 -4 10 -3 17
4 17 7 0 16 -10 21 -22 6 -16 9 -18 9 -7 1 22 -23 41 -41 34 -9 -4 -18 0 -21
9 -9 24 34 16 66 -13 37 -34 35 -12 -3 24 -34 32 -36 40 -16 48 11 4 13 1 9
-10 -5 -13 -2 -15 11 -10 9 4 15 3 12 -1 -2 -4 4 -19 15 -32 12 -15 17 -18 13
-7 -4 10 -1 17 5 17 20 0 -7 39 -39 55 -17 9 -30 20 -30 26 0 6 5 7 10 4 6 -4
17 -1 25 5 11 9 15 9 15 1 0 -6 -4 -11 -10 -11 -19 0 -10 -17 15 -28 36 -17
54 -14 31 3 -23 17 -14 20 14 5 15 -8 18 -7 14 3 -3 8 -16 19 -30 25 -13 7
-24 16 -24 22 0 11 13 7 39 -14 15 -11 71 -18 71 -8 0 3 -10 16 -22 29 -28 30
-11 29 27 -1 l30 -25 -22 -22 c-22 -23 -23 -23 -38 -4 -22 31 -18 7 6 -26 21
-29 14 -39 -11 -16 -8 7 -7 2 3 -15 21 -33 22 -44 3 -29 -11 9 -17 6 -27 -19
-9 -18 -19 -28 -28 -25 -9 4 -11 0 -7 -11 4 -12 2 -15 -9 -10 -8 3 -15 0 -15
-6 0 -6 -7 -20 -17 -30 -15 -17 -13 -18 70 -18 77 0 110 10 75 23 -7 2 -10 7
-7 11 4 4 16 -2 27 -14 15 -16 29 -21 57 -18 l37 3 -36 38 c-34 36 -41 47 -32
47 2 0 25 -21 50 -47 24 -26 48 -45 51 -41 3 3 -1 13 -10 21 -17 17 -19 27 -7
27 5 0 14 -11 20 -25 6 -14 19 -25 28 -25 15 0 15 3 -2 27 -9 15 -26 37 -37
48 -39 41 -37 58 2 18 22 -23 45 -53 51 -67 5 -14 14 -26 20 -26 7 0 7 7 -1
21 -8 16 -8 24 2 33 9 8 10 8 5 -1 -9 -17 11 -53 29 -53 12 0 11 7 -5 37 -11
21 -20 43 -20 49 0 6 -9 19 -21 30 -11 10 -26 28 -31 39 -8 15 -3 12 20 -8 16
-16 38 -49 47 -73 17 -45 29 -54 39 -31 3 6 3 -1 -1 -16 -5 -26 -3 -28 18 -25
13 1 29 14 36 28 7 14 17 24 23 22 15 -3 12 42 -5 64 -15 20 -21 59 -7 50 5
-3 14 -22 21 -44 12 -36 41 -54 41 -25 0 7 5 13 10 13 16 0 12 37 -5 44 -8 3
-15 1 -15 -4 0 -21 -30 -9 -36 14 -4 16 -23 32 -62 52 -31 15 -72 40 -90 56
-18 15 -39 28 -46 28 -7 0 -37 23 -67 50 -51 48 -79 62 -79 40 0 -5 -13 -10
-30 -10 -16 0 -30 4 -30 9 0 5 -12 12 -27 16 -15 3 -31 12 -35 18 -12 20 -20
-1 -8 -23 13 -25 4 -42 -10 -20 -8 12 -10 9 -10 -10 -1 -23 -2 -23 -11 -7 -8
14 -8 22 0 30 22 22 12 57 -21 77 -37 22 -46 19 -30 -13 19 -35 50 -137 43
-137 -4 0 -13 6 -19 12 -13 13 -24 3 -35 -26 -6 -17 -27 5 -27 27 0 21 -51
185 -73 234 -6 12 -14 20 -19 17 -4 -3 -8 0 -8 5 0 6 -4 11 -9 11 -5 0 -7 -10
-4 -22 3 -13 3 -20 -1 -17 -4 4 -8 20 -10 35 -1 16 -8 28 -14 27 -7 -2 -12 4
-12 13 0 10 -6 14 -15 10 -9 -3 -15 0 -15 8 0 13 -97 116 -103 109 -3 -2 -12
9 -22 24 -10 15 -24 33 -30 38 -7 6 -15 18 -18 28 -5 14 -1 17 23 17 41 0 37
12 -13 34 -62 29 -86 49 -87 71 0 23 -23 61 -53 87 -11 10 -15 18 -9 18 7 0
21 -9 32 -20 11 -11 20 -16 20 -11 0 6 -4 12 -10 16 -5 3 -7 11 -4 19 3 7 -13
32 -36 57 -52 58 -52 70 2 19 23 -23 44 -37 47 -33 4 4 11 12 16 17 6 6 4 7
-6 3 -17 -6 -59 30 -59 49 0 5 4 5 8 -1 4 -5 16 -17 26 -25 13 -10 9 1 -12 32
-18 26 -32 49 -32 51 0 2 29 -24 65 -59 72 -70 82 -74 32 -11 -48 59 -55 77
-19 43 41 -38 41 -25 1 25 -48 61 -24 46 57 -35 74 -74 112 -96 48 -28 -22 23
-30 38 -22 41 6 2 14 -1 16 -8 2 -6 8 -11 14 -11 6 0 8 7 4 15 -10 27 11 16
45 -22 39 -46 71 -70 67 -52 -6 23 22 20 47 -5 14 -14 30 -26 36 -26 6 0 7 -4
4 -10 -3 -5 3 -10 14 -10 10 0 21 -6 24 -12 2 -7 8 -10 12 -6 4 3 1 22 -6 41
-6 19 -9 42 -6 51 9 23 37 20 37 -4 0 -22 20 -26 38 -8 6 6 15 8 19 4 4 -4 1
-11 -6 -15 -10 -6 -11 -17 -6 -37 5 -16 7 -36 6 -44 -2 -8 0 -12 4 -8 8 7 85
-70 85 -84 0 -4 7 -8 15 -8 8 0 19 -9 25 -20 9 -16 8 -22 -5 -26 -8 -3 -22 -4
-30 -1 -8 4 -17 2 -20 -3 -5 -8 -31 10 -72 49 -29 28 -24 1 6 -31 31 -33 26
-52 -7 -26 -15 12 -16 11 -3 -5 7 -9 23 -17 35 -17 20 0 146 -56 156 -70 3 -3
20 -12 38 -19 20 -9 32 -20 32 -32 0 -13 6 -18 21 -16 12 1 24 -3 26 -10 3 -8
-6 -11 -24 -10 -22 2 -27 -2 -25 -16 3 -15 -1 -17 -20 -11 -20 6 -21 5 -9 -9
7 -9 29 -19 48 -23 33 -6 42 -15 47 -47 1 -8 8 -22 15 -31 7 -9 10 -16 6 -16
-4 0 -2 -6 4 -14 6 -8 11 -18 9 -22 -1 -5 6 -21 16 -36 10 -15 15 -31 12 -36
-3 -6 1 -15 10 -22 12 -10 12 -15 2 -21 -9 -6 -8 -10 5 -15 9 -3 17 -12 17
-20 0 -7 10 -20 23 -29 16 -13 18 -18 8 -22 -26 -10 91 -60 139 -59 l45 1 -3
65 c-2 36 -9 72 -16 80 -7 8 -22 38 -33 66 -20 50 -20 51 -2 47 10 -3 19 -12
19 -20 0 -16 77 -135 110 -171 18 -19 41 -28 122 -46 22 -5 25 -3 21 14 -4 13
0 20 10 20 15 0 16 43 2 118 -3 22 -2 31 5 27 5 -3 10 -14 10 -24 0 -10 11
-23 25 -29 83 -38 154 38 155 162 0 55 -1 58 -15 40 -9 -12 -12 -32 -9 -55 5
-28 1 -41 -17 -62 -22 -24 -26 -26 -49 -14 -15 8 -26 23 -28 39 -2 15 -10 32
-18 39 -13 10 -13 14 1 29 14 15 14 22 -2 69 -10 32 -29 63 -50 81 -23 21 -33
38 -33 58 0 32 -26 92 -40 92 -5 0 -7 6 -4 13 3 8 -2 20 -11 27 -12 10 -18 10
-32 -1 -11 -9 -14 -10 -9 -2 4 8 -4 27 -18 46 -15 19 -26 39 -26 45 0 7 -6 12
-13 12 -11 0 -57 85 -57 106 0 12 -62 105 -85 128 -46 46 -207 77 -272 53 -18
-7 -23 -5 -23 8 0 10 -5 15 -13 12 -6 -3 -20 -8 -30 -12 -11 -5 -17 -2 -17 8
0 8 -6 20 -14 26 -11 9 -18 6 -33 -14 -13 -18 -24 -24 -36 -19 -9 3 -15 9 -12
13 9 16 13 111 4 116 -5 4 -9 -5 -9 -19 0 -14 -4 -26 -10 -26 -5 0 -10 -9 -10
-20 0 -11 -6 -20 -13 -20 -7 0 -29 -8 -49 -18 -30 -16 -43 -17 -81 -8 -40 9
-46 14 -52 42 -3 20 -13 34 -26 37 -16 4 -18 11 -13 32 5 22 3 27 -16 32 -15
4 -20 11 -17 24 3 12 -2 20 -14 24 -14 5 -18 12 -14 26 5 15 1 19 -15 19 -16
0 -20 5 -16 15 3 9 -3 19 -14 25 -11 6 -20 17 -20 25 0 8 -4 15 -10 15 -5 0
-10 -4 -10 -10 0 -5 -12 2 -26 15 -15 14 -31 25 -37 25 -5 0 -4 6 2 14 10 12
3 15 -40 21 -38 5 -53 12 -56 26 -3 10 -9 19 -14 19 -5 0 -9 7 -9 15 0 10 -10
15 -28 15 -16 0 -32 8 -40 20 -7 11 -22 20 -33 20 -15 0 -19 5 -15 15 3 9 -1
18 -9 21 -10 4 -13 15 -11 31 4 20 2 22 -9 13 -17 -14 -55 7 -55 32 0 20 -19
34 -42 30 -12 -2 -18 3 -18 16 0 12 -15 25 -48 40 -27 12 -54 22 -60 22 -15 0
-15 13 0 28 9 9 9 12 -3 12 -8 1 -3 7 11 15 l25 14 -26 1 c-29 0 -59 28 -59
54 0 11 -6 16 -17 14 -25 -4 -43 10 -43 31 0 9 -12 28 -26 40 -21 18 -28 20
-35 10 -7 -11 -9 -10 -9 4 0 9 -4 17 -10 17 -16 0 -12 37 5 44 18 7 20 26 3
26 -7 0 -39 -13 -71 -29 -32 -15 -60 -24 -63 -19 -3 4 1 8 8 8 7 0 14 11 14
25 1 16 -3 24 -10 22 -6 -3 -10 -9 -9 -15 3 -15 -28 -38 -73 -50 -52 -15 -52
-15 -50 5 1 11 -10 19 -33 24 -36 8 -61 -6 -53 -29 2 -7 -1 -19 -8 -26 -8 -11
-8 -16 1 -21 8 -6 7 -10 -4 -17 -10 -5 -32 -3 -59 7 -24 8 -54 15 -67 15 -19
0 -21 3 -12 14 19 22 -4 29 -38 11 -34 -17 -69 -19 -91 -5 -13 8 -12 11 5 24
18 14 18 15 3 16 -10 0 -18 3 -18 6 0 17 24 46 46 54 32 12 31 32 -1 26 -14
-3 -25 -1 -25 3 0 19 70 83 120 109 30 16 72 39 92 51 55 33 130 36 323 12
260 -32 407 -91 505 -205 30 -35 170 -298 164 -308 -8 -13 165 -185 245 -245
42 -32 81 -62 86 -68 6 -6 39 -28 75 -50 36 -21 82 -49 103 -62 22 -14 41 -23
43 -21 5 5 -43 54 -90 92 -44 36 -71 115 -80 231 -6 89 5 129 23 82 6 -16 11
-42 11 -59 0 -18 28 -88 67 -167 103 -210 151 -279 232 -330 71 -46 208 -94
157 -56 -11 8 -17 15 -13 15 4 0 -2 9 -13 20 -24 24 -34 26 -26 5 9 -25 -9
-17 -43 20 -17 19 -28 35 -25 35 4 0 -3 8 -14 19 -12 10 -22 24 -22 30 0 7 -4
9 -10 6 -5 -3 -10 0 -10 7 0 18 -43 54 -47 41 -5 -15 -49 31 -79 81 -99 166
-140 381 -114 608 21 183 25 186 29 20 5 -236 5 -241 13 -235 5 2 8 -15 8 -39
0 -61 41 -201 80 -278 19 -36 38 -66 42 -68 4 -2 8 -9 8 -16 0 -7 9 -21 20
-31 26 -24 25 -9 -2 35 -18 29 -22 50 -22 125 1 50 5 117 11 150 6 33 13 88
16 123 4 53 3 61 -9 51 -18 -15 -18 -9 2 30 18 36 73 283 94 426 5 33 18 103
29 155 19 88 22 72 6 -45 -5 -39 -4 -38 11 10 28 87 33 94 33 55 0 -19 -4 -55
-9 -80 -6 -25 -14 -86 -20 -136 -5 -49 -12 -99 -16 -110 -7 -16 -5 -17 7 -7
13 11 15 4 11 -50 -3 -34 -9 -65 -14 -68 -5 -3 -10 -10 -10 -15 -1 -14 -4 -26
-16 -63 -7 -19 -8 -37 -3 -40 4 -4 10 -13 13 -21 3 -9 8 0 12 20 4 19 14 50
23 68 8 18 13 39 10 45 -5 13 18 39 26 31 8 -9 -3 -90 -23 -165 -10 -38 -14
-71 -10 -74 5 -3 11 1 13 7 3 8 6 6 6 -4 1 -10 8 -18 17 -18 8 0 12 -4 9 -10
-3 -5 -1 -10 4 -10 6 0 11 9 11 19 0 14 6 19 20 18 11 -1 20 -5 20 -9 0 -18
19 -6 23 15 4 19 4 19 6 -5 1 -24 3 -25 26 -15 31 15 32 44 3 57 -20 9 -18 10
11 7 31 -4 32 -3 15 10 -16 12 -17 15 -4 23 11 7 10 11 -10 19 -26 10 -66 51
-50 51 5 0 7 7 4 15 -4 8 -24 18 -45 21 -21 4 -39 7 -39 8 0 0 7 22 14 48 8
25 11 50 8 54 -4 4 -2 4 5 1 6 -4 14 -1 16 5 4 8 6 7 6 -4 1 -9 -4 -20 -9 -23
-6 -3 -10 -16 -10 -28 0 -17 12 -27 56 -45 31 -13 58 -21 60 -19 11 10 0 314
-11 325 -2 2 -11 -9 -19 -25 -15 -27 -16 -27 -11 -3 2 14 11 54 19 90 21 94
27 137 41 340 3 41 7 86 10 100 2 14 7 54 10 90 12 144 26 231 46 272 l20 43
-6 -55 c-10 -88 -11 -364 -1 -379 5 -8 9 -64 10 -125 0 -61 2 -102 4 -91 4 16
6 15 17 -10 l13 -30 1 38 c1 20 5 37 9 37 15 0 53 179 59 274 4 87 12 299 13
379 0 20 5 37 11 37 5 0 8 -3 6 -7 -3 -5 -7 -121 -8 -260 -2 -138 -7 -249 -11
-247 -3 2 -9 -22 -13 -53 -4 -32 -11 -71 -16 -87 -5 -16 -9 -55 -9 -87 0 -31
-4 -59 -9 -61 -5 -2 -7 -41 -4 -91 3 -49 9 -84 12 -78 4 5 6 -18 6 -52 0 -34
-3 -67 -7 -73 -4 -6 -6 -69 -4 -140 2 -107 -8 -288 -13 -217 0 12 -5 25 -11
28 -5 3 -10 27 -11 53 -1 50 -16 150 -18 119 0 -10 -6 -15 -12 -12 -6 4 -9 1
-8 -6 2 -8 -3 -44 -10 -82 -8 -41 -11 -89 -6 -122 6 -49 9 -56 33 -61 65 -14
67 -15 48 -26 -18 -10 -32 -8 -181 22 -22 4 -48 11 -58 15 -13 5 -16 3 -12 -8
8 -19 -23 -31 -41 -16 -8 6 -25 9 -39 7 -17 -4 -25 -1 -25 9 0 27 -24 7 -33
-26 -12 -46 2 -58 86 -70 71 -11 204 -33 282 -48 22 -4 46 -7 52 -6 7 0 10 -3
7 -9 -3 -5 0 -16 7 -24 17 -21 5 -183 -20 -264 -26 -80 -26 -98 -1 -130 11
-14 20 -32 20 -41 0 -8 7 -24 15 -35 14 -18 15 -17 10 16 -4 22 2 67 15 119
19 72 21 92 11 140 -5 31 -13 94 -16 141 -3 46 -11 87 -17 91 -7 5 -7 8 1 10
7 3 14 31 17 64 3 43 17 89 51 162 l46 102 -19 27 c-10 15 -23 32 -27 38 -6 7
12 32 47 67 31 31 56 54 56 52 0 -1 -9 -20 -20 -40 -22 -41 -25 -68 -10 -78 6
-3 6 -15 0 -29 -5 -15 -5 -37 2 -59 9 -29 8 -40 -5 -61 -15 -23 -15 -26 4 -50
11 -14 28 -26 37 -26 30 0 87 -24 133 -57 69 -49 71 -80 17 -223 -46 -121 -50
-149 -28 -226 25 -88 44 -108 37 -39 -3 28 -3 41 0 30 6 -24 33 -64 33 -50 0
6 -7 32 -15 59 -8 27 -15 56 -14 65 0 9 5 0 11 -19 13 -48 28 -61 28 -26 0 25
2 27 17 15 15 -12 16 -12 10 4 -9 25 -19 76 -11 60 10 -22 24 -14 24 15 0 22
2 24 11 12 8 -11 9 -5 6 25 -3 22 -3 34 0 27 7 -19 23 -4 23 22 0 12 3 26 7
30 4 3 8 16 10 29 5 33 5 210 0 227 -21 80 -35 116 -72 195 -24 51 -51 97 -59
105 -9 7 -16 16 -16 21 0 17 91 9 203 -16 210 -48 261 -57 316 -55 131 5 158
1 192 -27 18 -15 56 -60 85 -99 79 -106 125 -130 274 -139 72 -4 123 -12 137
-21 24 -15 63 -83 63 -107 0 -23 60 -42 135 -42 64 0 79 -4 165 -48 86 -43
102 -47 163 -47 45 0 84 -7 115 -20 26 -10 105 -36 177 -56 l130 -36 48 17
c31 11 61 15 86 11 33 -5 40 -2 60 24 12 17 27 30 33 30 6 0 32 22 57 48 25
26 71 66 102 89 59 44 145 148 155 189 10 38 -2 68 -61 144 -30 40 -66 102
-80 139 -29 76 -38 88 -82 119 -37 26 -47 28 -39 7 3 -8 -9 0 -27 17 -37 37
-63 51 -122 66 -22 5 -60 15 -85 21 -65 17 -90 21 -137 25 -24 1 -46 5 -49 9
-4 4 -18 7 -30 7 -12 0 -35 5 -51 11 -26 10 -27 11 -10 24 10 7 42 17 70 20
28 4 80 18 115 31 49 19 105 28 250 40 180 15 257 15 521 -2 l94 -7 -6 217
c-3 119 -9 221 -12 226 -3 5 -18 5 -37 -1 -44 -12 -52 0 -52 79 -1 852 7 1613
17 1609 7 -2 10 -21 8 -49 -2 -39 1 -46 18 -51 24 -6 29 8 6 17 -16 6 -20 42
-8 72 6 16 7 16 14 -2 7 -18 8 -17 8 3 1 12 -4 25 -10 29 -8 5 -7 10 4 16 13
7 15 20 11 66 -6 62 -18 84 -43 80 -13 -2 -17 10 -22 62 -8 80 -2 120 20 120
24 1 51 25 52 46 1 14 3 13 9 -6 l8 -25 2 25 c1 14 3 39 5 55 2 17 6 102 10
190 3 88 9 171 11 185 5 24 6 24 19 7 7 -10 19 -42 26 -70 14 -60 21 -67 73
-67 26 0 47 -8 68 -25 37 -32 48 -31 48 1 0 50 19 13 24 -49 7 -77 16 -583 16
-897 l0 -235 44 -3 c25 -1 47 2 51 8 6 10 -5 12 -52 13 -13 0 -23 6 -23 13 0
14 11 18 41 15 8 -1 26 3 40 8 l24 10 -25 1 c-55 3 -71 7 -83 20 -8 9 -8 11 0
6 6 -3 14 0 16 6 4 10 6 10 6 1 1 -15 77 -18 85 -4 3 5 -9 12 -27 16 -17 4
-35 9 -39 10 -5 1 -12 3 -18 4 -5 0 -10 5 -10 11 0 5 20 7 45 5 35 -4 45 -2
45 10 0 8 -9 15 -20 15 -11 0 -20 5 -20 11 0 7 21 10 59 7 33 -1 63 0 67 5 4
4 -3 7 -15 7 -37 0 -111 22 -111 33 0 6 23 8 62 4 65 -6 62 7 -4 18 -54 10
-47 23 15 27 49 3 50 4 25 15 -47 21 -43 33 14 34 29 1 43 4 31 6 -13 2 -23 9
-23 14 0 5 -9 9 -20 9 -11 0 -20 5 -20 10 0 6 19 10 42 10 47 0 43 10 -10 26
l-37 12 35 2 c19 1 43 2 53 1 9 -1 17 2 17 7 0 9 -34 25 -75 36 -11 3 1 4 27
2 59 -4 84 9 40 21 -39 10 -42 25 -6 29 39 4 40 11 3 27 -34 14 -34 14 -6 14
37 1 45 10 22 27 -17 12 -17 13 6 19 19 5 21 9 11 19 -17 17 -15 25 8 31 23 6
27 27 5 27 -8 0 -15 5 -15 10 0 6 16 10 35 10 37 0 47 13 18 25 -17 6 -17 7 1
20 17 13 17 15 3 21 -29 11 -19 24 18 24 19 0 35 5 35 10 0 6 -7 10 -15 10
-33 0 -12 18 25 22 22 2 40 1 40 -2 0 -3 15 -7 33 -8 17 -1 40 -5 50 -8 9 -3
17 -1 17 5 0 6 -22 13 -50 17 -27 4 -55 13 -61 20 -10 12 -1 13 60 8 39 -4 71
-4 71 0 0 3 -15 13 -32 21 -32 14 -32 14 34 10 69 -4 99 7 50 19 -103 26 -101
25 -47 24 77 -1 79 0 65 16 -6 8 -21 17 -33 20 -28 6 84 -3 137 -11 28 -4 37
-3 32 5 -4 7 -18 12 -31 12 -13 0 -27 5 -30 10 -5 8 23 9 87 5 86 -6 91 -5 66
9 -15 8 -38 17 -50 20 -37 8 148 -8 195 -17 5 -1 12 4 14 11 3 7 1 12 -4 11
-4 -1 -14 -1 -22 0 -16 1 -5 16 12 16 5 0 12 6 15 13 2 6 -2 12 -8 12 -10 0
-10 3 0 15 6 8 9 19 5 25 -3 5 -1 10 5 10 6 0 8 5 5 10 -3 6 -1 10 5 10 7 0
10 7 6 15 -3 8 -2 15 2 15 4 0 13 4 21 9 12 8 12 12 2 25 -12 14 -10 16 7 16
15 0 19 5 15 20 -3 11 -1 20 5 20 6 0 13 18 17 39 4 22 13 42 21 45 7 3 11 12
8 19 -3 8 2 17 11 21 9 3 13 10 10 16 -9 15 37 12 57 -4 10 -7 15 -15 13 -18
-3 -3 16 -13 42 -22 87 -31 92 -35 56 -35 -32 -1 -49 -21 -18 -21 8 0 15 -5
15 -11 0 -9 86 55 115 85 6 6 35 31 65 56 93 76 100 83 198 168 52 45 98 82
103 82 4 0 36 -39 70 -87 34 -49 64 -90 65 -91 2 -3 35 -12 98 -27 30 -7 76
-29 76 -37 0 -3 7 -14 16 -23 13 -12 17 -33 16 -82 -1 -36 -4 -73 -7 -82 -3
-9 7 -36 22 -59 25 -39 28 -40 35 -21 5 14 4 27 -4 37 -8 10 -8 13 -2 9 15 -9
30 10 39 46 4 15 12 27 17 27 7 0 6 5 -1 14 -9 11 -6 15 14 20 14 4 25 13 25
22 0 8 7 22 15 31 12 11 13 18 4 29 -8 10 -8 23 1 49 9 28 9 43 0 66 -10 23
-10 33 -1 42 8 8 11 8 11 -1 0 -29 19 -8 29 33 6 25 14 45 17 45 3 0 4 -10 0
-23 -3 -12 1 -35 9 -51 17 -32 20 -60 5 -51 -6 4 -10 -6 -10 -24 0 -16 5 -33
10 -36 6 -3 10 -25 9 -48 0 -33 -2 -38 -9 -22 -8 18 -9 17 -9 -7 -1 -16 3 -28
7 -28 5 0 9 -53 10 -117 1 -150 7 -247 15 -261 4 -5 2 -12 -3 -14 -7 -2 -5
-15 5 -35 16 -31 31 -34 60 -12 6 4 87 10 180 12 139 4 183 1 242 -13 39 -10
76 -21 82 -24 6 -4 24 0 40 9 40 20 57 19 91 -5 24 -17 29 -29 32 -68 l3 -47
135 -5 c74 -3 140 -9 147 -13 7 -4 17 -24 22 -44 18 -64 -4 -70 -279 -79 -121
-4 -190 -11 -200 -19 -8 -6 -40 -13 -70 -14 -30 -1 -67 -9 -82 -16 -16 -7 -28
-10 -28 -5 0 5 -12 5 -27 1 -16 -4 -34 -6 -40 -4 -7 3 -13 1 -13 -4 0 -13 -73
-13 -89 0 -16 14 52 -87 80 -119 11 -11 19 -23 19 -27 0 -17 94 -136 103 -130
6 4 7 1 2 -6 -4 -7 1 -22 12 -34 11 -12 30 -39 43 -60 l23 -39 15 31 c8 18 17
29 20 26 3 -3 0 -11 -6 -17 -19 -19 -15 -41 8 -35 12 3 21 -1 25 -12 4 -14 27
-16 221 -13 194 4 217 2 235 -14 10 -9 19 -21 19 -27 0 -12 48 -69 67 -80 9
-6 23 2 43 23 l30 32 0 1089 0 1089 -4947 0 -4948 0 -1 -2003z m850 1739 c55
-8 124 -18 151 -21 171 -21 608 -87 700 -105 28 -6 56 -11 63 -12 6 -1 12 -6
12 -13 0 -42 -77 -69 -240 -84 -388 -38 -525 -53 -539 -60 -9 -5 -61 -12 -116
-15 -55 -3 -116 -8 -135 -12 -83 -14 -117 31 -124 165 -4 91 11 137 54 158 32
16 51 16 174 -1z m1614 -70 c24 -15 11 -46 -41 -95 -47 -45 -108 -139 -107
-167 0 -19 -84 -118 -88 -104 -4 10 -6 9 -13 -1 -6 -11 -9 -11 -13 1 -3 8 -10
28 -16 44 l-11 30 -14 -28 c-8 -16 -15 -40 -15 -55 0 -35 -15 -59 -23 -37 -4
9 -13 16 -22 16 -8 0 -15 4 -15 9 0 5 -8 11 -17 14 -10 2 1 8 25 12 23 4 42 9
42 12 0 2 -7 14 -16 28 -14 21 -14 24 3 34 10 6 12 11 6 11 -15 0 -7 55 12 85
46 72 185 186 239 196 29 6 71 3 84 -5z m367 -162 c6 -12 17 -30 25 -39 28
-34 40 -91 40 -195 0 -68 -6 -120 -16 -149 -8 -24 -13 -44 -12 -46 2 -1 19 -6
38 -11 41 -12 48 -32 21 -63 -16 -18 -36 -25 -88 -31 -37 -5 -92 -14 -121 -21
-47 -11 -53 -16 -48 -33 11 -44 25 -125 41 -236 9 -63 20 -128 25 -145 19 -70
33 -154 34 -205 l1 -55 47 -1 c27 -1 59 -9 76 -20 32 -20 122 -101 122 -109 0
-3 -9 -5 -20 -5 -11 0 -28 -5 -39 -11 -11 -8 -24 -9 -35 -2 -9 5 -46 6 -83 2
-52 -5 -71 -12 -85 -29 -10 -12 -15 -27 -11 -33 14 -23 20 -104 12 -158 -7
-44 -6 -63 6 -85 8 -16 15 -41 15 -56 0 -16 5 -28 11 -28 5 0 8 4 5 9 -3 5 10
11 29 13 19 2 35 1 35 -4 0 -4 7 -5 15 -2 18 7 20 -12 3 -22 -7 -5 -27 -7 -45
-5 -18 1 -46 -4 -63 -12 -16 -9 -60 -19 -97 -22 -38 -4 -86 -13 -108 -20 -22
-7 -78 -25 -125 -39 -100 -30 -202 -91 -313 -188 -43 -38 -82 -66 -88 -63 -12
8 -12 82 0 90 9 5 7 46 -5 105 -5 23 -6 24 -19 7 -18 -26 -55 -6 -55 29 0 37
26 93 47 101 48 17 59 60 38 148 -6 24 14 136 26 150 15 16 10 50 -11 73 -11
12 -20 27 -20 35 0 24 -11 26 -33 4 l-21 -21 -8 37 c-12 58 21 120 35 66 l6
-20 20 20 c11 11 34 27 50 36 17 8 33 25 36 38 19 86 26 126 31 204 6 90 40
188 70 206 8 4 14 14 14 22 0 17 22 69 61 147 25 51 26 57 11 61 -11 3 -9 5 8
6 34 1 15 15 -50 36 -30 10 -59 21 -64 26 -13 12 12 65 37 77 12 6 110 16 217
23 190 12 240 21 187 34 -15 4 -28 14 -31 23 -15 59 -16 76 -4 83 10 7 11 12
1 29 -7 11 -13 28 -13 39 0 11 -9 21 -22 24 -20 6 -20 7 -5 31 9 14 14 32 11
40 -4 11 6 18 38 26 65 17 68 18 62 33 -2 7 6 19 21 27 15 8 31 23 36 33 15
26 80 20 94 -9z m1557 -157 c21 0 43 -6 50 -15 11 -13 14 -11 19 9 l7 24 1
-23 c1 -13 -8 -36 -18 -51 -11 -15 -22 -45 -26 -66 -4 -22 -15 -64 -26 -93
-10 -29 -19 -68 -19 -86 0 -39 -14 -53 -58 -62 -22 -5 -32 -3 -32 6 0 10 -3
10 -14 1 -8 -7 -33 -12 -55 -13 -43 0 -48 -8 -32 -50 8 -21 6 -23 -28 -26 -31
-2 -40 2 -50 22 -8 13 -10 30 -6 36 4 7 1 16 -6 21 -11 8 -9 14 11 32 18 16
24 30 22 51 -2 19 2 32 12 38 9 5 16 15 16 22 0 7 13 40 30 72 16 32 30 63 30
67 0 16 54 79 74 87 12 5 30 6 41 3 10 -3 36 -6 57 -6z m480 -142 c41 -68 42
-74 31 -128 -7 -31 -7 -56 -2 -61 18 -20 9 -58 -22 -87 l-31 -29 49 0 c60 0
93 -21 93 -59 0 -49 -30 -65 -118 -63 -42 1 -111 -2 -152 -7 -98 -11 -366 6
-398 26 -19 11 -23 22 -20 51 l3 37 60 8 c129 17 120 13 131 60 8 37 12 42 33
39 14 -1 32 -9 42 -18 15 -13 19 -12 42 15 14 17 27 36 30 43 7 22 16 4 20
-40 5 -59 27 -82 79 -82 38 0 40 1 23 13 -16 12 -17 23 -11 80 6 59 4 69 -14
87 -11 11 -25 20 -31 20 -6 0 -9 6 -6 13 2 6 10 11 16 10 6 -2 11 4 11 13 0 8
15 33 33 55 40 49 80 51 109 4z m147 18 c6 -10 11 -13 11 -5 0 26 39 -12 45
-45 3 -19 12 -36 19 -39 7 -3 12 -16 11 -28 -2 -16 5 -28 21 -37 16 -8 24 -21
23 -38 0 -23 -1 -24 -8 -6 -7 17 -10 13 -20 -22 -10 -36 -16 -43 -36 -43 -29
0 -42 21 -49 79 -4 32 -13 51 -37 72 -29 26 -31 31 -20 52 7 13 12 33 11 43
-4 39 11 48 29 17z m-4078 -87 c5 3 9 0 9 -5 0 -6 7 -11 15 -11 8 0 15 -8 15
-17 1 -10 3 -43 5 -73 5 -50 25 -721 25 -811 0 -50 -41 -101 -79 -97 -19 2
-32 15 -49 48 l-24 45 6 395 c7 419 8 446 21 498 8 33 20 41 28 20 3 -7 6 -4
7 7 1 11 4 14 7 7 2 -6 9 -10 14 -6z m863 -755 c12 -25 31 -60 43 -76 11 -17
29 -62 38 -100 16 -62 16 -82 6 -165 -7 -52 -13 -135 -14 -183 -1 -62 -6 -90
-16 -96 -11 -7 -11 -10 1 -17 38 -23 49 -59 46 -160 -1 -55 3 -117 10 -139 16
-55 1 -98 -44 -124 -33 -20 -34 -22 -34 -84 0 -47 5 -71 18 -88 30 -38 34 -58
37 -168 3 -104 3 -105 -26 -134 -32 -31 -46 -32 -192 -11 -41 6 -52 3 -86 -20
-56 -39 -72 -41 -261 -38 l-170 3 -20 38 c-10 21 -26 41 -35 45 -9 3 -93 6
-185 6 -182 0 -255 10 -294 41 -47 37 -42 127 10 181 52 55 68 60 178 62 58 1
107 4 110 7 3 3 9 69 12 146 l7 142 -146 -2 c-140 -2 -146 -1 -170 21 -31 29
-40 62 -28 95 15 39 72 87 118 98 23 6 42 14 41 18 -2 19 3 24 12 11 8 -12 10
-13 10 -1 0 8 6 22 13 30 8 9 20 37 27 64 7 26 17 50 21 53 5 3 9 16 9 30 0
14 4 23 9 20 5 -4 20 11 32 31 13 21 28 41 33 45 6 4 16 22 22 40 7 22 18 34
32 36 12 2 22 9 22 16 0 7 10 24 23 37 55 57 92 81 152 100 35 11 71 26 79 34
8 8 24 15 36 15 12 0 19 4 16 9 -3 5 1 15 10 22 12 10 17 10 23 0 12 -18 126
-10 126 9 0 9 13 17 30 20 19 3 31 12 33 25 2 11 8 24 13 29 17 18 202 83 221
78 11 -2 29 -26 42 -51z m2492 -383 c69 -32 170 -197 203 -332 13 -52 28 -88
45 -105 l26 -27 -16 -97 c-17 -96 -16 -99 6 -173 24 -83 23 -115 -7 -253 -12
-57 -13 -79 -4 -93 17 -28 13 -52 -14 -78 -14 -13 -25 -30 -25 -38 0 -22 -42
-132 -50 -132 -4 0 -12 -24 -19 -54 -15 -68 -37 -88 -101 -93 -44 -3 -53 -1
-75 23 -13 14 -27 42 -31 60 -4 21 -17 42 -34 54 l-29 20 -6 -20 c-3 -11 -10
-20 -14 -20 -16 0 -121 109 -132 136 l-11 29 -15 -28 c-14 -27 -16 -28 -33
-12 -10 9 -23 37 -29 62 -13 48 -13 151 -1 168 13 18 18 55 9 61 -5 3 -9 18
-9 34 0 29 -51 100 -72 100 -15 0 -68 53 -68 67 0 7 -6 13 -13 13 -7 0 -23 14
-35 30 l-23 30 26 10 c38 14 53 12 75 -10 20 -20 80 -28 80 -10 0 5 21 7 50 3
34 -4 50 -2 50 6 0 6 -6 11 -13 11 -8 0 -19 11 -25 25 -16 34 -15 36 9 27 30
-11 79 -2 79 14 0 8 5 14 10 14 6 0 10 -6 10 -14 0 -7 10 -16 21 -19 17 -5 20
-10 14 -29 -4 -13 -11 -61 -15 -108 -5 -70 -14 -102 -50 -180 -23 -52 -49
-104 -56 -115 -16 -23 -18 -55 -4 -55 6 0 10 -6 10 -13 0 -8 17 -25 38 -39 20
-13 36 -30 35 -36 -3 -12 10 -15 57 -14 65 2 100 7 100 14 0 4 -5 8 -10 8 -6
0 -5 8 2 20 7 11 22 20 33 20 12 0 27 6 33 12 10 10 14 10 21 0 12 -20 85 -12
89 11 3 15 -5 17 -57 17 -33 0 -62 4 -65 9 -3 5 -29 7 -58 5 -49 -4 -52 -4
-34 11 11 8 26 15 33 15 7 0 31 18 52 39 24 24 57 44 80 51 23 6 41 14 41 17
0 4 -11 19 -25 33 -30 32 -37 54 -39 140 -1 36 -5 72 -9 80 -3 8 -16 41 -28
74 -12 32 -30 67 -40 77 -10 10 -28 37 -39 59 -26 52 -56 63 -145 57 -66 -5
-142 6 -173 27 -11 6 -9 12 7 28 17 15 19 23 11 38 -6 11 -7 20 -3 20 4 0 -2
7 -13 15 -10 8 -28 15 -39 15 -16 0 -24 11 -36 50 -10 31 -12 55 -6 65 8 15
11 15 34 -1 24 -15 25 -15 20 0 -4 10 2 21 18 32 14 9 22 20 19 25 -3 5 -2 15
3 22 4 6 8 18 10 26 1 7 6 18 11 23 10 10 116 37 149 38 12 0 34 5 50 12 15 6
37 13 47 15 11 2 22 6 25 9 8 7 61 -6 107 -28z m-822 -607 c31 -28 84 -135 92
-185 l5 -31 -16 28 c-24 41 -24 33 -3 -30 12 -34 22 -99 25 -158 5 -93 4 -101
-16 -119 -23 -21 -30 -46 -7 -27 19 16 28 -1 17 -32 -13 -34 -31 -44 -31 -17
0 15 -5 20 -17 18 -12 -3 -17 -12 -16 -26 2 -12 -2 -22 -7 -22 -6 0 -10 -7
-10 -15 0 -8 5 -15 11 -15 8 0 7 -5 -1 -15 -11 -13 -10 -14 2 -10 10 4 14 0
13 -16 -1 -12 22 -67 52 -120 57 -106 66 -151 33 -169 -11 -6 -20 -16 -20 -23
0 -7 -13 -40 -29 -74 -27 -57 -32 -62 -57 -57 -15 3 -37 10 -48 17 -13 7 -61
12 -123 11 -85 0 -106 -3 -123 -19 -11 -10 -20 -22 -20 -27 0 -18 107 -57 173
-63 37 -3 67 -4 67 -2 0 8 -95 36 -115 34 -15 -2 -20 4 -20 23 0 25 0 25 92
24 55 0 97 -5 106 -12 7 -7 17 -9 20 -5 10 10 8 -12 -4 -44 -13 -36 -21 -109
-19 -198 0 -38 -2 -84 -5 -102 -7 -40 -48 -70 -106 -78 -29 -5 -39 -3 -31 3
11 8 9 14 -10 32 -40 39 -156 110 -190 117 -55 11 -92 30 -134 70 -44 41 -90
103 -78 103 4 0 -10 16 -32 36 -24 23 -34 39 -26 41 17 6 15 22 -9 68 -17 31
-19 43 -10 58 7 10 9 27 6 38 -4 10 -2 19 3 19 8 0 25 84 27 136 0 6 6 18 12
26 13 15 7 148 -6 148 -13 0 -101 -345 -101 -394 0 -9 -4 -16 -9 -16 -5 0 -8
-6 -8 -12 1 -7 -2 -71 -7 -143 -10 -154 -24 -140 -19 20 4 122 9 158 22 151 4
-3 11 20 14 52 4 31 9 80 13 107 4 38 3 46 -5 35 -9 -11 -10 1 -6 50 3 35 9
67 13 70 7 5 31 73 52 148 8 31 15 42 26 38 11 -4 13 1 8 22 -4 19 -3 23 4 13
8 -11 12 -3 17 31 4 29 12 45 21 45 8 0 14 -4 14 -9 0 -4 -5 -8 -11 -8 -7 0
-10 -12 -7 -30 3 -16 2 -30 -1 -30 -4 0 -7 -19 -7 -42 -1 -23 -7 -44 -13 -46
-6 -2 -11 -13 -11 -24 0 -18 2 -19 16 -7 15 12 16 11 10 -9 -4 -12 -5 -22 -2
-22 14 0 46 36 46 52 0 11 7 18 19 18 15 0 19 6 17 30 -1 17 4 36 11 42 8 6
11 19 7 30 -3 11 0 33 7 51 10 23 10 32 1 35 -16 5 -15 34 3 58 8 10 15 29 15
42 0 13 9 27 23 33 22 10 77 110 77 140 0 9 9 26 20 39 32 36 24 55 -10 25
-16 -14 -16 -13 -6 20 7 24 21 40 43 50 18 9 35 20 38 25 10 16 35 12 29 -5
-4 -10 0 -15 12 -15 11 -1 36 -7 58 -15 21 -7 47 -10 58 -6 19 7 19 9 4 23
-25 26 -19 34 22 30 22 -3 49 -15 66 -31z m-2966 -199 c30 -23 38 -78 22 -161
-12 -67 -13 -68 -45 -69 -23 -1 -35 4 -39 16 -4 9 -13 28 -22 42 -24 39 -14
134 17 165 29 29 37 30 67 7z m4677 -294 c26 -21 27 -24 22 -86 -5 -49 -3 -69
9 -87 15 -23 14 -27 -6 -55 -12 -16 -25 -30 -29 -30 -24 0 -55 -210 -40 -264
6 -21 9 -39 7 -40 -2 -1 -23 -13 -48 -26 -40 -21 -56 -24 -151 -22 -68 1 -132
9 -180 22 -41 11 -60 19 -44 17 23 -1 37 6 60 31 17 19 54 59 82 90 54 59 75
111 56 141 -9 13 -32 16 -134 16 -68 0 -133 3 -144 7 -48 18 -68 97 -41 163
18 43 50 50 171 36 50 -6 109 -11 132 -11 40 0 43 2 52 38 19 67 41 82 125 82
60 0 78 -4 101 -22z m-3080 -186 c-2 -9 -9 -48 -16 -87 -6 -38 -27 -128 -46
-200 -91 -335 -116 -454 -129 -607 -4 -51 -9 -68 -20 -68 -9 0 -12 5 -8 11 10
17 11 89 1 82 -5 -3 -7 7 -3 23 3 16 8 65 12 109 3 44 9 82 13 85 4 3 8 21 9
41 1 19 7 51 12 70 13 44 13 50 -2 47 -15 -3 -15 -6 -4 90 12 107 27 146 21
53 -3 -41 -8 -85 -11 -98 -4 -14 -2 -23 5 -23 6 0 11 14 11 32 0 17 4 45 9 62
5 17 19 63 31 101 21 71 27 92 51 178 7 26 17 47 21 47 4 0 8 9 8 20 0 11 5
20 11 20 6 0 9 6 6 14 -6 16 2 28 13 21 5 -3 7 -13 5 -23z m2168 -374 c4 -51
18 -140 32 -197 29 -120 28 -136 -10 -119 -22 10 -30 8 -55 -10 -17 -12 -44
-32 -60 -44 l-31 -22 -137 71 c-75 39 -156 76 -179 83 -52 16 -64 43 -34 71
12 12 21 32 21 49 0 37 8 37 67 4 41 -22 47 -24 55 -10 5 9 18 16 29 16 29 0
59 18 59 36 0 21 27 29 47 13 15 -12 16 -12 11 7 -4 17 -1 20 23 16 24 -4 29
-1 29 17 0 22 27 41 60 41 12 0 19 4 16 9 -6 9 31 61 43 61 4 0 11 -42 14 -92z
m-1204 -622 c-1 -23 -4 -59 -7 -81 -4 -32 -6 -36 -13 -20 -6 16 -8 17 -8 3 -1
-9 10 -29 23 -45 31 -37 85 -135 96 -175 8 -25 7 -28 -5 -18 -8 7 -15 17 -15
23 0 5 -25 41 -56 78 -84 103 -100 163 -68 260 16 48 17 49 35 33 14 -12 19
-30 18 -58z"/>
<path d="M3331 3621 c-23 -6 -21 -8 20 -25 42 -17 43 -18 19 -26 -14 -5 -38
-11 -55 -15 l-30 -8 33 -9 c38 -10 43 -28 8 -28 -14 0 -27 -4 -30 -9 -3 -4
-23 -11 -44 -15 -21 -3 -47 -15 -57 -26 -20 -22 -20 -25 13 -34 16 -5 22 -3
22 7 0 29 67 45 85 20 8 -10 17 -14 22 -9 4 5 2 11 -4 13 -7 3 -13 9 -13 14 0
6 8 5 20 -1 11 -6 20 -18 20 -26 0 -17 28 -49 36 -41 3 3 0 15 -6 27 -6 11 -9
26 -7 33 2 7 11 -3 21 -20 9 -18 21 -33 26 -33 6 0 15 -11 22 -25 6 -13 15
-22 19 -19 15 9 10 40 -11 67 -25 32 -29 130 -5 121 26 -10 19 41 -7 54 -32
15 -88 21 -117 13z"/>
<path d="M9408 4412 c-9 -2 -18 -11 -21 -21 -3 -11 -18 -22 -35 -26 -17 -3
-32 -12 -35 -18 -3 -8 -23 -12 -52 -11 -41 2 -46 0 -42 -17 4 -14 0 -19 -15
-19 -10 0 -16 -5 -13 -10 4 -6 10 -8 15 -5 13 8 52 -14 45 -26 -4 -5 6 -14 20
-19 20 -8 25 -14 17 -23 -11 -13 0 -16 55 -17 26 0 42 -20 16 -20 -15 0 -16
-2 -3 -10 17 -10 22 -60 6 -60 -6 0 -5 -5 2 -12 19 -19 15 -41 -5 -34 -16 5
-16 4 -3 -6 21 -18 21 -106 0 -112 -11 -3 -11 -4 3 -5 20 -1 23 -17 5 -24 -10
-4 -10 -6 0 -6 6 -1 12 -10 12 -20 0 -11 -6 -22 -12 -24 -10 -4 -10 -6 0 -6 6
-1 12 -8 12 -16 0 -8 -6 -15 -12 -15 -10 0 -10 -2 0 -9 11 -7 12 -71 2 -101
-1 -3 -1 -21 0 -41 1 -35 0 -36 -26 -31 -19 3 -25 1 -20 -7 4 -6 16 -11 27
-11 11 0 17 -4 14 -10 -3 -5 -16 -10 -28 -10 -20 -1 -20 -2 -4 -11 9 -5 22 -7
27 -4 6 3 10 1 10 -4 0 -6 -12 -11 -27 -11 -16 0 -35 -5 -43 -10 -12 -8 -11
-10 8 -10 24 0 28 -10 10 -28 -9 -9 -9 -12 0 -12 7 0 12 -4 12 -10 0 -5 -17
-10 -37 -10 l-38 -1 25 -14 25 -15 -23 -6 c-18 -5 -20 -9 -10 -16 10 -7 10
-10 -4 -18 -9 -6 -15 -17 -12 -25 4 -9 0 -15 -10 -16 -29 -3 -34 -4 -42 -11
-4 -5 4 -8 19 -8 14 0 29 -4 32 -10 4 -6 -8 -10 -29 -10 -35 0 -49 -14 -23
-23 7 -2 -1 -11 -18 -20 -30 -16 -23 -21 24 -17 14 1 21 -2 17 -9 -4 -6 -20
-11 -37 -11 -16 0 -29 -4 -29 -10 0 -5 6 -10 13 -10 9 0 9 -2 0 -8 -18 -11 -2
-27 32 -31 39 -4 46 -11 12 -11 -19 0 -27 -5 -27 -17 0 -13 2 -15 8 -5 7 10
15 10 36 2 22 -8 26 -14 20 -33 -4 -12 -7 -29 -8 -37 -1 -21 -16 -30 -48 -30
-24 0 -27 -5 -33 -42 -4 -24 -5 -70 -3 -103 l3 -60 50 -5 c28 -3 56 -9 62 -13
7 -5 48 -10 90 -13 43 -2 137 -18 208 -35 110 -26 152 -31 275 -32 l145 -2 3
234 2 234 -26 57 -27 56 -146 0 c-179 0 -197 4 -206 45 -5 22 -3 36 8 47 14
13 19 12 47 -12 32 -26 34 -27 162 -24 l129 3 17 30 c9 17 23 34 30 38 9 6 12
101 12 420 l-1 412 -25 19 c-25 18 -36 18 -172 8 -141 -10 -146 -11 -167 -38
-25 -32 -40 -136 -29 -204 4 -27 3 -40 -5 -40 -7 0 -11 -21 -12 -52 -1 -68
-17 -113 -18 -51 -1 23 -8 76 -17 117 -13 59 -15 86 -6 128 6 32 6 61 1 76 -5
13 -9 38 -9 55 -1 46 -27 74 -75 79 -23 2 -48 2 -57 0z"/>
<path d="M8126 3655 c-3 -9 -6 -27 -6 -39 0 -23 -33 -66 -51 -66 -15 0 -43
-71 -40 -101 1 -15 -5 -34 -14 -43 -9 -9 -12 -16 -7 -16 6 0 13 -13 17 -30 4
-16 11 -30 16 -30 5 0 9 -8 9 -17 0 -13 4 -11 13 7 14 28 59 39 83 19 12 -10
14 1 14 79 0 50 5 94 10 97 6 3 10 2 10 -4 0 -6 7 -8 15 -5 13 5 15 -9 15 -94
0 -76 3 -102 15 -112 8 -7 15 -9 15 -5 0 4 7 2 15 -5 9 -7 17 -11 19 -9 2 2
16 39 31 82 26 74 33 145 20 187 -3 10 -1 36 4 59 5 23 6 43 2 45 -3 2 -49 6
-102 10 -84 6 -97 5 -103 -9z"/>
<path d="M6448 3612 c-17 -3 -18 -22 -18 -225 0 -122 -2 -271 -5 -332 l-4
-110 103 105 c57 58 102 108 100 112 -3 4 -20 4 -39 1 -18 -3 -47 -2 -62 2
l-28 7 40 13 40 12 -29 8 c-16 4 -42 8 -58 9 -32 1 -37 11 -8 19 14 3 20 14
20 31 0 18 7 29 22 35 l23 8 -22 7 c-12 4 -33 4 -47 0 -18 -4 -26 -2 -26 7 0
10 16 15 53 17 28 2 57 8 62 13 7 7 5 8 -5 5 -8 -3 -22 -2 -30 4 -24 15 0 29
60 32 l55 3 -60 14 c-47 11 -56 15 -40 22 11 4 34 8 50 9 l30 2 -35 13 c-19 7
-46 14 -60 14 -38 2 -4 20 40 22 29 1 25 4 -30 17 l-65 16 43 8 c51 11 46 28
-9 28 -28 0 -39 4 -39 15 0 8 6 12 13 10 6 -2 28 -1 47 3 l35 8 -50 10 c-27 5
-58 8 -67 6z"/>
<path d="M7973 3122 c-10 -6 -17 -82 -14 -159 1 -28 5 -33 34 -38 18 -4 63 1
100 9 88 20 109 20 138 -2 19 -15 44 -19 120 -21 52 -1 108 3 123 9 28 10 28
12 23 68 -4 31 -6 69 -7 84 0 19 -4 26 -14 22 -9 -3 -17 3 -22 18 l-8 23 -7
-25 -7 -25 -2 25 c-1 14 -10 -13 -19 -60 -15 -74 -20 -85 -37 -82 -10 2 -24
10 -30 18 -10 13 -12 13 -18 -1 -3 -8 -12 -15 -20 -15 -27 0 -257 120 -263
137 -6 14 -7 14 -14 -3 -7 -17 -8 -17 -8 -1 -1 11 -6 15 -12 11 -6 -3 -14 -2
-18 4 -4 6 -12 8 -18 4z"/>
<path d="M9867 2515 c-9 -8 -33 -15 -53 -15 -30 0 -35 -3 -26 -12 7 -7 12 -20
12 -30 0 -10 5 -18 12 -18 27 0 -4 -13 -38 -16 -41 -3 -73 -24 -36 -24 31 0
27 -16 -8 -34 -16 -8 -30 -10 -30 -5 0 12 -27 11 -35 -1 -12 -19 17 -42 43
-35 19 5 23 3 19 -9 -7 -18 4 -21 19 -6 6 6 15 6 24 0 13 -8 12 -10 -4 -10
-12 0 -16 -5 -12 -15 3 -8 1 -15 -4 -15 -6 0 -10 -4 -10 -10 0 -5 6 -10 14
-10 9 0 12 -7 9 -20 -3 -11 0 -20 6 -20 6 0 11 -13 11 -30 0 -16 5 -30 10 -30
6 0 10 -9 10 -19 0 -10 7 -22 16 -25 8 -3 12 -10 9 -16 -3 -5 -2 -10 3 -10 4
0 24 -13 42 -30 18 -16 40 -30 47 -30 7 0 13 -4 13 -10 0 -13 -13 -13 -27 1
-7 7 -13 7 -17 1 -3 -6 -2 -13 3 -17 11 -6 3 -36 -13 -48 -7 -6 -4 -7 7 -3 12
4 17 0 17 -13 0 -11 5 -21 12 -23 18 -6 1 -38 -21 -38 -11 0 -21 -8 -23 -17
-5 -26 25 -54 53 -51 16 2 23 -2 21 -11 -2 -8 3 -18 10 -22 10 -7 10 -11 0
-21 -17 -17 -15 -28 4 -28 11 0 14 -5 10 -16 -3 -9 -6 -18 -6 -20 0 -2 -9 -4
-21 -4 -11 0 -17 -4 -14 -10 3 -5 15 -10 26 -10 27 0 24 -18 -6 -26 -14 -3
-23 -10 -20 -14 6 -10 -15 -7 -34 4 -8 5 -16 3 -22 -5 -20 -32 -1 -48 60 -51
59 -3 72 -12 41 -28 -12 -6 -25 -22 -30 -36 -6 -14 -15 -22 -20 -19 -16 10
-24 -24 -12 -50 8 -16 8 -26 1 -31 -6 -3 1 -15 15 -27 18 -16 24 -28 20 -45
-4 -12 -10 -22 -15 -22 -23 0 -5 -29 21 -35 33 -7 39 -19 14 -29 -10 -4 -13
-13 -9 -25 7 -23 -21 -37 -41 -20 -7 6 -22 8 -34 4 -16 -5 -20 -2 -20 14 0 12
-7 21 -15 21 -16 0 -20 -27 -6 -49 6 -9 18 -12 32 -8 12 3 31 1 41 -4 13 -7
23 -7 32 0 15 12 26 5 26 -17 0 -8 -6 -12 -14 -9 -10 4 -18 -4 -25 -24 -12
-34 -35 -46 -55 -30 -17 14 -28 1 -16 -18 5 -8 15 -11 25 -7 26 10 85 -4 85
-20 0 -8 -9 -14 -20 -14 -15 0 -20 -7 -20 -26 0 -17 -6 -28 -20 -31 -27 -7
-25 -21 2 -25 33 -4 37 -38 5 -38 -24 0 -24 -2 -16 -37 5 -23 4 -42 -1 -47 -6
-6 -4 -17 7 -28 9 -10 11 -18 5 -18 -14 0 -75 32 -84 45 -5 6 -8 5 -8 -2 0 -7
-9 -13 -20 -13 -11 0 -20 -5 -20 -10 0 -17 29 -23 46 -10 19 17 37 1 23 -20
-8 -12 -12 -12 -16 -2 -4 10 -9 9 -24 -4 -12 -11 -34 -18 -56 -17 -25 1 -32
-2 -22 -8 8 -5 25 -9 38 -9 50 0 96 -46 145 -144 43 -86 47 -100 48 -167 0
-41 -5 -103 -12 -137 -12 -71 -61 -206 -83 -231 -8 -9 -20 -26 -26 -38 -12
-23 -12 -23 74 -23 l85 0 0 574 c0 450 -3 575 -12 579 -10 4 -10 6 0 6 9 1 12
130 12 610 0 478 -3 610 -12 614 -10 4 -10 6 0 6 20 2 13 21 -8 21 -14 0 -20
7 -20 23 0 24 -15 45 -56 80 -20 16 -23 16 -37 2z"/>
<path d="M7843 2404 c-9 -24 -9 -100 0 -169 5 -33 11 -97 14 -142 3 -46 10
-83 15 -83 5 0 8 -15 5 -34 -3 -24 0 -36 10 -40 8 -3 11 -11 7 -17 -3 -6 0
-15 7 -20 11 -7 10 -9 -4 -9 -26 0 -29 -18 -12 -95 26 -116 67 -382 67 -435 1
-27 20 -40 58 -40 32 0 43 -6 68 -38 26 -32 37 -38 71 -39 23 -1 63 -13 89
-27 37 -20 228 -86 249 -86 2 0 -1 9 -7 20 -13 25 -5 40 20 40 10 0 20 5 22
12 7 19 38 0 39 -24 1 -17 2 -18 6 -5 2 9 14 17 26 17 20 1 21 2 5 14 -25 19
-22 27 6 20 27 -6 47 17 39 46 -3 13 4 19 27 23 17 4 29 11 25 17 -3 5 0 10 8
10 10 0 13 8 9 25 -3 20 -7 23 -18 15 -8 -8 -19 -8 -31 -2 -10 5 -23 7 -30 5
-6 -2 -14 1 -18 6 -10 17 -28 13 -21 -4 4 -11 -1 -15 -17 -15 -21 -1 -20 -2 6
-18 29 -18 37 -38 11 -28 -13 5 -15 1 -10 -18 7 -27 -15 -52 -38 -43 -8 3 -26
-5 -41 -19 -27 -25 -45 -24 -45 1 0 7 10 15 22 17 24 3 44 53 25 62 -7 3 -5 5
3 5 39 -3 44 0 26 20 -17 19 -17 20 4 31 16 9 20 18 16 35 -5 19 -1 24 27 31
l32 8 -34 3 c-23 3 -35 11 -38 24 -4 14 -11 18 -24 14 -32 -10 -58 12 -61 53
-3 32 -6 37 -25 35 -26 -3 -31 12 -8 21 22 8 18 28 -4 21 -28 -9 -33 19 -5 32
19 9 24 8 24 -3 0 -8 9 -19 19 -26 13 -8 17 -16 11 -23 -15 -18 4 -70 27 -73
17 -3 20 2 19 35 -2 46 -14 70 -40 74 -18 4 -19 5 -3 21 10 9 13 19 8 23 -5 3
-13 0 -17 -6 -4 -8 -9 -7 -15 2 -7 11 -11 10 -22 -5 -9 -12 -20 -17 -31 -13
-24 9 -20 26 9 37 14 5 25 15 25 21 0 8 4 9 13 0 10 -8 19 -7 33 4 18 13 17
14 -18 15 -30 0 -37 4 -40 23 -2 12 -9 21 -16 20 -15 -4 -15 3 -2 26 6 13 17
17 35 14 24 -5 35 10 16 21 -5 3 -7 16 -3 28 4 17 2 20 -11 15 -19 -7 -23 13
-6 30 7 7 3 12 -15 15 -14 3 -26 2 -26 -2 0 -12 -28 -20 -46 -13 -8 3 -13 12
-10 19 3 8 0 14 -8 14 -21 0 -26 -12 -10 -27 17 -17 13 -40 -6 -35 -7 1 -19
-5 -26 -15 -13 -16 -14 -13 -10 24 l5 41 -67 -3 c-37 -1 -100 -6 -140 -10 -71
-8 -72 -7 -69 15 2 13 10 28 19 34 12 9 14 25 9 80 -6 70 -26 100 -38 57 -7
-26 -23 -28 -23 -2 0 10 7 21 15 25 8 3 15 12 15 21 0 18 -11 20 -27 4 -17
-17 -26 8 -47 141 -1 8 -8 29 -15 45 -43 97 -55 111 -68 79z"/>
<path d="M6523 2268 c-11 -19 -26 -59 -33 -89 -7 -30 -19 -67 -27 -82 -8 -16
-16 -57 -18 -93 -2 -35 -7 -69 -11 -75 -5 -8 -1 -8 14 0 15 8 22 8 26 -2 2 -6
2 2 -1 19 -3 20 5 58 22 105 60 167 68 199 56 233 -7 16 -10 15 -28 -16z"/>
<path d="M4105 1823 c-6 -27 -85 -154 -111 -180 -18 -19 -23 -41 -26 -140 -2
-61 -7 -87 -20 -99 -16 -16 -19 -16 -52 9 -55 42 -61 39 -77 -46 -9 -51 -7
-63 30 -174 22 -65 47 -134 55 -153 10 -25 12 -55 9 -104 -3 -38 0 -121 7
-185 13 -112 15 -117 48 -148 29 -27 33 -37 27 -60 -3 -16 -8 -56 -10 -90 l-3
-62 121 -61 c67 -34 127 -67 132 -74 25 -31 106 -69 245 -116 84 -27 158 -50
166 -50 14 0 118 -39 190 -72 38 -17 94 -18 1147 -18 l1107 0 0 29 c0 27 3 29
53 34 38 4 59 1 77 -11 14 -9 29 -15 34 -14 5 2 6 -6 3 -18 l-5 -20 973 0 973
0 18 77 c14 55 24 79 36 81 23 4 28 -22 19 -96 l-7 -62 73 0 c40 0 73 4 73 9
0 5 -12 32 -26 60 -28 56 -209 245 -260 272 -37 20 -53 69 -22 69 10 0 21 6
24 14 6 16 84 36 140 36 19 0 56 -7 82 -15 26 -8 91 -28 144 -44 70 -22 122
-32 182 -33 46 -2 84 -5 84 -8 -2 -24 4 -40 12 -35 5 3 7 12 3 21 -4 10 4 19
26 27 33 12 37 34 5 29 -46 -8 -96 -2 -111 13 -9 9 -39 34 -67 55 l-52 39
-234 2 -235 1 -83 39 c-88 41 -102 45 -102 29 0 -5 5 -10 10 -10 6 0 10 -4 10
-10 0 -16 -14 -11 -43 16 -15 14 -32 22 -37 19 -6 -4 -29 14 -51 39 -23 25
-47 46 -53 46 -7 0 -17 -22 -22 -49 -6 -28 -7 -48 -2 -45 16 10 8 -63 -12
-103 -20 -41 -20 -41 -57 -31 -27 7 -38 7 -41 -1 -2 -6 -10 -11 -18 -11 -8 0
-11 -7 -8 -17 3 -10 -4 -3 -16 15 -26 37 -33 35 -32 -8 0 -16 -4 -32 -9 -35
-5 -4 -9 3 -9 14 0 15 -4 19 -17 14 -10 -4 -22 -12 -26 -20 -4 -7 -15 -13 -24
-13 -10 0 -13 -6 -9 -16 3 -9 6 -27 6 -41 0 -16 4 -23 13 -20 7 2 18 -6 24
-20 10 -20 9 -27 -7 -43 -17 -17 -24 -18 -45 -8 -30 13 -32 22 -45 147 -6 63
-14 99 -26 112 -21 23 -34 24 -34 3 0 -11 -5 -14 -16 -10 -12 5 -15 0 -12 -22
5 -41 -20 -34 -46 13 -11 22 -22 42 -24 45 -6 9 -92 8 -92 -2 0 -6 8 -22 18
-36 24 -36 62 -138 62 -168 0 -15 7 -27 18 -30 34 -11 62 -28 62 -37 0 -5 -7
-6 -16 -3 -8 3 -24 1 -34 -4 -13 -7 -21 -7 -25 0 -3 6 -17 7 -29 4 -16 -4 -25
0 -29 10 -7 18 -52 22 -62 6 -9 -15 -38 -8 -53 13 -8 11 -24 17 -37 15 -28 -3
-85 36 -85 58 0 20 -52 201 -92 321 -18 55 -42 105 -59 124 -16 18 -31 31 -33
28 -7 -8 16 -184 36 -264 10 -44 29 -100 40 -124 12 -24 24 -61 28 -82 6 -32
5 -39 -9 -38 -33 1 -54 16 -57 40 -1 13 -10 49 -19 79 -9 30 -19 66 -22 80 -3
14 -16 48 -29 75 -12 28 -26 68 -30 90 -4 25 -18 50 -36 66 -15 15 -28 35 -28
45 0 26 -13 8 -16 -23 -4 -35 31 -170 63 -241 13 -29 24 -71 25 -93 1 -24 8
-44 17 -50 24 -15 -48 0 -81 17 -16 8 -29 23 -30 34 -1 11 -3 32 -4 48 -5 65
-27 180 -40 210 -8 18 -14 40 -14 50 0 9 -15 31 -34 48 -19 17 -36 40 -39 50
-3 11 -13 45 -22 77 -9 31 -21 55 -26 52 -22 -14 -1 -126 32 -175 25 -37 46
-106 59 -195 6 -44 14 -97 17 -117 4 -25 2 -38 -6 -38 -7 0 -11 -27 -11 -77 0
-61 -4 -85 -20 -108 -24 -36 -26 -26 -4 16 14 27 14 35 0 82 -8 29 -18 77 -21
107 -11 118 -60 299 -129 478 -20 52 -36 100 -36 108 0 20 30 30 41 13 7 -11
9 -11 9 4 0 9 5 17 11 17 6 0 9 -6 6 -14 -8 -20 3 -27 18 -13 6 6 10 19 7 29
-5 21 -49 51 -57 39 -3 -5 -1 -12 5 -16 13 -8 13 -25 0 -25 -6 0 -13 14 -16
30 -4 17 -12 30 -18 30 -6 0 -24 26 -39 56 -31 62 -27 78 21 79 26 0 27 1 25
53 -3 69 -14 87 -68 108 -36 13 -45 21 -43 37 4 29 -24 35 -173 36 -126 1
-127 1 -200 -35 -59 -29 -94 -57 -171 -135 l-96 -98 -79 47 c-49 30 -109 78
-155 126 -42 43 -80 76 -86 72 -28 -17 -144 -172 -218 -291 -71 -114 -112
-156 -170 -178 -32 -12 -43 -13 -36 -4 8 10 5 18 -13 31 -39 29 -32 45 15 39
33 -5 40 -3 40 12 0 9 -9 19 -20 22 -22 6 -27 28 -7 37 6 3 3 4 -8 3 -12 -1
-19 3 -17 12 1 7 -3 20 -9 28 -10 12 -19 6 -56 -36 -41 -47 -44 -49 -73 -38
-25 9 -28 14 -17 22 12 8 5 15 -29 30 -42 19 -62 44 -49 64 3 5 1 12 -4 16 -6
3 -8 12 -4 20 3 10 -1 15 -12 15 -16 0 -16 -20 1 -82 3 -10 1 -18 -4 -18 -5 0
-17 28 -26 62 -10 35 -23 66 -29 70 -9 6 -9 8 0 8 8 0 7 17 -3 62 -8 34 -16
63 -18 65 -2 2 -14 -1 -27 -6 -20 -7 -21 -10 -8 -16 11 -4 15 -14 12 -26 -3
-12 0 -19 8 -19 11 0 11 -2 -1 -10 -11 -7 -12 -12 -3 -21 6 -6 9 -18 6 -25 -3
-8 0 -14 7 -14 6 0 9 -3 7 -7 -3 -5 0 -19 6 -33 9 -23 15 -47 19 -77 1 -7 5
-13 10 -13 4 0 8 -7 8 -15 0 -8 4 -15 9 -15 5 0 8 -8 7 -17 -2 -10 4 -24 11
-32 12 -12 17 -12 30 2 15 15 14 16 -5 11 -16 -5 -20 -2 -17 13 2 10 4 25 4
32 1 12 4 12 13 3 10 -10 10 -15 -2 -23 -12 -8 -11 -9 5 -5 18 5 21 1 23 -29
2 -25 -1 -35 -12 -35 -8 0 -17 -4 -20 -9 -4 -5 4 -7 16 -4 22 4 23 4 4 -11
-19 -16 -19 -16 5 -17 24 0 24 0 2 -11 -23 -11 -86 9 -77 24 3 4 -7 8 -23 9
-15 0 -22 3 -15 6 6 2 12 9 12 15 0 6 -7 8 -14 5 -10 -4 -13 -1 -9 9 3 9 -2
14 -16 14 -12 0 -21 -5 -21 -12 0 -6 -3 -8 -6 -5 -4 4 -1 13 6 22 7 8 9 15 4
15 -5 0 -2 5 6 10 11 8 7 9 -15 4 -38 -8 -60 -27 -25 -21 14 2 19 2 12 0 -7
-3 -10 -13 -6 -27 4 -16 0 -25 -10 -29 -22 -9 -32 72 -17 137 14 59 19 85 20
107 1 9 11 21 24 27 20 10 21 11 2 11 -14 1 -16 4 -7 9 10 7 10 18 1 54 -16
60 -35 52 -38 -15 -1 -28 -7 -55 -14 -59 -9 -6 -9 -8 1 -8 7 0 10 -4 7 -10 -3
-5 -22 -10 -41 -10 -20 0 -41 -6 -48 -12 -8 -7 -23 -20 -35 -28 -11 -8 -21
-18 -21 -23 0 -5 -9 -22 -21 -38 -11 -16 -17 -29 -13 -29 3 0 0 -7 -7 -17 -8
-9 -13 -19 -12 -22 5 -18 -30 -73 -57 -90 -20 -12 -27 -21 -18 -24 9 -3 10 -8
2 -16 -19 -21 -252 28 -238 50 3 5 -9 6 -27 2 -21 -4 -30 -3 -26 4 4 6 -2 13
-13 16 -11 3 -23 1 -26 -5 -3 -5 -13 -6 -23 -3 -9 4 -32 8 -51 11 -19 2 -62
13 -95 24 -54 19 -43 21 25 5 23 -6 23 -5 6 6 -11 6 -40 18 -65 25 -37 11 -39
13 -13 11 37 -4 39 -2 11 13 -14 8 -29 8 -50 1 -18 -6 -29 -6 -29 0 0 5 9 9
19 9 11 0 23 5 26 10 4 6 12 7 18 4 7 -4 8 -3 4 2 -5 5 -27 16 -50 25 -38 15
-39 17 -19 23 18 6 21 11 12 21 -8 10 -7 16 6 23 14 8 4 10 -36 10 -39 0 -49
-2 -35 -8 11 -5 14 -9 7 -9 -14 -1 -82 26 -82 32 0 2 15 2 33 0 17 -2 25 0 17
3 -49 18 -60 27 -49 41 9 10 8 13 -3 13 -8 0 -27 14 -41 30 -15 17 -23 30 -18
30 6 0 13 -4 16 -10 3 -5 12 -10 18 -10 7 1 2 9 -10 19 -26 22 -30 33 -8 25 8
-4 15 -3 15 0 0 4 -12 11 -26 16 -20 8 -24 13 -15 24 6 7 8 16 4 19 -3 4 2 7
12 7 18 0 18 1 -1 15 -18 14 -18 14 0 15 15 0 16 3 6 15 -10 12 -9 15 4 15 10
0 14 5 11 10 -13 22 -50 10 -63 -20 -9 -20 -21 -30 -35 -30 -16 0 -18 -3 -9
-9 10 -6 8 -10 -8 -14 -12 -3 -19 -10 -15 -16 3 -6 2 -11 -3 -11 -11 0 -38 69
-34 87 2 7 -10 18 -25 25 -23 9 -25 12 -10 15 10 3 16 11 14 18 -3 7 0 18 6
24 8 8 8 11 -1 11 -7 0 -25 -12 -40 -27 -45 -45 -59 -54 -76 -47 -24 9 -19 23
6 16 17 -4 20 -2 15 11 -4 10 -2 17 3 17 6 0 10 7 10 15 0 8 5 15 11 15 6 0 9
9 6 20 -3 10 -1 20 5 22 5 2 14 24 19 48 5 25 12 53 15 63 3 9 1 17 -4 17 -6
0 -13 -12 -17 -27z m1272 -555 c-4 -24 -9 -56 -13 -73 -8 -46 -10 -142 -2
-151 4 -3 19 1 32 10 36 23 48 20 44 -11 -2 -19 -10 -29 -23 -31 -41 -6 -51
-12 -36 -21 7 -5 9 -11 5 -14 -13 -7 -74 4 -74 14 0 5 -6 9 -13 9 -23 0 -50
37 -44 60 3 11 0 20 -6 20 -9 0 -9 2 -1 8 7 4 12 25 13 47 1 60 5 85 11 85 3
0 7 10 7 22 1 13 7 24 13 26 5 2 10 10 10 17 0 16 16 23 54 24 28 1 29 0 23
-41z"/>
<path d="M5911 1404 c-22 -36 -41 -69 -41 -74 0 -5 -6 -13 -13 -17 -8 -4 -17
-25 -20 -45 -5 -36 -5 -38 23 -38 28 0 46 22 34 42 -4 6 -8 25 -10 42 -3 22
-1 27 6 16 5 -8 12 -11 16 -7 4 4 12 -1 19 -10 7 -9 22 -17 34 -18 16 -1 20 3
16 17 -11 34 5 39 50 13 55 -30 65 -19 20 25 -18 18 -39 46 -46 62 -9 21 -14
26 -20 16 -6 -9 -9 -4 -9 15 0 15 -4 27 -9 27 -5 0 -27 -30 -50 -66z"/>
<path d="M2834 1269 c-3 -6 -1 -16 5 -22 6 -6 11 -45 11 -89 0 -76 1 -78 43
-129 34 -43 51 -54 91 -64 41 -11 60 -24 113 -81 35 -38 70 -81 78 -96 14 -25
64 -46 83 -34 5 3 7 17 4 31 -2 14 0 25 7 25 20 0 -8 44 -44 68 -18 13 -45 41
-60 63 -15 21 -31 39 -35 39 -5 0 -13 12 -19 28 -14 38 -31 56 -68 75 -17 9
-34 26 -38 37 -3 11 -11 20 -16 20 -5 0 -9 9 -9 21 0 12 -8 23 -20 26 -11 3
-20 12 -20 20 0 16 -13 30 -50 56 -28 20 -46 22 -56 6z"/>
<path d="M7940 718 c0 -53 29 -158 52 -192 12 -17 45 -62 74 -101 28 -38 55
-80 59 -92 6 -22 25 -32 25 -15 0 21 -44 179 -60 214 -21 48 -132 218 -142
218 -5 0 -8 -15 -8 -32z"/>
<path d="M3910 192 c-36 -36 -60 -91 -60 -140 0 -21 -2 -21 -22 -8 -19 12 -31
12 -68 3 -25 -7 -50 -15 -57 -20 -6 -4 -18 -4 -26 -1 -8 3 -18 1 -21 -4 -8
-13 63 -18 281 -21 l173 -2 -25 25 c-14 14 -25 32 -25 41 0 17 -28 48 -59 65
-22 11 -30 63 -11 75 19 12 10 25 -16 25 -17 0 -40 -13 -64 -38z"/>
</g>
</svg>
